<?xml version="1.0" encoding="UTF-8"?>
<svg id="Layer_1" xmlns="http://www.w3.org/2000/svg" version="1.1" xmlns:xlink="http://www.w3.org/1999/xlink" viewBox="0 0 4240.3 1597.3">
  <!-- Generator: Adobe Illustrator 29.3.1, SVG Export Plug-In . SVG Version: 2.1.0 Build 151)  -->
  <defs>
    <style>
      .st0 {
        fill: #0e1118;
      }

      .st1 {
        fill: #37474f;
      }

      .st2 {
        fill: #172530;
      }

      .st3 {
        fill: #02111e;
      }

      .st4 {
        fill: #42525c;
      }

      .st5 {
        fill: #f9f6f2;
      }

      .st6 {
        fill: #1a3f4b;
      }

      .st7 {
        fill: #1a3540;
      }

      .st8 {
        fill: #f8f6f2;
      }

      .st9 {
        fill: #283a46;
      }

      .st10 {
        fill: #1d3641;
      }

      .st11 {
        fill: #1d3944;
      }

      .st12 {
        fill: #f9f7f3;
      }

      .st13 {
        fill: #fbf8f3;
      }

      .st14 {
        fill: #1c343f;
      }

      .st15 {
        fill: #264650;
      }

      .st16 {
        fill: #142d38;
      }

      .st17 {
        fill: #faf7f3;
      }

      .st18 {
        fill: #081e28;
      }
    </style>
  </defs>
  <path class="st6" d="M1368.6,1571.4c-1.5.2-3,.3-4.9,0-.8-1.2-1.1-1.8-.9-2.5,5.2-.9,9.9-1.6,14.7-1.3.6,0,1.3,0,1.9-.1,4.6-1.2,9.4-1.7,14-2.6,14.6-2.8,28.9-7.3,42.7-12.9,3.3-1.3,6.6-2.6,9.7-4.2,8.8-4.6,17.5-9.4,25.7-15.1,5.3-3.6,10.7-7,15.5-11.3,6.3-5.7,13.1-10.8,19.1-16.9,1-1,2.1-2.1,3-3.2,3.4-4.1,6.6-8.5,10.2-12.5,3.6-4,7-8.2,9.5-13,1.3-2.6,2.8-5.2,4.6-7.4,4.2-5,6.1-11.3,9.7-16.7,1.6-2.4,2.8-5.1,3.9-7.7,2.1-5.2,4.1-10.4,6-15.6,1.4-3.7,2.9-7.3,4-11.1,1.7-6.2,3.2-12.4,4.6-18.7.6-2.6,1-5.3,1.4-7.9,1.1-7.6,2.9-15,2.9-22.8,0-379.1,0-758.1,0-1137.2,0-10.2-.5-20.3-2.6-30.3-.8-4-1.2-8.2-2.2-12.2-1.8-7.2-3.7-14.4-6.1-21.5-2.4-6.9-5-13.6-7.9-20.2-2.5-5.7-5.2-11.3-8.4-16.6-3.5-5.9-6.3-12.1-10.5-17.5-1.1-1.5-2.6-2.8-3.4-4.4-3.1-6-8-10.5-12.3-15.5-2.4-2.8-5.5-5.1-7.4-8.4-.8-1.4-2.3-2.4-3.5-3.5-1.9-1.6-4-3-5.7-4.8-3.9-4.1-8.4-7.4-12.9-10.7-3-2.2-6.2-4.1-9.2-6.3-5-3.8-10.1-7.3-15.8-9.9-4.7-2.2-9.5-4.1-14.1-6.6-7.1-3.9-14.7-6.7-22.2-9.1-7-2.2-14.1-4.8-21.6-5.5-1-.1-1.9-1.4-2.9-2.4-.2-.7-.2-1.1-.2-1.5,3.4-.6,6.3,1.9,9.7,1.6,20.4,5.7,40.1,13.2,58.4,24.1,19.9,11.8,37.4,26.5,52.3,44,17.9,21.1,31.3,44.8,40.3,71.1,3.6,10.6,6.3,21.5,8.6,32.4,1.2,5.9,1.8,11.9,2.3,17.9,2.6,30.6,1.2,61.2,1.3,91.8.2,131.9,0,263.7,0,395.6,0,159.2,0,318.3,0,477.5,0,56.5,0,112.9-.1,169.4,0,9.8-.6,19.6-1.5,29.3-.5,6-2.3,11.8-3.1,17.8-1.1,7.8-3.5,15.3-5.7,22.9-6.1,20.4-15.4,39.4-27.1,57.1-10.1,15.4-22.3,29.1-36,41.3-15.6,13.8-32.9,25.4-51.9,34.1-5.1,2.3-10.3,4.4-16.1,6.5-1.9-.3-3.1-.2-3.6,1.1,0,0,0-.1-.3,0-.7.1-.9.4-1.1.8-2.6.9-5.2,1.9-8.4,2.6-.9,0-1.2.2-1.5.4,0,0,0-.1-.4-.1-1,.4-1.6.8-2.2,1.2-1.5.4-3,.7-5.2,1.1-1.3.3-1.8.6-2.3.9-1.3.2-2.6.4-4.7.6-1.5.3-2.1.7-2.8,1.1-8.3,2.1-16.8,2.7-25.9,3.7-.9-.1-1.3,0-1.6.2Z"/>
  <path class="st6" d="M188,1566.7c-1.6-.2-3.3-.3-5.5-.9-1-.5-1.4-.7-1.9-.8-5.2-.6-10.1-2.4-15-4-14.2-4.7-27.8-10.7-40.8-18.3-17.9-10.5-33.8-23.4-48.2-38.3-19.8-20.5-34.6-44.1-44.9-70.5-4.6-11.8-8.2-23.9-10.5-36.4-1.6-9-2.8-18-3.7-27.2-1.1-11-1.2-22-1.2-33.1,0-132.9,0-265.8,0-398.7,0-168.9,0-337.9,0-506.8,0-65.4,0-130.8,0-196.2,0-5.6.6-11.2.9-16.8.2-3.9.3-7.9.9-11.8.8-5.7,2.1-11.4,3.1-17.2.3-1.6.5-3.3,1.3-5.3.5-.4,1-.5,1.4-.5.9,0,1.4,0,2,.4-.4,1-.8,1.6-1.4,2.2-.3.2-.5.4-.5.5.2.2.4.4.6,1.2-1.2,6.2-3.1,11.7-2.5,17.6,0,.6,0,1.3-.2,1.8-1.4,3.2-.9,6.6-1,9.9,0,2.9.4,6-.3,8.7-.9,3.5-.9,7-.9,10.5,0,369.9,0,739.9,0,1109.8,0,6.2-.8,12.5,1.1,18.6.2.6,0,1.2,0,1.9.1,4.8-.5,9.6,1.2,14.2-.7,6.6,2.8,12.5,2.8,19,3,8.4,4,17.3,7.2,25.7,3.2,8.5,6.8,16.9,10.6,25.2,4,8.9,9.4,17,14.9,25.1,6.5,9.7,14,18.5,22,26.9,2.7,2.9,5.7,5.5,8.4,8.4,6.3,6.7,13.9,11.8,21.1,17.3,5.3,4,11,7.4,16.7,10.8,9.5,5.6,19.3,10.5,29.6,14.3,4.7,1.7,9.3,3.4,14.1,4.9,5.9,1.8,11.9,3.6,17.9,5.1,3.2.8,6.5.9,9.8,1.4,1.4.2,2.8.6,4.2,1.1,2.8,1,5.6,1.4,8.6,1.3,3.5,0,7.1-.3,10.5,1.1.9.4,2.1.1,3.1.6,0,1,0,1.6,0,2.2-2.3,0-4.5,0-7.5-.4-2.4-.6-4-.7-5.7-.7-2.8-.2-5.7-.4-9.2-1-1.6-.5-2.5-.7-3.3-.8-2.4-.3-4.8-.6-7.8-1.3-1.1-.6-1.6-.6-2-.7Z"/>
  <path class="st3" d="M217.4,19.7c5-.2,10-.7,14.9-.7,48.7,0,97.5,0,146.2,0,225.2,0,450.4,0,675.6,0,95.6,0,191.2,0,286.9,0,9.6,0,19.2.3,29.3.9.6.9.7,1.3.2,1.7-4.8,0-8.9-.1-13.1-.1-367.6,0-735.2,0-1102.8,0-12.5,0-25,0-37.5-.2,0-.7.1-1.1.2-1.5Z"/>
  <path class="st0" d="M224.1,1571.7c-.6-.7-.6-1.3,0-2.3,3.7-.4,6.9-.4,10-.4,292.6,0,585.1,0,877.7,0,83.5,0,167,0,250.5,0,.3.6.7,1.3,1.1,2.2-3.2.5-6.5.7-9.9.7-89.5,0-179.1,0-268.6,0-180.3,0-360.7,0-541,0-103.3,0-206.6,0-309.8,0-3.1,0-6.2,0-9.9-.2Z"/>
  <path class="st14" d="M216.9,19.5c.5.6.4,1,0,2.1-7.5,2.1-14.6,2.9-21.8,3.6-1.2.1-2.4.6-3.6.9-2.4.6-4.8,1.1-7.3,1.6-2.4.5-4.9.8-7.3,1.5-7.3,2.3-14.6,4.6-21.8,7.3-5.8,2.1-11.7,4.4-17.2,7.2-7.4,3.7-14.6,7.9-21.7,12.1-13.5,7.9-25.1,18.4-36.5,28.9-4.2,3.9-8.2,8.3-11.6,13-5,6.8-10.6,13.3-14.8,20.7-3.3,5.8-6.9,11.4-10,17.2-4.4,8.3-7.8,17-10.9,25.8-1.6,4.5-2.7,9.2-4.6,13.5-1.3,3-2,5.9-1.9,9-.5,0-1,0-2-.4-.5-.7-.6-.9-.6-1.2,0-.9.2-1.7.7-3.2.6-1.5.8-2.4.9-3.3.2-1.2.5-2.4,1.2-4.2.6-1.1.6-1.6.7-2.1.5-5,2.7-9.6,4.5-14.2,8-20.7,18.8-39.8,32.7-57,16.8-20.8,36.9-37.7,60.2-50.7,14.5-8.1,29.8-14.5,45.7-19.3,9.6-2.9,19.3-4.8,29-6.8,5.7-1.2,11.5-1.5,17.8-2Z"/>
  <path class="st6" d="M1371.2,21.6c0-.4-.2-.8-.3-1.6.4-.5.8-.7,1.1-.7,6.9.9,13.9,1.3,20.8,3.8-.9,1.1-2,1.6-3.4,2-.9-.4-1.5-.7-1.9-1.4-1.8-1.8-3.6-1.5-5.8.1-4-.2-7.7.8-10.5-2.3Z"/>
  <path class="st3" d="M1389.7,25.1c1.1-.5,2.1-1,3.4-1.8,1.2-.3,2.2-.2,3.6,0,.4.6.4,1,0,1.6-2.7.2-4.9.2-7.1.2Z"/>
  <path class="st4" d="M210.8,1570.7c1.2-.2,2.9-.2,4.9.3-1.3.3-2.9.1-4.9-.3Z"/>
  <path class="st4" d="M198,1569c.7-.2,1.5,0,2.6.3-.6.1-1.5,0-2.6-.3Z"/>
  <path class="st4" d="M24.6,175.9c.1.7,0,1.6-.5,2.7-.1-.7,0-1.6.5-2.7Z"/>
  <path class="st4" d="M1425.3,1559.1c0-1.4,1.2-1.4,2.7-1.1-.6.5-1.4.8-2.7,1.1Z"/>
  <path class="st4" d="M1403.9,1566c.2-.4.7-.7,1.5-1-.2.4-.7.7-1.5,1Z"/>
  <path class="st4" d="M180.7,1565.2c.4-.1.8,0,1.4.3-.3.1-.8,0-1.4-.3Z"/>
  <path class="st4" d="M1411.4,1563.9c.2-.5.8-.9,1.8-1.2-.2.5-.8.9-1.8,1.2Z"/>
  <path class="st4" d="M1396.5,1567.6c.3-.4.9-.8,1.9-1.2-.3.4-.9.8-1.9,1.2Z"/>
  <path class="st4" d="M188.2,1567c.2-.2.7-.2,1.3.2-.2.2-.7.2-1.3-.2Z"/>
  <path class="st4" d="M1368.9,1571.5c0-.3.3-.4.8-.4,0,.3-.3.4-.8.4Z"/>
  <path class="st4" d="M1413.9,1562.8c0-.2.3-.5.8-.5,0,.3-.2.4-.8.5Z"/>
  <path class="st4" d="M1423.9,1559.8c-.2-.4,0-.7.8-.8.1.4-.1.7-.8.8Z"/>
  <path class="st4" d="M26.5,169.7c.2.3.2.8-.2,1.5-.2-.3-.2-.8.2-1.5Z"/>
  <path class="st4" d="M23.1,182.5c.3,0,.4.3.5,1,0,.4-.5.5-.7.5-.2-.4-.1-.8.2-1.5Z"/>
  <path class="st1" d="M1389.4,25.1c2.5,0,4.7,0,7.5.2,1.5.8,2.4,2.1,3.4,2.2,7.5.8,14.6,3.3,21.6,5.5,7.6,2.4,15.1,5.3,22.2,9.1,4.6,2.5,9.4,4.4,14.1,6.6,5.7,2.6,10.8,6.1,15.8,9.9,3,2.3,6.2,4.1,9.2,6.3,4.5,3.4,9,6.7,12.9,10.7,1.7,1.8,3.8,3.2,5.7,4.8,1.2,1.1,2.8,2.1,3.5,3.5,1.9,3.4,5,5.6,7.4,8.4,4.3,5,9.2,9.5,12.3,15.5.8,1.6,2.3,3,3.4,4.4,4.2,5.4,7,11.7,10.5,17.5,3.2,5.3,5.8,10.9,8.4,16.6,3,6.6,5.5,13.4,7.9,20.2,2.4,7.1,4.3,14.3,6.1,21.5,1,4,1.4,8.1,2.2,12.2,2,10,2.6,20.1,2.6,30.3,0,379.1,0,758.1,0,1137.2,0,7.7-1.8,15.2-2.9,22.8-.4,2.7-.8,5.3-1.4,7.9-1.5,6.2-2.9,12.5-4.6,18.7-1.1,3.8-2.6,7.4-4,11.1-2,5.2-3.9,10.5-6,15.6-1.1,2.7-2.3,5.4-3.9,7.7-3.6,5.4-5.5,11.6-9.7,16.7-1.8,2.2-3.3,4.8-4.6,7.4-2.5,4.8-5.9,9-9.5,13-3.6,4-6.8,8.3-10.2,12.5-.9,1.1-2,2.1-3,3.2-5.9,6.1-12.8,11.2-19.1,16.9-4.8,4.3-10.3,7.7-15.5,11.3-8.2,5.6-16.9,10.5-25.7,15.1-3.1,1.6-6.4,2.9-9.7,4.2-13.8,5.6-28,10.1-42.7,12.9-4.7.9-9.4,1.4-14,2.6-.6.2-1.2.2-1.9.1-4.8-.3-9.5.4-14.7,1.3-84,0-167.5,0-251,0-292.6,0-585.1,0-877.7,0-3.1,0-6.2,0-10,0-1.6,0-2.8.2-3.7-.2-3.4-1.3-7-1.2-10.5-1.1-3,0-5.8-.3-8.6-1.3-1.4-.5-2.8-.9-4.2-1.1-3.3-.5-6.6-.6-9.8-1.4-6-1.5-12-3.2-17.9-5.1-4.7-1.5-9.4-3.1-14.1-4.9-10.3-3.8-20.1-8.7-29.6-14.3-5.7-3.4-11.4-6.7-16.7-10.8-7.2-5.5-14.8-10.6-21.1-17.3-2.7-2.9-5.6-5.6-8.4-8.4-8-8.4-15.5-17.3-22-26.9-5.4-8.1-10.8-16.2-14.9-25.1-3.8-8.3-7.3-16.7-10.6-25.2-3.2-8.4-4.2-17.3-7.2-25.7,0-6.5-3.5-12.4-2.8-19-1.7-4.6-1.1-9.4-1.2-14.2,0-.6.1-1.3,0-1.9-2-6.1-1.1-12.4-1.1-18.6,0-369.9,0-739.9,0-1109.8,0-3.5,0-7,.9-10.5.7-2.7.3-5.8.3-8.7,0-3.3-.4-6.7,1-9.9.2-.5.3-1.2.2-1.8-.6-5.9,1.2-11.5,2.5-18,0-.8,0-1.4,0-1.4.4-.6.8-1.2,1.2-2.1,0-3.5.7-6.4,1.9-9.4,1.9-4.4,3-9,4.6-13.5,3.1-8.8,6.6-17.5,10.9-25.8,3.1-5.9,6.7-11.4,10-17.2,4.2-7.4,9.8-13.9,14.8-20.7,3.4-4.7,7.3-9.1,11.6-13,11.4-10.6,23-21,36.5-28.9,7.1-4.2,14.3-8.4,21.7-12.1,5.5-2.8,11.4-5.1,17.2-7.2,7.2-2.6,14.5-4.9,21.8-7.3,2.4-.7,4.9-1,7.3-1.5,2.4-.5,4.8-1.1,7.3-1.6,1.2-.3,2.4-.8,3.6-.9,7.2-.7,14.4-1.5,21.8-3.3,12.8-.4,25.3-.5,37.8-.5,367.6,0,735.2,0,1102.8,0,4.2,0,8.3,0,13.1.1,3.4,3.1,7.1,2.2,11.7,2.3,2.4,0,3.7.1,5.1.2.6.3,1.1.7,2.1,1M1383.6,528.2c0,.2,0,.4.4,1.4,6.7,6.8,13.5,13.6,20.2,20.5,6.8,6.9,5.6,4.4,5.6,13.5,0,120.8,0,241.6,0,362.5s0,157.1,0,235.6c0,2.1,0,4.2.1,6.2,0,1.5,1.2,2,2.6,3.4.4.4.9,1.1,1.3,1.2,5.2,0,10.3.7,15.5,1.4,4.9.6,10,.5,14.8,1.5,8.5,1.7,16.9,4.1,25.3,6.1,4.6,1.1,9.3,2.2,13.9,3.2.4,0,1-.6,2.4-.9,1.7,0,3.6.3,4.6-3,.2-2.5.6-4.9.6-7.4,0-208.4,0-416.8,0-625.1,0-3.3,0-6.7,0-10-.1-3.7-.7-7.3-2.4-11.7,0-1.7,0-3.5-.4-6-2.1-3.4-3.6-7.2-6.3-10-5.8-6.2-11.4-12.7-17.4-18.7-76.9-77.1-154-154.1-231-231.2-16.3-16.3-32.6-32.8-49.1-49-16.5-16.2-32.3-33-49.5-48.5-15.1-13.7-28.6-29.1-43.9-42.6-5.8-5.1-12.1-8.7-19.4-10.5-2.4-.6-4.9-.9-7.3-1.2-5.6-.7-10.6,1.5-15.8,3.1-5.1,1.6-9.4,4.4-13.1,8.1-5.4,5.5-10.9,10.9-16.3,16.4-5.5,5.4-10.9,10.9-16.4,16.3-5.5,5.4-11,10.8-16.3,16.4-5.2,5.6-11.5,10.2-16.3,16.2-.5.6-1.2,1.1-1.8,1.7-2.1,1.7-4.3,3.3-6.2,5.2-38.3,38.3-76.6,76.5-114.9,114.9-2.9,2.9-5.8,6.1-8,9.5-2.5,4-5.4,7.9-5.8,12.9,0,.8-.4,1.6-.8,2.3-1.4,2.4-1.4,5.1-1.6,7.8-.3,4,.5,7.9,1.6,11.7,2.1,7.7,5.5,14.8,11.8,20.1,1.6,1.3,3.5,2.3,4.9,3.8,1.9,2.1,4.2,2.5,7.1,2.9.2.3.6.6,1.5,1.4,1.5.6,3.1,1.1,5.7,1.7,2.7.4,5.3,1.2,8,1.2,11.3,0,21.2-4.1,29.4-11.7,7.5-6.9,14.4-14.3,21.6-21.5,44.6-44.6,89.3-89.2,133.9-133.9,1.5-1.5,2.9-3,4.4-4.4.9-.8,1.9-1.4,3.2-2.3,2,1.9,3.8,3.6,5.5,5.4,86.9,86.9,173.8,173.8,260.7,260.7,2.9,2.9,6,5.7,8.3,9.3,1.2,1.9,3.3,3.2,5,4.7,1.2,1.1,2.6,2.1,3.8,3.2,4.1,3.5,6.5,8.7,11.3,11.4.2,0,.3.3.4.5,4.3,6.5,10.6,11.1,15.7,16.8,1.4,1.5,3,2.2,5.1,3,0,1.7.8,2.7,2.8,3.3.2.3.6.6,1,1.3M403.1,786.9s.1.3-.4,1c.3.7.5,1.5.9,3.1.8,1.2,1.5,2.5,2.5,3.5,3.2,3.3,6.5,6.5,9.7,9.8,8.3,8.3,17.6,15,28.3,19.9,6,2.8,12.1,5.3,18.6,6.8,6.9,1.6,13.6,3.6,20.8,2.9,1.4-.1,2.8.5,4.3.7,1,.2,2.2.5,3.1.2,4.1-1.5,8.2-.8,12.4-1,1.7,0,3.3-.1,4.9-.5,9.7-2.3,19.1-5,28.3-9.2,6.7-3.1,12.5-7.3,18.7-11.1,6-3.8,10.5-9.4,15.6-14.3,6-5.8,11.1-12.2,15.6-19.3,7.6-11.8,12.8-24.6,16.3-38.2.8-3.2,1.6-6.4,2-9.7.7-5.5,1-11.1,1.5-16.7.4-4.2-.7-8.2-1.3-12.3-.7-5.3-1.5-10.6-2.5-15.9-1.6-8.6-4.2-16.9-7.5-25-2.9-7.3-6.5-14.3-10.3-21.3-6-10.9-13.9-20.1-22-29.3-5.2-5.9-11.3-11-17.8-15.5-.8-.5-1.3-1.5-2.2-2.5,1.5-.9,2.6-1.9,3.9-2.4,8.5-3.2,17-6.5,25.2-10.5,9.3-4.6,18.7-8.9,27.8-14,13.9-7.9,27.7-15.9,40.5-25.6,5.6-4.2,12.1-7.3,16.8-12.8.5-.6,1.4-.9,2-1.4,6.7-5.2,13.3-10.6,19.5-16.4,2.6-2.4,5.4-4.5,8-6.9,1.7-1.5,3.2-3.3,4.7-5,1.1-1.2,2-2.7,3.1-3.9,5.5-5.9,11.7-11.2,16.6-17.8,4.2-5.6,9.1-10.8,13.5-16.2,3.1-3.9,6.6-7.6,8.9-11.9,4.4-8.3,10.3-15.5,14.8-23.8,6.3-11.5,12.1-23.2,17-35.3,3-7.3,5.3-14.8,8-22.2,2.6-7.3,4-14.8,5.7-22.2,1-4.2,1.7-8.5,2.6-12.8,1.3-6.5,2.5-13,2.4-19.7,0-4.1,0-8.2.8-12.4.8-4.4.7-9.2,0-13.7-.5-3.1-1-6.2-.8-9.3.6-7.3-.6-14.6-1.7-21.7-1.5-9.6-3.9-19.1-6.4-28.4-3-10.8-6.9-21.4-12-31.4-5.1-10.1-10.4-20.3-17.6-29.3-5-6.3-9.5-13.1-15.5-18.6-6.6-6-12.4-12.9-19.5-18.3-10.1-7.7-20.9-14.3-32.4-19.6-7.7-3.5-15.2-7.9-23.9-8.6-4.6-2.5-9.8-3.1-14.9-4.1-8.7-1.8-17.4-3.4-26.5-3.2-11.9.3-23.7.2-35.6,0-7.9,0-15.7,1.3-23.4,2.9-1,.2-2,.7-3,.8-7.5.5-14.6,3-21.7,5-9.6,2.7-18.7,6.8-27.7,11-2.6,1.2-5.2,2.6-7.6,4.1-3.5,2.1-6.9,4.5-10.4,6.6-5.9,3.5-11.5,7.5-16.3,12.4-5,5.1-10,10-15,15-1.2,1.2-2.5,2.3-3.4,3.7-4.2,6.2-9,11.9-12.7,18.4-6.1,10.9-11.4,22.1-14.9,34.1-1.9,6.4-3.2,12.9-4.1,19.4-.7,5.7.4,11.6-1.4,17.3.6,7.6,1.1,15.3,1.8,22.9.6,6.2,2.7,12.1,4.3,18.1,2.2,7.8,5.2,15.3,9.1,22.4.5.9,1.4,1.4,2.2,3.1.6,3.6,2.8,6.5,4.9,9.3,6.8,9.4,14.1,18.5,22.4,26.6,7.7,7.5,16.5,13.2,25.8,18.3,7.6,4.2,15.7,7.4,24.3,9.3,7.3,1.6,14.6,3,22.1,3,4.4,0,8.8-.2,13.1,0,4.9.3,9.6-.7,14.1-1.8,8.7-2,17.1-5,25.1-9.1,4.6-2.4,8.9-5.3,13.4-7.9,4.7-2.7,9-6,12.8-9.8,4.3-4.3,8.6-8.5,12.8-12.8,6.7-6.9,12.1-14.8,15-24.1,1.7-5.6,2.5-11.3,1.1-17.2-2.1-8.8-6.5-16.1-13.4-21.9-4.6-3.9-9.7-7.2-15.5-9-11.2-3.4-21.8-1.1-31.7,4.5-5.1,2.9-9.2,7.1-12.6,11.9-4.4,6.2-10.8,9.8-17.8,12-5.5,1.7-11.2,2.1-17.2.5-4.7-1.3-9.1-2.7-13.2-5.3-6.9-4.4-11.5-10.7-15.1-17.8-5.3-10.8-7.1-22-4.2-33.8,1.6-6.3,3.7-12.5,7-17.9,4.9-8,12-14.3,19.1-20.4,5.5-4.6,11.9-7.5,18.3-10.4,3.8-1.7,7.6-3.4,11.5-4.6,5.1-1.5,10.6-1.8,15.7-3.7,1.1-.4,2.5-.2,3.7-.2,1.2,0,2.6.2,3.7-.1,4.9-1.6,9.9-.8,14.9-1.1,8.3-.6,16.5,1.1,24.8,1.4,1.2,0,2.4.6,3.6,1,1.4.4,2.8,1.1,4.2,1.2,5,.4,9.7,2.1,14.3,4,4.4,1.9,9,3.4,13,6,6.5,4.1,12.5,8.9,17.6,14.8,1.5,1.7,2.6,3.8,4.2,5.4,5.6,5.5,8.8,12.6,12.5,19.3,2.6,4.7,4.3,9.8,6.3,14.8.8,2.1,1.2,4.4,1.8,6.6.4,1.4.7,2.8,1.2,4.2,1.5,3.9,2,8,2.5,12.1.2,1.6,0,3.4.5,4.9,1.7,6.1,1.9,12.2,2.1,18.5.3,7.5-1,14.9-1.5,22.3-.2,3.5-.7,7-1.6,10.4-2.4,9.8-4.2,19.8-8.1,29.3-1.2,2.9-2.5,5.7-3.7,8.6-4.1,10.5-9.5,20.3-15.4,29.8-5.1,8-10.2,16.1-16.6,23.3-5.1,5.7-9.7,11.9-15.1,17.3-3.1,3.1-6.2,6.2-9.3,9.3-3.5,3.5-6.9,7.3-10.7,10.5-6.1,5.2-12.4,10.3-18.9,15.2-7.1,5.3-14.3,10.6-21.8,15.4-6.1,3.8-12.3,7.6-18.7,10.9-5.9,3.1-11.6,6.4-17.6,9.3-6,2.9-12.1,5.5-18.2,7.9-8.7,3.5-17.4,6.8-26.1,10.2-7.1,2.9-14.6,4.7-21.9,6.8-6.4,1.8-12.8,3.3-19.3,4.7-7.5,1.7-14.9,3.3-22.5,4.5-2.2.4-4.6.3-6.8.8-5.5,1.2-11,2.2-16.6,1.9-1.6,0-3.4-.2-4.9.3-2.9,1-5.7.8-8.6.9-1.7,0-3.5-.2-5,.3-3.1,1.1-6.2.9-9.3.9-6,0-12.1,0-18.1,0-1.7,0-3.5-.3-5,.3-3.3,1.1-6.6.9-9.9.9-62.1,0-124.1,0-186.2,0-5.7,0-11.1,1.2-16.5,2.7-2.4.7-4.8,1.5-6.9,2.8-5.9,3.3-10.3,8.4-14.7,13.3-1.9,2.1-3.6,4.8-4.3,7.5-1.6,6-3.5,12-2.8,18.3.5,4.6,1.5,9,3.5,13.1,2.3,4.7,5.7,8.6,9.5,12.2,6.6,6.1,14.2,10,24.3,11.3,55.7,0,111.5,0,167.2,0,26,0,52,0,78.7.7,2.5.2,5.1,0,7.4.7,4.1,1.2,8.2.8,12.4,1.1,4.5.3,9.2.4,13.5,1.7,7.8,2.2,15.6,3.8,23.3,6.7,10,3.7,19.3,8.4,28.1,14.4,1.9,1.3,3.8,2.5,5.5,4.1,4.6,4.5,9.6,8.7,13.6,13.8,6,7.7,10.9,16,13.8,25.5,1.7,5.4,2.4,10.9,2.8,16.4.5,7.1-1.2,13.9-3.5,20.6-2.1,6.2-5.6,11.2-10.5,15.1-6,4.8-12.5,9-20.9,8-1.6-.2-3.3,0-5,0-1,0-2.1,0-3.1-.4-7.4-3-14.3-7.1-18.9-13.8-3.8-5.6-7.2-11.6-9.3-18.3-2.2-6.9-4.8-13.6-8.2-20.1-5.2-10-13.9-15.2-24-18.5-7.1-2.3-14.4-2-21.5.1-7.1,2.1-13.2,5.9-17.6,12.1-.6.8-1.2,1.7-1.8,2.5-4.7,5.7-6.6,12.4-7,19.6-.5,9.4.2,18.6,4,27.4,1.8,4.2,3.4,8.5,5.1,12.7,2.9,6.9,7.1,13.2,11.2,19.4.7,1.1,1.8.7,2.9.3,0,0,.2.1-.3,1,.2,1.2.5,2.4.7,3.6.6,3.2,2.7,3.9,6.2,3.7.2.4.3.8,0,1.4,0,.2-.1.3-.2.5.3-.1.6-.3,1.2-.2M1119.8,955.8s0,.5,0,1.7c0,67.1,0,134.1,0,201.2,0,1.7-.1,3.3,0,5,.1,1,.8,1.8,1.3,3.7.6.8,1.1,1.9,1.9,2.3,1.4.8,3.1,1.2,4.7,1.7,5.9,1.8,12,3.3,17.8,5.6,10.8,4.2,21.7,8,32.2,13.1,4.8,2.3,10.1,3.8,15,6.1,9.6,4.5,19.7,7.7,30.1,9.8,8.5,1.8,17,3.5,25.9,3,4.8-.3,9.6,0,14.4,0,1.2,0,2.6.1,3.7-.2,8.4-2.2,17.3-2.1,25.3-5.8,6.3-.4,12-3.1,17.9-5.2,4.5-1.6,9.1-3.1,13.4-5.1,12.5-5.7,25.6-9.7,38.7-13.7,2.4-.7,4.1-1.7,6-4.6.2-2.3.5-4.5.5-6.8,0-104.2,0-208.3,0-312.5,0-6.7-1-13.1-5-19.7-.3-1-.4-2.1-1-2.9-3.1-4.4-6.2-8.8-10-12.7-29.1-29-58.1-58-87.1-87-3.1-3.1-5.9-6.4-9.7-8.7-1.2-.7-2.1-2-3-3.1-1.8-2-3.4-4.2-5.3-6.1-4.8-4.9-9.7-9.7-14.6-14.6-4.9-4.9-9.7-9.7-14.6-14.6-4.9-4.9-9.6-9.8-14.6-14.6-4.9-4.7-9.8-9.5-14.5-14.5-3.9-4.1-7.9-8-11.9-12-34.2-34.2-68.4-68.3-102.5-102.6-3.5-3.5-7.5-6-11.8-8-8.8-4.1-17.9-2.9-26.7,0-4.9,1.6-9.3,4.6-13,8.2-5,4.7-9.7,9.7-14.7,14.5-5.1,4.9-10.5,9.4-15.5,14.4-82.8,82.7-165.6,165.5-248.4,248.3-3.8,3.8-7.5,7.7-10.2,12.5-3,5.4-5,10.6-5,17,.2,93.7.1,187.5.1,281.2,0,1.2,0,2.5,0,3.7,0,2.7.8,5,2.6,6.8,4.3,4.2,8.2,8.8,13.1,12.4,8,5.9,16,11.8,24.6,16.9,11.3,6.7,23.1,12.3,35.2,17.4,6.9,2.9,14,5.2,21,7.8,2.3.9,4.6,1.8,7,2.4,7,1.8,14,3.9,21,5.6,5.7,1.4,11.4,2,17.1,3.1,4.7.9,9.4,1.9,14.1,2,10,.3,19.9,0,29.9,0,.4,0,.8-.3,1.2-.4,3.5-.6,6.9-1.2,10.4-1.6,5.8-.6,11.6-.8,17-3.3.7-.3,1.6-.3,2.4-.5,2.6-.7,5.2-1.4,7.7-2.2,2.2-.7,4.2-2,6.4-2.4,5.7-1,10.4-4.2,15.1-7.2,1.2-.8,1.9-2.1,2.9-4.4,0-2.3,0-4.6,0-6.9,0-72,0-144.1-.1-216.1,0-5.4,1.7-9.8,4.3-14,1.6-2.7,3.9-5,6.9-6.1,4.7-1.7,9.3-3.3,14.5-3.3,29.6.2,59.1,0,88.7,0,1,0,2.1-.1,3.1,0,7.7,1.1,15.3,2.4,20,9.7.5.7,1.6,1,2.5,2.4,0,1.2.1,2.3,1.3,3.5M839,1248.5c-1.8-2-4.5-2.3-7.6-3.7-1.9-.9-3.6-2-5.6-2.8-5.8-2.3-11.5-4.6-17.4-6.7-4.3-1.5-8.7-2.8-13-4-8-2.2-16-4.1-24.2-5.3-5.9-.9-11.7-2.5-17.8-2.2-1,0-2.1,0-3.1-.4-3.2-1.2-6.6-.8-9.9-.7-5,.2-8.6,3.5-9.4,8.4-.9,5.9-1.5,11.9-1.3,18,.3,8.9-.4,17.8,1.2,26.7,1,5.1,3.3,8.3,8.4,9.4,4.8,1,9.7,1.9,14.7,2.3,6.2.5,12.2,1.6,18.2,3.5,6.8,2.1,13.4,4.4,19.9,7.2,7.6,3.3,15.1,6.8,22.7,10.1,3.2,1.4,6.7,2.3,9.8,3.9,8.2,4.2,17,6.5,25.7,9.2,6.1,1.8,12.2,3.8,18.6,4.6,2.3.3,4.5.5,6.7,1,5.7,1.4,11.4,2.3,17.2,2,1.7-.1,3.3-.1,5,0,3.5.3,7,1.1,10.5,1.1s7-1,10.5-1.1c5.2,0,10.4-.3,15.4-1.5,1.8-.4,3.6-.8,5.5-1.2,7.9-1.5,15.7-3.4,23.4-5.9,11.2-3.6,22.2-7.8,32.8-13.2,6.8-3.5,13.9-6.5,20.8-9.9,11.9-5.9,24-11.5,36.9-14.9,4.6-1.2,9.2-2.6,14-2.3,1.4,0,2.9-.3,4.3-.4,2-.2,4.1-.7,6.1-.7,6.2,0,12.5-.6,18.6,1.2,9.3-.1,18,2.8,26.6,5.7,11.8,4,22.6,10.1,33.7,15.8,5.9,3,11.8,5.9,17.8,8.7,4.3,2,9,3.3,13.2,5.5,4.8,2.5,10.1,3.7,15.1,5.5,5.8,2.1,12,3.2,18,4.6,2.4.6,4.9.7,7.3,1.2,5.5,1.2,10.9,2.1,16.6,2,7.5-.2,15,0,22.5,0,4.6,0,9.1.3,13.6-1.2,2-.6,4-1.1,6.1-1.2,7.5-.6,14.7-2.4,21.8-4.7,12-3.9,24.1-7.8,35.3-13.8,2.9-1.5,5.9-2.9,9-4.2,4.2-1.8,8.4-3.4,12.5-5.5,8.6-4.3,17.7-7.2,26.8-10.1,2.1-.7,4.8-.2,6.7-1.2,3.7-2,7.6-1.9,11.5-1.9,1,0,2.2,0,3.1-.3,2.6-1.1,5.3-1,8-.9,6.2.4,12.4.9,18.6,1.3.4,0,.8.2,1.2.3,3.6.9,7.2,1.8,10.8,2.8,6.2,1.7,12.2,3.9,18.1,6.6,4.3,1.9,8.7,2.6,13.8.2.5-.4,1.1-.8,1.8-1.8,0,0,0-.6.9-.7,1.2-.3,1.5-1.3,2.7-2.6.4-.7,1.2-1.3,1.3-2,.2-1.6,0-3.3.2-5,.3-6.8-.8-13.7,1.2-20.5.2-.8,0-1.7,0-2.5,0-5-.2-10,0-15,.2-4.7-1.8-8-5.4-10.6-2.2-1.6-4.6-2.9-6.9-4.2-5.9-3.3-12.5-4.5-18.9-6.3-4.8-1.3-9.8-1.6-14.6-2.8-2.9-.7-5.7-1.1-8.6-1.1-2.1,0-4.2.3-6.2,0-5.8-1-11.4-.9-17.2-.1-5.7.7-11.6.3-17.3,1.4-4.4.9-8.9,1.7-13.4,2.2-5.2.6-10,2.6-15,3.9-4,1-8,2.1-11.8,3.6-8.3,3.2-16.6,6.3-24.7,10.1-6.9,3.3-14.1,5.9-21.1,9-9.3,4.2-18.9,7.4-28.8,9.9-2.2.6-4.5.9-6.7,1.2-2.2.4-4.5.6-6.7,1-5.5,1-11.1,2.1-16.7,1.4-3.9-.4-7.8-.9-11.7-1.4-8.3-1.3-16.7-2.8-24.8-5.5-12.8-4.3-24.8-10.3-36.9-16.2-6.9-3.3-13.6-7.1-20.6-10.1-9.2-3.9-18.6-7.1-27.9-10.6-1.7-.6-3.6-.8-5.4-1.2-1.4-.3-2.9-.5-4.2-.9-5.8-1.7-11.6-3.1-17.7-2.9-1.2,0-2.5-.3-3.7-.4-2-.3-4.1-.7-6.1-.8-7.9,0-15.8,0-23.7,0-1.7,0-3.3.2-5,.4-2.3.2-4.5.6-6.8.8-1.4.2-2.9,0-4.3.4-5.7,1.3-11.4,2.4-16.9,4-5.8,1.6-11.4,3.6-17.1,5.7-9.4,3.3-18.5,7.2-27.5,11.5-6.7,3.2-13.4,6.4-20.2,9.5-3.8,1.7-7.5,3.5-11.4,5-9.1,3.6-18,7.5-27.7,9.1-3.3.5-6.4,1.5-9.7,1.9-5.3.7-10.6,2-16.1,1.6-3.1-.2-6.2,0-9.4,0-1.4,0-2.9-.2-4.3-.4-5.5-1-10.9-2.4-16.4-3.2-8.1-1.1-15.7-3.9-23.3-6.6-4.1-1.4-8.1-3.1-12.8-4.8-.2,0-.4,0-1.4-.4M155.9,508.9c81.1,0,162.3,0,243.4,0,39.7,0,79.5,0,120.2,0,1.6-.4,3.2-.7,4.8-1.3,6.2-2.2,11.7-5.5,16.2-10.2,6.5-6.6,9.9-14.7,10.4-24,.2-4.5-.3-9-1-13.6-1.7-11.2-8.1-19.3-16.4-26.3-.6-.5-1.4-.9-2.2-1.2-4.9-1.8-9.6-3.4-15-3.4-119.7,0-239.4,0-359.1,0-3.6,0-7.1.4-10.4,1.4-7.8,2.3-14.2,6.3-18.9,13.3-5,7.4-6.3,15.7-6.8,24.2-.4,7.1,1.2,13.9,4.3,20.4,5.9,12.5,15.3,19.8,30.4,20.8M622.6,1461.1c3.9.7,5.6-2.2,7.2-4.9,2.7-4.5,3.8-9.5,3.8-14.9,0-107.5,0-215,0-322.5,0-5.7-.5-11.2-1.5-16.7-.8-4-2.1-8.1-4.2-11.6-2.8-4.8-6.1-9.4-10.3-13.2-5.5-5.1-11.2-10-16.4-15.2-30.1-30-60.1-60.1-90.2-90.1-2.8-2.8-5.4-5.7-8.8-7.9-1.9-1.2-3.2-3.3-4.7-4.9-2.5-2.7-4.7-5.9-7.7-8.1-3-2.3-5.7-4.8-8.3-7.5-17.7-17.7-35.4-35.3-53-53-3.4-3.4-7.1-6.4-11-9.1-6.1-4.2-12.6-7.1-20.3-6.4-1.9.2-3.7,0-5.6,0-2.5,0-4.8.7-7.2,1.4-6.4,2-11.6,5.8-16.3,10.1-7.1,6.7-14.5,13.1-20.4,21.1-1.7,2.3-4.2,4-6.3,6-1.1,1-2.3,1.7-3.3,2.8-2.4,2.6-4.5,5.4-7,7.9-51.7,51.7-103.4,103.4-155.1,155.2-2.9,2.9-5.7,6.1-8,9.5-2.2,3.5-4.3,7.3-5.4,11.2-1.1,4.1-1.6,8.5-1.6,12.9,0,110.2,0,220.4,0,330.6,0,.8,0,1.7,0,2.5-.2,9.9,7.1,17.3,15.3,19.8,3.4,1,6.8,1.6,10.4,1.5,6.2-.2,12.5,0,18.7,0,31.5,0,62.9,0,94.4,0,4.2,0,7.9-.9,11.1-3.4,3.4-2.7,6.6-5.7,7.7-10.3.4-1.8,1.5-3.4,2.3-5.1,2.4-5,5-10,7.3-15.1,5.2-11.1,10.3-22.2,15.6-33.2,2.4-5.1,5-10,7.5-15,4.1-8.4,8-16.9,12.1-25.3,1-2.1,2.1-4.1,3-6.2,1.3-3.2,1.7-6.8,0-9.7-2.3-4.2-5.8-7.9-10.7-9-6.2-1.4-12.5-3.2-19-2.8-3.3.2-6.7,0-10,0-4.4.2-8.7-.3-13.3-2.2-.7-1.5-2.1-3.2-2.4-5.2-.4-2.8-.6-6,.1-8.7,1.5-5.6,3-11.2,3.9-16.9.9-5.5,2.7-10.8,4.1-16.2,1.9-7.4,3.7-14.9,5.5-22.3,2.1-9.1,4.1-18.2,6.3-27.2,1.8-7.4,3.7-14.8,5.5-22.2,1.4-5.8,3.1-11.6,4.1-17.5.7-3.9,1.9-7.6,3-11.4.6-2.1,1.9-3.6,3.8-4.7,3.3-1.9,6.9-2.8,10.6-2.8,30.6,0,61.2,0,91.9,0,2,0,4.1.5,6.1,1.1,5.2,1.7,7.5,6.4,5.6,11.3-.9,2.5-2,5-3.1,7.5-4.4,10.1-8.8,20.2-13.2,30.3-4.9,11.4-9.8,22.9-14.7,34.4-1.3,3.1-2.3,6.2-3.6,9.3-1.7,4.2-1.4,8.1,1.4,11.7.4.5.8,1,1.1,1.5,2.7,4.5,6.9,6.5,12,6.6,7.3,0,14.4,2,21.7,1.3.6,0,1.3,0,1.8.3,2.6,1.2,5.3.9,8,.9,1.9,0,3.8-.1,5.6.1,4.9.6,7.3,3.5,7.3,8.3,0,2.4-.6,4.6-2,6.4-3.1,4.1-6.2,8.3-9.6,12.2-4.9,5.7-9.1,11.8-14.2,17.3-4.3,4.7-7.8,10.2-11.9,15.1-6.1,7.1-11.4,14.8-17.6,21.8-6.6,7.4-12.4,15.5-18.6,23.3-5.9,7.3-11.8,14.4-17.8,21.6-4.1,5-8.3,9.8-12.2,14.9-3.8,4.9-7.5,10-11.9,14.3-.9.9-1.5,2-2.1,3.1-3.6,5.6-2.7,11.4,2.4,15.3.8.6,1.8.9,2.7,1.4,2.9,1.4,6.1,1.2,9.2,1.2,74,0,147.9,0,221.9,0,1.5,0,2.9.1,4.4,0,4.4-.4,8.5-2,12.4-3.9,1.2-.6.9-1.7.6-2.6,0,0,0-.2,1,0M1363.2,1349.1c-5.3,1.8-10.6,3.4-15.8,5.4-6.4,2.5-12.6,5.3-18.9,8.1-8.3,3.8-16.5,7.7-25,10.9-5.6,2.1-11.4,3.8-17.1,5.7-3.1,1.1-6.4,1.5-9.7,2-4.1.7-8.3.8-12.3,1.7-6.8,1.6-13.8,1.4-20.5.5-8.7-1.3-17.5-2.6-26-5.6-6.1-2.1-12.2-4.1-18.1-6.6-7.6-3.2-15-7-22.4-10.6-8.4-4.1-16.5-8.6-25.3-11.8-6-2.2-12-4.7-18.2-6.5-5-1.5-9.7-3.6-14.9-4-.6,0-1.2-.4-1.8-.6-5.4-1.5-10.8-2.9-16.5-2.7-1,0-2.2.2-3.1-.2-3.6-1.4-7.4-1-11.1-1-5.6,0-11.2,0-16.9,0-1.7,0-3.5-.2-5,.3-2.9,1-5.7.8-8.6.9-1.6,0-3.3.3-4.9.6-8.5,1.8-16.9,4-25.2,6.5-8.8,2.6-17.1,6.2-25.5,9.7-9.7,4.1-19,9.2-28.4,13.9-4.5,2.2-8.8,4.8-13.4,6.4-8.4,2.9-16.4,7.1-25.3,8.5-1.8.3-3.8.3-5.5,1-4.8,2.1-9.7,2-14.7,2-5.6,0-11.2,0-16.9,0-4.1,0-8.2-.2-12.4-1.1-13.3-2.6-26.1-6.6-38.4-12.3-7.2-3.3-14.5-6.2-21.8-9.2-8.3-3.4-16.6-6.6-25.2-8.9-5.4-1.4-10.8-3.1-16.1-4.6-.6-.2-1.2-.1-1.9-.2-6.1-.9-12.3-1.7-18.4-2.6-2.2-.3-4.5-1-6.7-1.1-5.4-.2-10.8-.1-16.2,0-4.1,0-6.2,1.4-7.4,5.3-1,3.3-1.9,6.7-1.9,10.4.1,9,.1,17.9,0,26.9,0,4,.9,7.7,2,11.6,1.4,4.9,4.8,7.3,9.3,8.1,4.9.8,9.9,1.3,14.8,1.5,4.8.2,9.4,1.2,14.1,2.1,2.8.6,5.5,1.8,8.3,2.7,2.2.7,4.4,1.2,6.5,2.1,7.1,2.9,14.2,5.8,21.2,8.8,3.6,1.5,7.4,2.8,10.8,4.9,3.9,2.4,8.3,3.9,12.4,5.5,5.2,2,10.4,4,15.7,5.7,7.5,2.3,15,4.7,22.6,6.5,2.6.6,5.3.8,7.9,1.5,4.5,1.1,8.9,2,13.5,1.7,1.6-.1,3.4-.2,4.9.3,2.7.9,5.3.9,8,.9,3.7,0,7.5,0,11.2,0,1.7,0,3.3-.3,4.9-.4,2.3-.2,4.5-.8,6.8-.7,4.4.2,8.7-.6,12.9-1.6,1.4-.3,2.8-.8,4.2-.9,7.5-.9,14.5-3.5,21.6-5.8,11.8-3.9,23.1-9.2,34.2-14.7,8.7-4.3,17.3-8.9,26.1-12.8,7.4-3.3,14.7-6.5,22.5-8.8,10.9-3.1,21.9-4.7,33.2-4.2,3.3.1,6.7.2,10,0,10.2-.5,19.7,2.6,29.2,5.3,4.9,1.4,9.7,3.7,14.4,5.7,7.2,3.2,14.6,6.1,21.5,9.8,10.2,5.5,20.5,10.9,31.5,14.9,5.3,1.9,10.5,3.9,15.8,5.6,5.3,1.7,10.4,3.8,16,4.5,3.3.4,6.6.8,9.8,1.7,3.3,1,6.5,1,9.9,1.1,5,.2,10-.8,14.9,1,.6.2,1.3.2,1.8,0,5.3-1.9,10.7-1,16.1-1,3.8,0,7.4-.5,11.1-1.3,4-.9,8.1-1.9,12.2-2.4,6.4-.8,12.6-2.6,18.6-4.7,11.1-3.9,22.2-8,32.7-13.5,7.5-3.9,15.4-7.1,23.2-10.5,4-1.8,8-3.3,12-5.1,5.9-2.7,12.3-3.7,18.4-5.6,3.7-1.1,7.7-1.9,11.6-1.9,10.8,0,21.7-1.2,32.3,1.2,5.2,1.2,10.4,2.6,15.6,4.3,2.7.9,5.2,2.5,7.9,3.7,2.2,1,3.5.7,5-1.1.8-1,1.3-2.1,2-3.1,3.7-5.8,6.5-12,9.3-18.3,3.4-7.6,5.7-15.6,8.3-23.5,2.2-6.7-.7-13.5-7.4-16.6-2.6-1.2-5.3-2.5-8-3.4-6.3-1.9-12.5-4.2-19.1-5.3-8.8-1.5-17.5-3.4-26.5-3-8.9.3-17.9-.9-26.7,1.2-3.8-.4-7.4,1-11,1.6-1,.2-2,.7-3,.8-8.5,1-16.5,3.6-25.5,6.6Z"/>
  <path class="st14" d="M24.6,186.5c.2,0,.2.5.2.8-.2,0-.5-.1-.6-.4,0,0,.1-.2.5-.5Z"/>
  <path class="st3" d="M1387.5,23.7c-1.5.2-2.9.2-4.7.1,1.2-1.6,3-1.9,4.7-.1Z"/>
  <path class="st12" d="M402.6,786.3c-.2-.4-.3-.8-.9-1.7-2.3-2.9-4.1-5.3-5.9-7.7,0,0-.2-.1-.3-.6-3.6-6.7-7-12.8-10.3-19.1-3.6-6.8-6.4-14-8.1-21.5-1.6-7.2-2.3-14.7-.9-22.3,2-11.1,7.2-19.7,17.2-25.2,4.3-2.4,8.9-3.4,13.7-3.8,7-.6,13.6.7,19.9,3.9,9.5,4.8,15.1,12.8,18.7,22.4,2,5.2,3.5,10.7,5.6,15.8,4,9.5,9.6,18.1,18.1,24.1,10.9,7.8,22.6,9,34.6,2.6,13.6-7.3,20.3-19.4,22.2-34.2,1.4-11.3-.4-22.3-4.9-32.9-6.9-16-17.9-28.4-31.8-38.5-4.3-3.2-8.8-6.3-14.1-8.4-.7-.5-1.2-.7-2.2-1.2-3.9-1.6-7-4-11.1-4.6-.8-.5-1.5-.7-2.5-1-1.1-.3-1.9-.4-2.8-.8-.7-.4-1.3-.6-2.3-.9-2-.6-3.5-1-5.3-1.6-.7-.3-1.2-.3-2.1-.5-1.5-.3-2.7-.5-4-.9-.8-.3-1.4-.4-2.4-.7-2.3-.4-4.1-.6-6-1-.8-.3-1.4-.3-2.5-.6-4.8-.6-9.1-1-13.8-1.7-2.1-.3-3.8-.3-6.1-.5-3.6-.1-6.7,0-10.3-.2-2.4-.2-4.3-.2-6.2-.2-60.5,0-121,0-181.5,0-19.3,0-38.7,0-57.9-.2,0,0,0-.2-.2-.5-.9-.4-1.6-.5-2.7-.8-8.3-2.1-15.1-5.9-20.7-11.8-4.5-4.8-7.9-10.4-8.9-16.8-1.1-6.8-.8-13.6,1.6-20.3,4.6-12.8,17.4-24.1,31.6-24.6,3.7-.1,7.5-.5,11.2-.5,24.6-.3,49.2-.5,73.7-.6,36.4-.2,72.9-.3,109.4-.5,14.8,0,29.6.2,44.3-1.7,1.2-.2,2.5,0,3.7-.2,8.5-.7,17.1-1,25.5-2.3,9.2-1.5,18.5-2.8,27.6-4.8,10.3-2.3,20.6-4.8,30.8-7.6,20.2-5.7,39.6-13.4,58.6-22.5,27.2-12.9,52.4-28.9,75.4-48.3,17.9-15.1,34-31.9,47.9-50.8,11.1-15.1,20.4-31.3,27.4-48.7,4.3-10.8,7.7-21.9,10-33.3,2.2-10.6,3-21.4,2.9-32.3,0-6.7-.2-13.4-1.1-19.9-1.1-7.8-2.6-15.5-4.9-23.1-3.6-11.8-8.5-22.9-15.2-33.2-6-9.1-13.3-17.1-21.8-23.9-9.5-7.6-20.5-12.5-32.4-15.3-9.8-2.3-19.6-3.8-29.6-3.7-3.3,0-6.7,0-10,0-14.1,0-27.6,2.6-40.8,7.3-15,5.4-27.8,13.9-38.4,25.8-7.6,8.7-12.5,18.7-14.4,29.9-1.3,8-1.1,16.1,1.3,24.1,3.2,11,9.3,19.8,18.3,26.8,5.3,4.2,11.5,7,18.1,7.8,14.5,1.7,26.7-3.3,35.5-15.1,3.7-5,8.2-8.8,13.7-11.5,6.2-3.1,12.9-5,19.9-4.3,9.4.9,17.6,4.9,24.3,11.5,10.4,10.1,12,22.3,8.2,35.6-2.5,8.9-8.3,15.7-14.2,22.4-5.9,6.7-12.6,12.7-19.8,18-17.5,13-37,20.4-58.8,21.4-11.5.5-22.9-.8-34-3.7-24.4-6.5-43.6-20.9-59.2-40.4-4.9-6.1-9.1-12.9-13.7-19.8-2.5-5.5-5.1-10.5-7.2-15.6-2.6-6.3-4.4-12.9-6-19.6-1.3-5.7-2.5-11.4-2.9-17.2-1.1-12.5-.6-25,1.8-37.3,1.7-8.5,4-16.9,7.2-25.1,11.4-29,30.4-51.8,56-69.2,12.6-8.6,26.2-15,40.7-19.8,13.9-4.6,27.9-7.8,42.5-9.1,1.2-.1,2.5-.4,3.7-.5,4.1-.4,8.3-1,12.4-1.1,13.9,0,27.9-.9,41.8,1.6,5.5,1,11.1,1.4,16.6,2.6,7.7,1.8,15.2,4,22.7,6.7,17.9,6.6,34.4,15.8,48.9,28.1,25.1,21.3,42.8,47.9,54,78.9,4.3,11.9,7.6,24.1,9.6,36.6,1.9,11.3,3.4,22.6,3.4,34.1,0,6.2,0,12.5,0,18.7,0,2.9,0,5.8-.4,8.7-.9,7-2.2,14-3,21-.8,7.5-2.8,14.7-4.6,21.9-2.7,10.6-6.4,21-10.4,31.2-13.2,33.5-32.3,63.2-55.9,90.2-13.3,15.2-27.8,29.3-43.4,42.2-14.5,12-29.6,22.9-45.5,32.8-24.2,15-49.7,27.5-76.4,37.6-1,.4-1.9.8-2.8,1.3-.8.4-2.2.2-2.2,1.8,4.2,3.2,8.7,6.3,12.7,9.8,15.4,13.4,28,29,37,47.4,7.9,16.2,13,33.1,15.3,51,1.5,11.4,1,22.5-.7,33.6-1.3,8.6-3.9,16.9-7.3,25-8.6,20.4-21.7,37.3-39.3,50.7-11.7,9-24.9,15-39.1,18.6-5,1.3-10.2,1.9-15.4,2.4-4.8.4-9.6,0-14.4.2-9.1.2-17.8-1.9-26.3-4.4-16.7-4.9-31-13.9-43.1-26.3-4.1-4.2-8-8.4-12.1-12.8-.2-.3-.3-.5-.5-.5,0,0-.1-.3-.3-.5-.2-.2-.4-.3-.4-.3Z"/>
  <path class="st11" d="M621.5,1460.9c.5,1,.7,2.2-.4,2.7-3.9,1.9-8,3.5-12.4,3.9-1.4.1-2.9,0-4.4,0-74,0-147.9,0-221.9,0-3.1,0-6.3.3-9.2-1.2-.9-.5-1.9-.8-2.7-1.4-5.1-3.9-6-9.7-2.4-15.3.7-1,1.3-2.2,2.1-3.1,4.5-4.4,8.1-9.4,11.9-14.3,3.9-5.1,8.1-9.9,12.2-14.9,5.9-7.2,11.9-14.3,17.8-21.6,6.2-7.7,12-15.9,18.6-23.3,6.2-7,11.5-14.7,17.6-21.8,4.2-4.9,7.6-10.4,11.9-15.1,5.1-5.5,9.4-11.6,14.2-17.3,3.4-3.9,6.5-8.1,9.6-12.2,1.4-1.9,2-4,2-6.4,0-4.8-2.5-7.8-7.3-8.3-1.9-.2-3.7,0-5.6-.1-2.7,0-5.4.2-8-.9-.5-.2-1.2-.3-1.8-.3-7.3.7-14.5-1.2-21.7-1.3-5.1,0-9.3-2.1-12-6.6-.3-.5-.7-1-1.1-1.5-2.8-3.6-3.1-7.5-1.4-11.7,1.3-3.1,2.3-6.2,3.6-9.3,4.9-11.5,9.7-22.9,14.7-34.4,4.4-10.1,8.8-20.2,13.2-30.3,1.1-2.5,2.1-5,3.1-7.5,1.8-4.9-.5-9.7-5.6-11.3-1.9-.6-4-1.1-6.1-1.1-30.6,0-61.2,0-91.9,0-3.8,0-7.3.9-10.6,2.8-1.9,1.1-3.2,2.7-3.8,4.7-1.1,3.8-2.4,7.5-3,11.4-1,5.9-2.7,11.7-4.1,17.5-1.8,7.4-3.7,14.8-5.5,22.2-2.1,9.1-4.1,18.2-6.3,27.2-1.8,7.5-3.6,14.9-5.5,22.3-1.4,5.4-3.2,10.8-4.1,16.2-.9,5.8-2.4,11.3-3.9,16.9-.7,2.7-.5,5.8-.1,8.7.3,1.9,1.7,3.7,2.4,5.2,4.6,1.9,8.8,2.4,13.3,2.2,3.3-.1,6.7.2,10,0,6.6-.5,12.8,1.3,19,2.8,4.9,1.1,8.4,4.8,10.7,9,1.6,2.9,1.2,6.5,0,9.7-.9,2.1-2,4.1-3,6.2-4,8.4-8,16.9-12.1,25.3-2.4,5-5.1,10-7.5,15-5.2,11.1-10.4,22.2-15.6,33.2-2.4,5.1-4.9,10.1-7.3,15.1-.8,1.7-1.9,3.3-2.3,5.1-1.1,4.6-4.3,7.6-7.7,10.3-3.1,2.5-6.9,3.4-11.1,3.4-31.5-.1-62.9,0-94.4,0-6.2,0-12.5-.2-18.7,0-3.6.1-7.1-.5-10.4-1.5-8.2-2.4-15.5-9.9-15.3-19.8,0-.8,0-1.7,0-2.5,0-110.2,0-220.4,0-330.6,0-4.4.5-8.8,1.6-12.9,1-3.9,3.1-7.7,5.4-11.2,2.2-3.4,5-6.6,8-9.5,51.7-51.7,103.4-103.4,155.1-155.2,2.5-2.5,4.6-5.3,7-7.9,1-1.1,2.2-1.8,3.3-2.8,2.1-2,4.6-3.7,6.3-6,5.8-7.9,13.2-14.4,20.4-21.1,4.6-4.3,9.9-8.2,16.3-10.1,2.4-.7,4.7-1.5,7.2-1.4,1.9,0,3.8.2,5.6,0,7.7-.7,14.3,2.1,20.3,6.4,3.9,2.7,7.6,5.7,11,9.1,17.6,17.8,35.3,35.4,53,53,2.6,2.6,5.3,5.2,8.3,7.5,2.9,2.2,5.1,5.4,7.7,8.1,1.5,1.7,2.9,3.7,4.7,4.9,3.4,2.2,6,5.1,8.8,7.9,30.1,30,60.1,60.1,90.2,90.1,5.3,5.3,10.9,10.2,16.4,15.2,4.2,3.8,7.5,8.4,10.3,13.2,2,3.5,3.4,7.6,4.2,11.6,1,5.5,1.5,11,1.5,16.7-.1,107.5-.1,215,0,322.5,0,5.4-1.1,10.3-3.8,14.9-1.6,2.6-3.3,5.5-7.5,4.4,5.3-4.7,7.9-10.3,7.6-17.3-.1-3.3,0-6.7,0-10,0-104.6,0-209.2,0-313.7,0-4.2-.4-8.3-.6-12.5-.4-6.8-2.6-13-6.4-18.6-2.3-3.4-4.9-6.7-7.9-9.6-5.6-5.5-11.8-10.5-17.4-16.1-19.4-19.2-38.7-38.4-58.1-57.7-35.2-34.9-70.3-69.9-105.5-104.8-4.9-4.8-9.9-9.5-15-14.1-4.6-4.1-10.2-6.7-16.1-7.7-12.1-2-23.1.7-32.1,9.7-14.9,14.9-29.8,29.7-44.6,44.6-48.6,48.6-97.1,97.3-145.7,145.9-1.9,1.9-3.9,3.8-5.6,5.9-6.7,8.1-11.2,17-10.6,27.8.2,3.1,0,6.2,0,9.4,0,107.1,0,214.2,0,321.2,0,2.1-.1,4.2.1,6.2,1.1,7.9,5.7,12.4,12.5,13.7,2.6.5,5.4.6,8.1.6,38.3,0,76.7,0,115,0,2.1,0,4.2-.2,6.2-.5,3.1-.4,5.4-1.9,6.9-4.8.8-1.7,1.8-3.3,2.6-5,15.4-32.2,30.7-64.5,46-96.7.9-1.9,1.7-3.8,2.1-5.8.9-4-.5-7.4-3.8-9.9-2.4-1.7-5-2.9-8-3.2-5.2-.5-10.3-1-15.5-1.4-5-.3-10-.4-15-.5-3.4,0-6.6-.9-9.3-3-4.2-3.3-5.2-7.9-4.3-12.9.6-3.5,1.7-6.8,2.5-10.3,2.1-9.5,4-19.1,6.2-28.6,2.8-11.9,5.9-23.7,8.7-35.6,2.2-9.1,4.1-18.2,6.2-27.3,2.4-10.3,4.9-20.6,7.3-30.9,1.6-6.7,4.9-12,11.8-14.1,2.3-.7,4.9-.8,7.4-.8,29.8,0,59.6,0,89.4,0,1.7,0,3.3.1,5,0,2.4-.2,4.5.7,6.6,1.7,4.5,2.3,8.3,7.2,6,13.4-1,2.7-2.1,5.4-3.2,8.1-9.8,23.1-19.7,46.2-29.5,69.3-1,2.3-1.9,4.7-2.3,7.1-1,5.9,2.4,11.1,8,13.2,2.6,1,5.2,1.5,7.9,1.5,11,0,22.1.4,33,2,10,1.5,13.2,9.9,9,17.3-.7,1.3-1.5,2.5-2.4,3.6-3.4,4.2-6.8,8.4-10.2,12.6-6,7.4-12.1,14.8-18.1,22.3-7.1,8.7-14.1,17.5-21.1,26.3-6,7.4-12.1,14.8-18.1,22.3-6.9,8.6-13.7,17.3-20.7,25.8-8.1,10-16.4,19.9-24.6,29.9-.9,1.1-1.9,2.3-2.6,3.5-3,5-.6,10.3,5.3,11.1,2,.3,4.2.2,6.2.2,74.2,0,148.3,0,222.5,0,4.6,0,9.1-.5,14.1-.8.9-.4,1.4-.8,2.2-1.4.3-.2.8-.4.8-.4h.6Z"/>
  <path class="st7" d="M1363.6,1349c8.5-2.9,16.6-5.5,25.1-6.5,1-.1,2-.6,3-.8,3.7-.7,7.2-2.1,11-1.6,8.8-2.2,17.8-.9,26.7-1.2,9-.3,17.7,1.6,26.5,3,6.6,1.1,12.8,3.4,19.1,5.3,2.8.8,5.4,2.1,8,3.4,6.7,3.1,9.6,9.9,7.4,16.6-2.6,7.9-4.9,15.9-8.3,23.5-2.8,6.3-5.6,12.5-9.3,18.3-.7,1.1-1.2,2.2-2,3.1-1.5,1.8-2.7,2.1-5,1.1-2.6-1.2-5.1-2.8-7.9-3.7-5.1-1.7-10.3-3.1-15.6-4.3-10.7-2.4-21.5-1.1-32.3-1.2-3.9,0-7.9.7-11.6,1.9-6.1,1.9-12.5,2.8-18.4,5.6-3.9,1.8-8,3.4-12,5.1-7.8,3.4-15.7,6.6-23.2,10.5-10.5,5.5-21.6,9.5-32.7,13.5-6,2.1-12.2,3.9-18.6,4.7-4.1.5-8.1,1.4-12.2,2.4-3.7.9-7.3,1.3-11.1,1.3-5.4,0-10.8-.9-16.1,1-.5.2-1.3.2-1.8,0-4.9-1.8-9.9-.8-14.9-1-3.3-.1-6.6-.2-9.9-1.1-3.2-.9-6.5-1.3-9.8-1.7-5.5-.8-10.7-2.9-16-4.5-5.3-1.7-10.5-3.7-15.8-5.6-11-3.9-21.2-9.3-31.5-14.9-6.9-3.7-14.3-6.7-21.5-9.8-4.7-2.1-9.5-4.3-14.4-5.7-9.5-2.8-19.1-5.8-29.2-5.3-3.3.2-6.7.1-10,0-11.3-.5-22.3,1.1-33.2,4.2-7.8,2.2-15.2,5.5-22.5,8.8-8.9,3.9-17.4,8.6-26.1,12.8-11.1,5.5-22.4,10.8-34.2,14.7-7.1,2.3-14.1,4.9-21.6,5.8-1.4.2-2.8.6-4.2.9-4.2,1-8.5,1.8-12.9,1.6-2.2,0-4.5.5-6.8.7-1.6.2-3.3.4-4.9.4-3.7,0-7.5,0-11.2,0-2.7,0-5.4,0-8-.9-1.5-.5-3.3-.4-4.9-.3-4.6.3-9.1-.6-13.5-1.7-2.6-.6-5.3-.8-7.9-1.5-7.6-1.8-15.1-4.2-22.6-6.5-5.4-1.6-10.6-3.6-15.7-5.7-4.2-1.6-8.5-3.1-12.4-5.5-3.3-2.1-7.1-3.4-10.8-4.9-7.1-3-14.1-5.9-21.2-8.8-2.1-.8-4.3-1.4-6.5-2.1-2.8-.9-5.4-2.1-8.3-2.7-4.6-1-9.3-1.9-14.1-2.1-5-.2-9.9-.6-14.8-1.5-4.5-.8-7.9-3.1-9.3-8.1-1.1-3.8-2-7.6-2-11.6.1-9,.1-17.9,0-26.9,0-3.6.9-7,1.9-10.4,1.2-3.9,3.3-5.2,7.4-5.3,5.4,0,10.8-.1,16.2,0,2.2,0,4.5.8,6.7,1.1,6.1.9,12.3,1.7,18.4,2.6.6,0,1.3,0,1.9.2,5.4,1.5,10.7,3.1,16.1,4.6,8.7,2.3,17,5.5,25.2,8.9,7.3,3,14.6,5.9,21.8,9.2,12.3,5.7,25.1,9.7,38.4,12.3,4.1.8,8.2,1,12.4,1.1,5.6,0,11.2,0,16.9,0,5,0,10,.2,14.7-2,1.6-.7,3.6-.7,5.5-1,8.9-1.5,16.9-5.7,25.3-8.5,4.7-1.6,9-4.2,13.4-6.4,9.5-4.7,18.7-9.8,28.4-13.9,8.4-3.5,16.7-7.1,25.5-9.7,8.3-2.5,16.7-4.7,25.2-6.5,1.6-.3,3.3-.5,4.9-.6,2.9-.1,5.8,0,8.6-.9,1.5-.5,3.3-.3,5-.3,5.6,0,11.2,0,16.9,0,3.7,0,7.5-.4,11.1,1,.9.4,2.1.2,3.1.2,5.7-.3,11.1,1.2,16.5,2.7.6.2,1.2.6,1.8.6,5.2.4,10,2.5,14.9,4,6.2,1.8,12.1,4.3,18.2,6.5,8.8,3.2,17,7.7,25.3,11.8,7.4,3.7,14.8,7.4,22.4,10.6,5.9,2.5,12,4.5,18.1,6.6,8.5,3,17.3,4.3,26,5.6,6.7,1,13.6,1.1,20.5-.5,4-.9,8.2-1,12.3-1.7,3.3-.5,6.6-1,9.7-2,5.7-1.9,11.4-3.6,17.1-5.7,8.6-3.2,16.8-7.1,25-10.9,6.2-2.8,12.5-5.6,18.9-8.1,5.2-2,10.5-3.6,16.3-5.6M756.4,1347.2c-5.4-.1-10.8-.4-16.2-.4-4.2,0-5.9,1.5-6,5.5-.4,12.7-1.4,25.4-.6,38.1.1,2.1.5,4.1.7,6.2.2,2.5,1.8,4.3,3.8,5.4,1.4.8,3.2.9,4.8.9,9.8.4,19.5,1.8,29,4.2,9.4,2.4,18.5,5.9,27.5,9.9,16.7,7.4,33,15.4,50.5,20.8,8.1,2.5,16.4,4.8,24.7,6.2,8.8,1.4,17.7,2.6,26.7,2.6,14.2,0,28.2-.4,42.1-3.7,10.3-2.4,20.3-5.5,30.2-9.4,13.3-5.3,26-12,38.8-18.2,11.8-5.7,23.5-11.2,36.3-14.6,10.1-2.7,20.3-4.1,30.7-4.4,5.6-.2,11.2.7,16.8,1.1,7.9.5,15.5,2.7,23,5,10.4,3.1,20.1,7.9,29.7,12.7,13.2,6.6,26.3,13.3,39.9,18.9,11.2,4.6,22.8,7.8,34.6,10,10.6,2,21.4,2.4,32.3,2.5,16.1,0,31.9-2.4,47.4-6.4,12.5-3.2,24.4-8,36.1-13.3,11.1-5.1,22.2-10.3,33.4-15.3,10.1-4.5,20.5-8,31.4-9.8,10.3-1.7,20.6-2.2,31.1-.8,10.4,1.4,20.3,4.3,29.8,8.4,1.1.5,2.1,1,3.3,1.5.7-.9,1.3-1.5,1.7-2.2,7.8-13.6,13.8-27.8,17.7-43,1.1-4.5.3-8.3-3.7-10.9-1.4-.9-2.8-1.7-4.3-2.4-7.2-3.2-14.9-5.1-22.6-6.9-7.7-1.7-15.6-2.5-23.5-3-5-.3-10-.6-15-.4-10.2.4-20.4,1.5-30.3,3.6-9.7,2-19.3,4.8-28.6,8.1-12.5,4.4-24.7,9.7-36.8,15.1-13,5.9-26.1,11.7-40.2,14.7-6.5,1.4-13,3-19.7,3-4.4,0-8.8-.2-13.1,0-7.4.4-14.6-1.1-21.6-2.5-8.7-1.8-17.2-4.5-25.4-8.3-10.2-4.7-20.3-9.4-30.4-14.4-18.9-9.3-38.3-17-58.9-21.4-4.5-.9-9-1.9-13.5-2.2-16.4-.9-32.9-1.8-49.2,1.5-4.5.9-9,1.4-13.4,2.6-15.6,4.3-30.7,10.2-45.2,17.4-11.7,5.7-23.5,11.6-35.4,16.9-15.1,6.7-30.9,10.8-47.5,11.4-5.6.2-11.2-.2-16.8-.7-6.2-.6-12.4-1.3-18.4-2.9-10.9-2.8-21.4-6.7-31.6-11.3-10.8-4.9-21.6-9.6-32.7-13.5-9.6-3.4-19.4-6.1-29.3-8.2-7.5-1.6-15.2-2.4-23.9-3.7Z"/>
  <path class="st14" d="M436,311.4c4.5,6.5,8.7,13.2,13.6,19.4,15.6,19.4,34.8,33.9,59.2,40.4,11.1,2.9,22.5,4.2,34,3.7,21.8-1,41.3-8.4,58.8-21.4,7.2-5.4,13.9-11.3,19.8-18,5.9-6.7,11.7-13.6,14.2-22.4,3.8-13.3,2.2-25.5-8.2-35.6-6.8-6.6-15-10.6-24.3-11.5-6.9-.7-13.6,1.1-19.9,4.3-5.5,2.7-10,6.5-13.7,11.5-8.8,11.8-20.9,16.8-35.5,15.1-6.6-.8-12.8-3.6-18.1-7.8-8.9-7-15.1-15.8-18.3-26.8-2.4-8-2.6-16.2-1.3-24.1,1.8-11.2,6.7-21.3,14.4-29.9,10.5-12,23.4-20.4,38.4-25.8,13.2-4.8,26.8-7.4,40.8-7.3,3.3,0,6.7,0,10,0,10-.2,19.9,1.3,29.6,3.7,11.9,2.9,22.8,7.7,32.4,15.3,8.5,6.8,15.8,14.8,21.8,23.9,6.8,10.3,11.7,21.4,15.2,33.2,2.3,7.6,3.8,15.3,4.9,23.1.9,6.6,1,13.3,1.1,19.9,0,10.8-.7,21.7-2.9,32.3-2.3,11.4-5.7,22.5-10,33.3-7,17.5-16.3,33.6-27.4,48.7-13.8,18.9-29.9,35.7-47.9,50.8-23.1,19.4-48.3,35.4-75.4,48.3-18.9,9-38.3,16.8-58.6,22.5-10.2,2.9-20.4,5.4-30.8,7.6-9.1,2-18.4,3.3-27.6,4.8-8.4,1.4-17,1.6-25.5,2.3-1.2.1-2.5,0-3.7.2-14.7,1.9-29.5,1.6-44.3,1.7-36.5.2-72.9.3-109.4.5-24.6.1-49.2.4-73.7.6-3.7,0-7.5.4-11.2.5-14.2.5-27,11.9-31.6,24.6-2.4,6.7-2.6,13.5-1.6,20.3,1,6.4,4.4,12.1,8.9,16.8,5.6,5.9,12.3,9.7,20.9,12.1,1.3.6,2,.7,2.7.8,0,0,0,.1,0,.6,0,.9-.1,1.4-.1,2-8.9-1.3-16.5-5.2-23.1-11.3-3.8-3.6-7.2-7.5-9.5-12.2-2-4.1-3-8.6-3.5-13.1-.7-6.4,1.2-12.4,2.8-18.3.7-2.7,2.4-5.4,4.3-7.5,4.4-5,8.8-10,14.7-13.3,2.1-1.2,4.5-2.1,6.9-2.8,5.4-1.6,10.8-2.7,16.5-2.7,62.1,0,124.1,0,186.2,0,3.3,0,6.6.2,9.9-.9,1.5-.5,3.3-.3,5-.3,6,0,12.1,0,18.1,0,3.1,0,6.2.2,9.3-.9,1.5-.5,3.3-.3,5-.3,2.9,0,5.8.1,8.6-.9,1.5-.5,3.3-.4,4.9-.3,5.7.3,11.1-.7,16.6-1.9,2.2-.5,4.5-.4,6.8-.8,7.5-1.2,15-2.8,22.5-4.5,6.5-1.4,12.9-2.9,19.3-4.7,7.4-2.1,14.8-3.9,21.9-6.8,8.7-3.5,17.4-6.7,26.1-10.2,6.1-2.5,12.2-5.1,18.2-7.9,6-2.9,11.7-6.3,17.6-9.3,6.4-3.3,12.6-7.1,18.7-10.9,7.5-4.7,14.7-10,21.8-15.4,6.5-4.8,12.8-9.9,18.9-15.2,3.8-3.2,7.1-7,10.7-10.5,3.1-3.1,6.2-6.2,9.3-9.3,5.5-5.4,10-11.6,15.1-17.3,6.4-7.2,11.5-15.2,16.6-23.3,6-9.5,11.4-19.3,15.4-29.8,1.1-2.9,2.5-5.7,3.7-8.6,3.9-9.4,5.7-19.4,8.1-29.3.8-3.4,1.4-6.9,1.6-10.4.5-7.4,1.7-14.8,1.5-22.3-.2-6.3-.5-12.4-2.1-18.5-.4-1.6-.2-3.3-.5-4.9-.5-4.1-1-8.2-2.5-12.1-.5-1.3-.8-2.8-1.2-4.2-.6-2.2-1-4.5-1.8-6.6-1.9-5-3.7-10.2-6.3-14.8-3.7-6.7-6.9-13.7-12.5-19.3-1.6-1.6-2.8-3.6-4.2-5.4-5-5.9-11.1-10.6-17.6-14.8-4-2.5-8.6-4.1-13-6-4.6-1.9-9.3-3.6-14.3-4-1.4-.1-2.8-.8-4.2-1.2-1.2-.4-2.4-.9-3.6-1-8.3-.3-16.5-2-24.8-1.4-5,.4-10-.5-14.9,1.1-1.1.4-2.5.1-3.7.1-1.2,0-2.6-.2-3.7.2-5.1,1.8-10.5,2.2-15.7,3.7-3.9,1.2-7.7,2.9-11.5,4.6-6.4,2.9-12.9,5.7-18.3,10.4-7.2,6.1-14.3,12.3-19.1,20.4-3.3,5.4-5.5,11.6-7,17.9-2.9,11.8-1.2,23.1,4.2,33.8,3.5,7.2,8.2,13.5,15.1,17.8,4.1,2.6,8.5,4,13.2,5.3,5.9,1.6,11.7,1.2,17.2-.5,7-2.1,13.4-5.8,17.8-12,3.4-4.8,7.5-9,12.6-11.9,9.9-5.6,20.6-7.9,31.7-4.5,5.7,1.8,10.9,5,15.5,9,6.8,5.8,11.3,13.1,13.4,21.9,1.4,5.9.7,11.6-1.1,17.2-2.9,9.3-8.2,17.2-15,24.1-4.2,4.3-8.5,8.5-12.8,12.8-3.8,3.9-8.1,7.1-12.8,9.8-4.5,2.6-8.7,5.5-13.4,7.9-8,4.1-16.5,7-25.1,9.1-4.6,1.1-9.3,2.1-14.1,1.8-4.4-.2-8.7,0-13.1,0-7.5,0-14.7-1.4-22.1-3-8.6-1.9-16.7-5.1-24.3-9.3-9.3-5.1-18.1-10.8-25.8-18.3-8.4-8.2-15.6-17.2-22.4-26.6-2-2.8-4.2-5.7-4.5-9.6.9,0,1.6.3,2.2.6Z"/>
  <path class="st16" d="M978.5,1187.6c-.9,1.1-1.7,2.5-2.8,3.2-4.7,3-9.3,6.2-15.1,7.2-2.2.4-4.2,1.7-6.4,2.4-2.5.8-5.1,1.5-7.7,2.2-.8.2-1.7.1-2.4.5-5.4,2.5-11.2,2.7-17,3.3-3.5.4-7,1-10.4,1.6-.4,0-.8.4-1.2.4-10,0-20,.3-29.9,0-4.7-.1-9.4-1.2-14.1-2-5.7-1.1-11.4-1.7-17.1-3.1-7.1-1.7-14-3.7-21-5.6-2.4-.6-4.7-1.6-7-2.4-7-2.6-14.1-4.9-21-7.8-12-5.1-23.9-10.7-35.2-17.4-8.6-5.1-16.5-11-24.6-16.9-4.9-3.6-8.8-8.2-13.1-12.4-1.8-1.8-2.7-4.2-2.6-6.8,0-1.2,0-2.5,0-3.7,0-93.7,0-187.5-.1-281.2,0-6.4,2-11.6,5-17,2.7-4.8,6.3-8.7,10.2-12.5,82.8-82.8,165.6-165.6,248.4-248.3,5-5,10.4-9.5,15.5-14.4,5-4.8,9.7-9.8,14.7-14.5,3.8-3.6,8.1-6.6,13-8.2,8.8-2.9,17.9-4.1,26.7,0,4.3,2,8.3,4.5,11.8,8,34.1,34.3,68.3,68.4,102.5,102.6,4,4,8.1,7.9,11.9,12,4.7,5,9.5,9.8,14.5,14.5,5,4.8,9.7,9.7,14.6,14.6,4.9,4.9,9.7,9.7,14.6,14.6,4.9,4.9,9.8,9.7,14.6,14.6,1.9,1.9,3.5,4.1,5.3,6.1,1,1.1,1.8,2.4,3,3.1,3.8,2.3,6.6,5.7,9.7,8.7,29,29,58,58,87.1,87,3.9,3.8,6.9,8.3,10,12.7.6.8.6,1.9.9,3.4,0,.5,0,.5-.4.5-.6,0-.8,0-1,0,0,0,0,0,0-.2-.3-.6-.6-.9-1.2-1.5-3-4.8-6.4-8.7-10.1-12.4-35.5-35.5-71-71-106.5-106.4-39.9-39.9-79.8-79.8-119.7-119.7-17.5-17.5-35.1-35-52.5-52.6-8.7-8.9-19.3-10.1-30.5-7.9-6.3,1.2-12,4.6-16.7,9.2-11.2,10.9-22.7,21.5-33.7,32.5-58.5,58.4-117,116.9-175.5,175.3-24,24-47.9,48.1-72,72-7.5,7.5-11,16.2-10.9,26.8.2,92.3.2,184.6,0,276.9,0,6.9,1.8,12.2,7.1,16.3,1.1.9,2.2,2,3.3,2.9,8.5,7.1,17.4,13.5,26.9,19.1,13.8,8.2,28.3,14.9,43.2,20.7,7.5,2.9,15.1,5.8,22.9,7.9,7.2,2,14.3,4.2,21.7,5.5,5.7,1,11.4,2.4,17.1,3.2,6.4.8,12.9,1.1,19.3,1.5,10.9.7,21.7-.5,32.4-1.8,7.4-.9,14.7-2.6,21.9-4.7,9.6-2.8,19-5.9,27.9-11.4,1,0,1.5,0,2.1,0Z"/>
  <path class="st10" d="M436,310.9c-.6.1-1.2-.2-2.1-.6-1.1-.8-2-1.4-2.5-2.3-3.9-7.1-7-14.6-9.1-22.4-1.6-6-3.7-11.9-4.3-18.1-.7-7.6-1.2-15.3-1.8-22.9,1.8-5.7.6-11.6,1.4-17.3.9-6.5,2.2-13,4.1-19.4,3.5-12,8.8-23.2,14.9-34.1,3.7-6.6,8.5-12.2,12.7-18.4.9-1.4,2.2-2.5,3.4-3.7,5-5,10-10,15-15,4.8-4.9,10.4-8.9,16.3-12.4,3.5-2.1,6.9-4.5,10.4-6.6,2.5-1.5,5-2.9,7.6-4.1,9-4.2,18.1-8.3,27.7-11,7.2-2,14.2-4.5,21.7-5,1,0,2-.6,3-.8,7.7-1.6,15.4-3,23.4-2.9,11.9.1,23.7.3,35.6,0,9-.2,17.7,1.4,26.5,3.2,5.1,1,10.3,1.6,14.9,4.1,8.7.7,16.2,5.1,23.9,8.6,11.5,5.2,22.3,11.9,32.4,19.6,7.2,5.5,13,12.3,19.5,18.3,6,5.5,10.5,12.3,15.5,18.6,7.1,9,12.4,19.1,17.6,29.3,5,10,9,20.6,12,31.4,2.6,9.4,5,18.8,6.4,28.4,1.1,7.1,2.2,14.3,1.7,21.7-.2,3.1.3,6.1.8,9.3.7,4.5.9,9.2,0,13.7-.8,4.2-.8,8.3-.8,12.4,0,6.7-1.1,13.2-2.4,19.7-.9,4.3-1.6,8.5-2.6,12.8-1.7,7.4-3.1,14.9-5.7,22.2-2.6,7.4-5,14.9-8,22.2-4.9,12.1-10.8,23.8-17,35.3-4.5,8.2-10.4,15.5-14.8,23.8-2.3,4.3-5.8,8.1-8.9,11.9-4.4,5.5-9.3,10.6-13.5,16.2-4.9,6.5-11.1,11.8-16.6,17.8-1.1,1.2-2,2.6-3.1,3.9-1.5,1.7-3,3.4-4.7,5-2.6,2.4-5.4,4.5-8,6.9-6.2,5.8-12.8,11.2-19.5,16.4-.7.5-1.5.8-2,1.4-4.7,5.5-11.2,8.5-16.8,12.8-12.8,9.7-26.6,17.7-40.5,25.6-9,5.1-18.5,9.5-27.8,14-8.2,4-16.6,7.3-25.2,10.5-1.3.5-2.4,1.4-3.9,2.4.9,1.1,1.4,2,2.2,2.5,6.5,4.5,12.5,9.6,17.8,15.5,8.1,9.2,16,18.4,22,29.3,3.8,6.9,7.4,13.9,10.3,21.3,3.2,8.1,5.8,16.4,7.5,25,1,5.3,1.8,10.6,2.5,15.9.6,4.1,1.7,8.1,1.3,12.3-.6,5.6-.9,11.1-1.5,16.7-.4,3.3-1.2,6.5-2,9.7-3.5,13.6-8.7,26.3-16.3,38.2-4.5,7-9.7,13.5-15.6,19.3-5.1,4.9-9.5,10.5-15.6,14.3-6.1,3.9-12,8-18.7,11.1-9.1,4.2-18.6,6.9-28.3,9.2-1.6.4-3.3.4-4.9.5-4.1.2-8.3-.5-12.4,1-.9.3-2,0-3.1-.2-1.4-.2-2.9-.9-4.3-.7-7.2.7-13.9-1.4-20.8-2.9-6.5-1.5-12.6-4-18.6-6.8-10.7-4.9-20-11.6-28.3-19.9-3.2-3.3-6.5-6.4-9.7-9.8-1-1-1.7-2.3-2.5-4.5,0-1.4.1-1.7.2-2.1,4,4.2,7.9,8.5,12,12.7,12.2,12.4,26.5,21.4,43.1,26.3,8.5,2.5,17.3,4.6,26.3,4.4,4.8-.1,9.6.2,14.4-.2,5.2-.4,10.4-1.1,15.4-2.4,14.2-3.6,27.4-9.6,39.1-18.6,17.5-13.4,30.7-30.3,39.3-50.7,3.4-8.1,6-16.4,7.3-25,1.7-11.1,2.3-22.2.7-33.6-2.4-17.9-7.5-34.8-15.3-51-9-18.4-21.6-34-37-47.4-4.1-3.5-8.5-6.6-12.7-9.8,0-1.7,1.4-1.4,2.2-1.8.9-.5,1.9-1,2.8-1.3,26.7-10.1,52.1-22.5,76.4-37.6,15.9-9.9,31-20.9,45.5-32.8,15.6-12.9,30.1-27,43.4-42.2,23.6-27,42.7-56.7,55.9-90.2,4-10.2,7.7-20.6,10.4-31.2,1.9-7.2,3.8-14.4,4.6-21.9.8-7,2.1-14,3-21,.4-2.9.4-5.8.4-8.7,0-6.2,0-12.5,0-18.7,0-11.5-1.6-22.8-3.4-34.1-2.1-12.5-5.3-24.7-9.6-36.6-11.2-30.9-28.9-57.5-54-78.9-14.5-12.3-30.9-21.6-48.9-28.1-7.4-2.7-15-4.9-22.7-6.7-5.4-1.3-11.1-1.7-16.6-2.6-13.9-2.5-27.8-1.6-41.8-1.6-4.1,0-8.3.7-12.4,1.1-1.2.1-2.5.4-3.7.5-14.5,1.3-28.6,4.5-42.5,9.1-14.5,4.8-28.1,11.3-40.7,19.8-25.6,17.4-44.6,40.2-56,69.2-3.2,8.1-5.5,16.6-7.2,25.1-2.4,12.3-2.9,24.8-1.8,37.3.5,5.7,1.6,11.5,2.9,17.2,1.6,6.7,3.4,13.3,6,19.6,2.1,5.2,4.7,10.1,7.2,15.6Z"/>
  <path class="st10" d="M1486.2,1292.7s0,.6-.5.9c-1,.7-1.5,1.1-2.1,1.5-4.4,2.3-8.8,1.6-13.1-.3-5.9-2.6-11.9-4.9-18.1-6.6-3.6-1-7.2-1.9-10.8-2.8-.4-.1-.8-.2-1.2-.3-6.2-.5-12.4-1-18.6-1.3-2.7-.2-5.4-.2-8,.9-.9.4-2,.3-3.1.3-3.9,0-7.8,0-11.5,1.9-1.9,1-4.5.5-6.7,1.2-9.1,2.9-18.2,5.8-26.8,10.1-4.1,2-8.3,3.6-12.5,5.5-3,1.3-6,2.7-9,4.2-11.2,6-23.3,9.9-35.3,13.8-7.1,2.3-14.3,4.1-21.8,4.7-2,.2-4.1.6-6.1,1.2-4.5,1.4-9,1.2-13.6,1.2-7.5,0-15-.2-22.5,0-5.7.2-11.1-.7-16.6-2-2.4-.5-4.9-.7-7.3-1.2-6-1.4-12.2-2.5-18-4.6-5-1.8-10.3-3-15.1-5.5-4.2-2.2-8.9-3.5-13.2-5.5-6-2.7-11.9-5.7-17.8-8.7-11-5.7-21.9-11.8-33.7-15.8-8.6-2.9-17.3-5.8-26.6-5.7-6.1-1.8-12.4-1.2-18.6-1.2-2,0-4.1.5-6.1.7-1.4.2-2.9.5-4.3.4-4.9-.3-9.4,1.1-14,2.3-12.9,3.4-25,9-36.9,14.9-6.9,3.4-14,6.4-20.8,9.9-10.5,5.4-21.5,9.6-32.8,13.2-7.7,2.5-15.5,4.5-23.4,5.9-1.8.3-3.6.8-5.5,1.2-5.1,1.1-10.2,1.4-15.4,1.5-3.5,0-7,1.1-10.5,1.1s-7-.8-10.5-1.1c-1.7-.2-3.3-.1-5,0-5.9.4-11.6-.6-17.2-2-2.2-.5-4.5-.7-6.7-1-6.4-.8-12.5-2.7-18.6-4.6-8.7-2.6-17.5-5-25.7-9.2-3.1-1.6-6.6-2.5-9.8-3.9-7.6-3.3-15.1-6.8-22.7-10.1-6.5-2.8-13.1-5.1-19.9-7.2-6-1.8-12-3-18.2-3.5-4.9-.4-9.8-1.3-14.7-2.3-5.1-1.1-7.4-4.3-8.4-9.4-1.7-8.9-.9-17.8-1.2-26.7-.2-6.1.4-12,1.3-18,.8-4.9,4.3-8.2,9.4-8.4,3.3-.1,6.7-.5,9.9.7.9.4,2,.5,3.1.4,6.1-.3,11.9,1.3,17.8,2.2,8.2,1.2,16.3,3.1,24.2,5.3,4.4,1.2,8.8,2.5,13,4,5.8,2.1,11.6,4.4,17.4,6.7,1.9.8,3.7,1.9,6,3.4.4,1.1.4,1.7,0,2.2-4.5-1.6-8.5-3.3-12.5-5-15.2-6.3-31-10.6-47.1-13.6-9.4-1.8-18.9-2.7-28.5-2.8-1.7,0-3.3,0-5,.2-2.8.5-4,1.9-4.3,4.6-.4,5-.9,10-1.1,14.9-.3,10.2-.2,20.4,1.1,30.5.3,2.3,1.3,3.8,3.2,5,1.7,1.1,3.5,1.2,5.4,1.4,6.6.7,13.3,1.1,19.8,2.4,10.6,2.2,20.8,5.6,30.7,9.9,14.6,6.4,29,13.4,44.1,18.8,12.1,4.3,24.5,7.8,37.2,9.9,10.9,1.8,21.9,2.5,33,2.5,15.7,0,31.1-2.5,46.2-6.4,12.9-3.3,25.3-8,37.3-13.7,12.9-6.1,25.7-12.5,38.7-18.7,13.8-6.6,28.4-10.5,43.6-11.9,16.4-1.5,32.3,1.2,47.9,6.3,11.3,3.7,21.8,9.1,32.3,14.5,14,7.2,28.1,14.2,43.1,19.3,8.2,2.8,16.6,5.1,25.2,6.8,4.7,1,9.5,1.2,14.2,2.1,11.8,2.2,23.7,1.8,35.5.8,9.7-.9,19.3-2.4,28.9-4.8,10.9-2.8,21.5-6.2,31.8-10.6,12.4-5.4,24.6-11,36.9-16.6,9.8-4.5,20.1-8,30.6-10.2,8.7-1.9,17.7-2.5,26.7-2.2,9.8.3,19.4,1.8,28.8,4.9,6.5,2.1,12.9,4.6,19.2,7.1,2.9,1.2,5.6,1.2,8.5.2,1-.4,2-.7,3-.9.1.1.3.3.3.3Z"/>
  <path class="st14" d="M856,377.7c-2.6.2-4.9-.3-6.8-2.4-1.4-1.5-3.3-2.5-4.9-3.8-6.2-5.3-9.7-12.4-11.8-20.1-1-3.8-1.8-7.6-1.6-11.7.2-2.7.2-5.4,1.6-7.8.4-.7.7-1.5.8-2.3.5-5,3.3-9,5.8-12.9,2.2-3.5,5.1-6.6,8-9.5,38.3-38.3,76.6-76.6,114.9-114.9,1.9-1.9,4.1-3.5,6.2-5.2.6-.5,1.3-1,1.8-1.7,4.8-6,11.1-10.6,16.3-16.2,5.3-5.6,10.9-10.9,16.3-16.4,5.5-5.4,10.9-10.9,16.4-16.3,5.5-5.4,10.9-10.9,16.3-16.4,3.7-3.7,8-6.5,13.1-8.1,5.2-1.6,10.2-3.8,15.8-3.1,2.5.3,4.9.6,7.3,1.2,7.4,1.8,13.6,5.4,19.4,10.5,15.3,13.5,28.8,28.9,43.9,42.6,17.2,15.5,33,32.3,49.5,48.5,16.5,16.2,32.7,32.7,49.1,49,77,77,154.1,154,231,231.2,6,6,11.6,12.5,17.4,18.7,2.6,2.8,4.2,6.6,6.1,10.6-.7,1.3-1.2,2-1.9,2.4-2.8-7.4-7.4-12.9-12.6-18.1-16-16.1-31.7-32.5-47.7-48.5-42.8-42.9-85.7-85.6-128.6-128.5-29.9-29.9-59.8-59.7-89.6-89.7-38.1-38.5-76.9-76.2-115.8-113.8-1.3-1.3-2.7-2.6-4.1-3.8-10.7-8.7-22.8-10.6-35.8-7.2-7.4,1.9-13.4,6.4-18.6,12.1-3.7,4-7.3,7.9-11.2,11.7-36,35.5-72.1,71-108.1,106.5-21.9,21.7-43.6,43.5-65.4,65.3-7.7,7.7-12.8,16.9-13.7,28-1.2,14.5,3.3,26.6,15.4,35.4,1.8,1.3,3.8,2.4,5.7,3.9,0,.3,0,.9,0,.9,0,0,0,0,0,0Z"/>
  <path class="st7" d="M841,1249c4,1.6,8,3.3,12.1,4.7,7.6,2.7,15.2,5.5,23.3,6.6,5.5.8,11,2.1,16.4,3.2,1.4.3,2.9.4,4.3.4,3.1,0,6.3-.2,9.4,0,5.5.4,10.7-1,16.1-1.6,3.3-.4,6.5-1.4,9.7-1.9,9.7-1.6,18.7-5.5,27.7-9.1,3.9-1.5,7.6-3.3,11.4-5,6.7-3.1,13.5-6.3,20.2-9.5,9-4.3,18.1-8.2,27.5-11.5,5.6-2,11.3-4,17.1-5.7,5.6-1.6,11.3-2.8,16.9-4,1.4-.3,2.9-.2,4.3-.4,2.3-.3,4.5-.6,6.8-.8,1.6-.2,3.3-.4,5-.4,7.9,0,15.8,0,23.7,0,2,0,4.1.5,6.1.8,1.2.2,2.5.5,3.7.4,6.1-.2,11.9,1.2,17.7,2.9,1.4.4,2.8.6,4.2.9,1.8.4,3.7.6,5.4,1.2,9.3,3.4,18.7,6.7,27.9,10.6,7,3,13.7,6.7,20.6,10.1,12.1,5.8,24.1,11.9,36.9,16.2,8.1,2.7,16.4,4.2,24.8,5.5,3.9.6,7.8,1,11.7,1.4,5.6.6,11.2-.5,16.7-1.4,2.2-.4,4.5-.6,6.7-1,2.2-.4,4.5-.7,6.7-1.2,9.9-2.5,19.5-5.8,28.8-9.9,7-3.1,14.2-5.8,21.1-9,8.1-3.8,16.4-6.9,24.7-10.1,3.8-1.5,7.8-2.6,11.8-3.6,5-1.3,9.8-3.2,15-3.9,4.5-.5,9-1.3,13.4-2.2,5.7-1.2,11.6-.7,17.3-1.4,5.8-.7,11.5-.9,17.2.1,2,.4,4.2.1,6.2,0,2.9,0,5.7.4,8.6,1.1,4.8,1.2,9.8,1.5,14.6,2.8,6.4,1.7,13,2.9,18.9,6.3,2.3,1.3,4.7,2.6,6.9,4.2,3.6,2.6,5.6,5.9,5.4,10.6-.2,5,0,10,0,15,0,.8.2,1.7,0,2.5-2,6.7-.9,13.6-1.2,20.5,0,1.7,0,3.3-.2,5,0,.7-.8,1.3-1.9,2-.7,0-1-.3-1-.9,0-12.2,0-23.9,1-35.5.3-3.7-.2-7.5-.4-11.2-.1-3-1.8-4.9-4.2-6.5-3.5-2.3-7.3-3.9-11.3-5.1-5.7-1.7-11.5-3.4-17.4-4.5-6.7-1.3-13.5-2.5-20.3-2.9-8.9-.5-17.9-.2-26.8,0-2.5,0-5,.2-7.4.7-5.5,1.2-11.1,1.5-16.6,2.8-8.7,1.9-17.3,4.1-25.7,7-11,3.7-21.6,8.4-32.2,13.1-14.6,6.5-29.1,13.2-44.8,16.6-6.7,1.4-13.4,2.9-20.3,2.9-8.9,0-17.8.3-26.7-1.6-4.9-1-9.8-1.9-14.5-3.2-11.2-3.2-21.8-7.8-32.3-12.9-11.7-5.7-23.4-11.7-35.4-16.9-18.9-8.2-38.7-13.7-59.5-14.6-13.1-.6-26.2-.2-39.2,1.9-10.1,1.7-19.8,4.4-29.5,7.5-9.3,3-18.2,6.9-27.1,10.9-12.1,5.5-24.1,11.2-36.1,16.7-9.8,4.5-20.2,7.6-30.7,10-10.4,2.4-21,2.4-31.7,2.4-7.6,0-15-1.1-22.3-2.6-11.6-2.5-22.7-6.4-33.6-11.1-.7-.3-1.3-1-2-1.9,0-.9,0-1.5,0-2Z"/>
  <path class="st15" d="M1412.4,1170.3c-1.2-.4-2.4-.9-2.4-2.5,0-2.1-.1-4.2-.1-6.2,0-78.5,0-157.1,0-235.6,0-120.8,0-241.6,0-362.5,0-9.1,1.1-6.6-5.6-13.5-6.7-6.8-13.4-13.6-20-21.1.3-1.1.5-1.6,1.1-1.9,8.5,8.3,16.5,16.5,24.7,24.5,2.5,2.4,3.6,4.9,3.2,8.3,0,.6,0,1.2,0,1.9,0,200.5,0,401.1,0,601.6,0,2.3.1,4.6,0,6.9-.3,0-.8.1-.8.1Z"/>
  <path class="st10" d="M154.8,508.8c-13.9-1-23.3-8.3-29.3-20.8-3.1-6.6-4.7-13.3-4.3-20.4.5-8.5,1.8-16.8,6.8-24.2,4.7-6.9,11.1-11,18.9-13.3,3.4-1,6.9-1.4,10.4-1.4,119.7,0,239.4,0,359.1,0,5.4,0,10.2,1.7,15,3.4.8.3,1.5.7,2.2,1.2,8.2,7,14.6,15.1,16.4,26.3.7,4.6,1.3,9,1,13.6-.5,9.2-3.9,17.4-10.4,24-4.6,4.6-10.1,8-16.2,10.2-1.6.5-3.2.9-5.4,1-.9-.8-1.3-1.3-1.3-2.2,1.1-.6,1.9-1,2.7-1.1,5.3-.8,9.9-3.3,14.1-6.3,6.4-4.5,10.6-10.7,12-18.3,1.8-9.7,1.4-19.6-2-28.9-2.3-6.4-6.2-11.7-12.2-15.3-5.5-3.3-11.4-4.5-17.9-4.5-117.9,0-235.8,0-353.7,0-2.3,0-4.6-.1-6.9.1-8.3.9-15.7,3.7-21.4,10.2-3.9,4.6-6.2,10.1-7.1,15.7-1.4,9.1-1.6,18.3,1.9,27.1,4.3,11,11.7,18.5,24,20.1,2,.3,4,1,5.8,1.7-.9.8-1.6,1.4-2.3,1.9Z"/>
  <path class="st9" d="M1379.6,522.8c-2,0-3.6-.7-5-2.2-5.2-5.7-11.5-10.3-15.7-16.8-.1-.2-.2-.4-.4-.5-4.8-2.7-7.3-7.9-11.3-11.4-1.3-1.1-2.6-2.1-3.8-3.2-1.7-1.5-3.8-2.8-5-4.7-2.3-3.6-5.4-6.3-8.3-9.3-86.9-86.9-173.8-173.8-260.7-260.7-1.7-1.7-3.5-3.4-5.5-5.4-1.2.9-2.3,1.5-3.2,2.3-1.5,1.4-3,2.9-4.4,4.4-44.6,44.6-89.3,89.2-133.9,133.9-7.2,7.2-14.2,14.6-21.6,21.5-8.2,7.6-18.1,11.7-29.4,11.7-2.7,0-5.3-.8-8.5-1.6-.6-.9-.6-1.5,0-2,3.7.1,6.8.2,9.9.3,5.7.2,11-1.5,16.2-3.7,6.9-3,12-8,17-13.4,5.2-5.6,10.6-11.1,16-16.6,2.9-3,6.1-5.7,9-8.7,43.2-43.1,86.4-86.2,129.6-129.3.8-.8,1.8-1.6,2.8-2.5.9.7,1.6,1.2,2.2,1.8,42.6,42.6,85.1,85.1,127.7,127.7,58.4,58.5,116.8,117,175.2,175.5,4,4,7.8,8.1,11.5,12.3-.1.2-.4.5-.4.5Z"/>
  <path class="st7" d="M1367.2,1175.1c-1.1,2.2-2.8,3.2-5.2,3.9-13.1,3.9-26.2,7.9-38.7,13.7-4.3,2-8.9,3.5-13.4,5.1-5.8,2.1-11.5,4.7-17.9,5.2-8,3.7-16.9,3.6-25.3,5.8-1.2.3-2.5.2-3.7.2-4.8,0-9.6-.2-14.4,0-8.8.5-17.3-1.3-25.9-3-10.4-2.1-20.4-5.3-30.1-9.8-4.9-2.3-10.2-3.7-15-6.1-10.5-5.1-21.4-8.9-32.2-13.1-5.8-2.2-11.9-3.7-17.8-5.6-1.6-.5-3.2-.9-4.7-1.7-.8-.4-1.3-1.5-1.6-2.8.6-.5.8-.5,1.5-.4,2.4.8,4.4,1.5,6.3,2.2,8.6,2.9,17.4,5.4,25.8,8.7,12,4.7,23.7,10,35.5,14.9,14.4,5.9,29,10.9,44.7,12.6,15.3,1.7,30.3.9,45.3-1.9,10.8-2.1,21.3-5.3,31.6-9.2,7.3-2.8,14.7-5.6,22-8.6,8.8-3.6,17.9-6.5,27.1-9,2.7-.7,3.3-1.5,3.3-4.4,0-2.7,0-5.4,0-8.1,0-92.6,0-185.2,0-277.8,0-13.1,0-26.2.5-38.9.6,2.8,1,5.3,1,7.7,0,104.1,0,208.2,0,312.3,0,1.9-.1,3.8,0,5.6,0,1,.7,1.9,1.1,2.8Z"/>
  <path class="st18" d="M1488.5,527.6c1.7,3.3,2.3,7,2.4,10.7.1,3.3,0,6.7,0,10,0,208.4,0,416.8,0,625.1,0,2.5-.4,4.9-1.3,7.7-1,.2-1.2.2-1.6-.4,0-2.5-.1-4.3-.1-6.2,0-209.2,0-418.4,0-627.6,0-5.2-.2-10.4,0-15.9.4-1.3.4-2.3.5-3.4,0,0,0,0,0,0Z"/>
  <path class="st14" d="M475.3,639.8c5.2,1.8,9.6,4.9,13.9,8.1,13.9,10.1,24.9,22.5,31.8,38.5,4.6,10.6,6.3,21.6,4.9,32.9-1.9,14.8-8.6,26.9-22.2,34.2-12,6.4-23.7,5.2-34.6-2.6-8.5-6.1-14.1-14.6-18.1-24.1-2.2-5.1-3.7-10.6-5.6-15.8-3.6-9.7-9.2-17.6-18.7-22.4-6.3-3.2-12.9-4.5-19.9-3.9-4.8.4-9.3,1.5-13.7,3.8-10.1,5.5-15.3,14.1-17.2,25.2-1.3,7.6-.7,15.1.9,22.3,1.7,7.4,4.5,14.7,8.1,21.5,3.3,6.2,6.8,12.4,10.3,19-.8.9-2,1.3-2.7.2-4.1-6.3-8.3-12.5-11.2-19.4-1.8-4.2-3.3-8.5-5.1-12.7-3.8-8.8-4.5-18-4-27.4.4-7.2,2.3-13.9,7-19.6.7-.8,1.2-1.7,1.8-2.5,4.4-6.2,10.5-10,17.6-12.1,7.1-2.1,14.4-2.4,21.5-.1,10.1,3.3,18.8,8.5,24,18.5,3.4,6.5,6,13.2,8.2,20.1,2.1,6.6,5.4,12.7,9.3,18.3,4.6,6.7,11.4,10.8,18.9,13.8.9.4,2,.4,3.1.4,1.7,0,3.4-.2,5,0,8.4,1.1,14.9-3.1,20.9-8,4.9-3.9,8.3-9,10.5-15.1,2.3-6.8,4-13.6,3.5-20.6-.4-5.5-1.2-11-2.8-16.4-2.9-9.5-7.8-17.9-13.8-25.5-3.9-5-8.9-9.3-13.6-13.8-1.6-1.6-3.6-2.8-5.5-4.1-8.8-5.9-18.1-10.6-28.1-14.4-7.6-2.8-15.5-4.5-23.3-6.7-4.3-1.2-9-1.3-13.5-1.7-4.1-.3-8.3.2-12.4-1.1-2.3-.7-4.9-.5-7.8-1.3-.5-1-.5-1.4-.5-1.9,3.1,0,6.1-.1,10.1.2,2.6.6,4.3,2.4,6.2.6,4.3.4,8.6.8,13.6,1.7,1.3.5,1.9.5,2.5.6,1.8.2,3.6.3,6,1,1.3.6,1.9.6,2.5.7,1.1.2,2.3.3,4.1.9,1.1.4,1.6.5,2.1.5,1.5.4,3.1.7,5.2,1.6,1.1.7,1.7.8,2.3.9.8.1,1.6.2,2.9.8,1.2.6,1.8.8,2.5,1,3.9.3,7,2.8,11,4.6,1.1.8,1.6,1,2.2,1.2Z"/>
  <path class="st2" d="M978.5,1187c-.6.6-1.1.6-2.1,0-.5-2.6-.6-4.7-.6-6.8,0-69.9,0-139.9,0-209.8,0-4,0-7.9.2-11.9,0-1.4.3-2.9.7-4.3,3.9-10.9,14.6-16.6,23.3-16.6,32.7.2,65.3.2,98,0,3.9,0,7.5.8,10.8,2.5,4.5,2.3,8.5,5.2,10.2,10.5-.2.2-.6.6-.6.6-.8-.5-2-.8-2.5-1.5-4.8-7.3-12.4-8.6-20-9.7-1-.1-2.1,0-3.1,0-29.6,0-59.1,0-88.7,0-5.2,0-9.8,1.5-14.5,3.3-3,1.1-5.3,3.4-6.9,6.1-2.6,4.3-4.3,8.7-4.3,14,.2,72,.1,144.1.1,216.1,0,2.3,0,4.6,0,7.5Z"/>
  <path class="st3" d="M517.3,506.7c.3.5.7,1.1,1.1,1.9-39.6.3-79.4.4-119.1.4-81.1,0-162.3,0-244,0,.1-.5.8-1.1,2.3-2,81.3-.3,161.8-.2,242.3,0,39.1,0,78.2,0,117.3,0Z"/>
  <path class="st16" d="M1367.6,1174.8c-.8-.6-1.4-1.5-1.5-2.4-.2-1.9,0-3.7,0-5.6,0-104.1,0-208.2,0-312.3,0-2.5-.4-4.9-1.1-8.2-.8-2.3-1-3.8-1.3-5.7,0-1.7,0-2.9-.1-4.1,0,0,0,0,0,0,3.9,5.7,5,12.1,5,18.8,0,104.2,0,208.3,0,312.5,0,2.3-.3,4.5-.9,7.1Z"/>
  <path class="st3" d="M401.6,623.3c.5.6.5,1,.7,1.7-26,.3-52,.2-78,.2-55.7,0-111.5,0-167.8,0-.6-.5-.5-1-.5-1.9,19.3-.3,38.6-.3,57.9-.3,60.5,0,121,0,181.5,0,1.9,0,3.7,0,6.2.2Z"/>
  <path class="st2" d="M1122.5,1166.3c-.2,0-.5,0-1.1,0-.8-.9-1.4-1.8-1.5-2.7-.2-1.6,0-3.3,0-5,0-67.1,0-134.1.3-201.7.9,0,1.4.3,2.2,1.2.2,9.1.3,17.6.3,26.1,0,60.7,0,121.3,0,182Z"/>
  <path class="st16" d="M1412.5,1170.8c0-.5.4-.5,1.3-.6,7.6,0,14.3-.3,21.2,1.3,1.6,1.4,3,1.1,5,.6,2.8.3,5.1.6,7.6,1.2,1.1.4,2,.6,3.4.8,2,.3,3.5.6,5.1,1.2.8.4,1.4.5,2.5.6,2,.3,3.5.6,5.1,1.2.7.4,1.3.6,2.4.7,1.5.3,2.5.5,3.7,1.1,1,1.3,2,1.2,3.5.9,2,.4,3.5.8,5.1,1.4.8,1.3,1.5,1.6,2.9.4,1.4,0,2.4.2,3.3.6,0,.7.1,1.1.2,1.4-.5.3-1.1,1-1.5.9-4.6-1-9.3-2.1-13.9-3.2-8.4-2.1-16.8-4.4-25.3-6.1-4.8-1-9.9-.9-14.8-1.5-5.1-.7-10.3-1.4-15.5-1.4-.5,0-.9-.7-1.4-1.6Z"/>
  <path class="st14" d="M395.5,777.5c2.1,1.9,3.9,4.3,5.9,7.1-2.7.8-4.8.1-5.4-3-.2-1.2-.5-2.4-.5-4.1Z"/>
  <path class="st7" d="M832.3,1247.6c0-.5,0-1.1,0-2,2.3.7,4.9.9,7,3.4-.4.7-1,.9-1.9,1-1.1-.4-1.8-.7-2.7-1.4-.9-.5-1.6-.8-2.3-1,0,0,0,0,0,0Z"/>
  <path class="st15" d="M1485.4,1183.8c-.5-.4-.6-.8-.2-1.5,1.3-.6,2.1-.8,3-1,.3,0,.5,0,1.1.2.1,2.6-1.8,2.3-3.9,2.3Z"/>
  <path class="st18" d="M1486.3,523.9c.5-.7,1.1-1.5,1.9-2.4.3,1.6.3,3.3.3,5.6,0,.5,0,.5-.3.4-.7-.5-1.2-.8-1.8-1.6-.1-.9-.1-1.5,0-2.1Z"/>
  <path class="st9" d="M1382.3,526.3c-1.8,0-2.5-1.1-2.6-3.2,0-.4.2-.7.7-.7,1.3.9,2.1,1.9,2.7,3.1-.4.4-.6.6-.8.8Z"/>
  <path class="st14" d="M862.3,378.9c0,.5,0,1,0,1.9-1.5-.2-3.1-.7-4.8-1.6-.2-.4-.1-.5.4-.5,1.3-.2,2.1-.3,3.1-.5.7,0,1,.3,1.2.7Z"/>
  <path class="st2" d="M1119.8,955.2c-1.1-.7-1.3-1.8-1.3-3.4,0-.4.4-.8.6-1,.2-.1.3,0,.4.2,0,.2.4.4.7.7.4,1,.6,1.6.4,2.3-.5.4-.7.8-.8,1.2Z"/>
  <path class="st7" d="M1119.8,955.5c0-.7.3-1,1.1-1.2.8,1.2,1,2.3,1.2,3.3-.6-.4-1.1-.7-2-1.2-.3-.1-.3-.7-.3-.9Z"/>
  <path class="st10" d="M837.7,1250.1c.6-.2,1.2-.4,1.9-.8.4-.3.6-.3,1.1-.3.3.6.3,1.1,0,2.1-1.2,0-2.1-.5-3-.9Z"/>
  <path class="st7" d="M1488.5,1290.1c0,1.2-.3,2.2-1.9,2.6-.4,0-.6-.1-.6-.6.7-1.1,1.3-1.8,2-2.5,0,0,.4.3.5.5Z"/>
  <path class="st7" d="M1484,1295.1c.2-.4.7-.8,1.6-1.2-.2.4-.7.8-1.6,1.2Z"/>
  <path class="st14" d="M403.8,787.7c0,.5,0,.9-.2,1.9-.3-.2-.6-.9-.6-2,.5-.3.6-.2.8.2Z"/>
  <path class="st14" d="M402.3,786.5c.2-.1.4,0,.4.1-.3.2-.5.4-.8.5,0-.2.1-.3.4-.6Z"/>
  <path class="st9" d="M1384.9,526.9c-.2.5-.4,1-.9,1.7-.3,0-.4-.2-.2-1,.4-.8.5-1,.8-1,0,.1.3.3.3.3Z"/>
  <path class="st9" d="M1383.8,527.3c-.7.2-1,0-1.3-.7,0-.5.2-.6.9-.9.7.2,1,.5,1.2.8-.2.2-.3.4-.7.8Z"/>
  <path class="st14" d="M857.3,378.9c-.4-.1-.7-.4-1.1-1-.1-.3-.1-.3.2-.2.6.3.9.6,1.1,1,0,0,0,0-.1.1Z"/>
  <path class="st4" d="M418.1,623.9c-1.5,2.1-3.2.3-5.3-.1,1.4-.2,3.2-.2,5.3.1Z"/>
  <path class="st4" d="M155.8,622.3c-.4.2-1.1,0-2-.3.5-.2,1.1,0,2,.3Z"/>
  <path class="st4" d="M434.4,626.2c-.4.2-1,.2-1.8-.1.4-.2,1-.2,1.8.1Z"/>
  <path class="st4" d="M442.9,627.9c-.4.2-1,.2-1.8-.2.4-.2,1-.1,1.8.2Z"/>
  <path class="st4" d="M456.6,631.9c-.4.2-1,0-1.8-.4.4-.2,1,0,1.8.4Z"/>
  <path class="st4" d="M461.9,633.7c-.4.1-1.1,0-1.9-.6.5-.1,1.1,0,1.9.6Z"/>
  <path class="st4" d="M475.2,639.5c-.4,0-1-.1-1.7-.6.4,0,1,.1,1.7.6Z"/>
  <path class="st4" d="M449,629.3c-.2.3-.7.2-1.5,0,.2-.3.7-.2,1.5,0Z"/>
  <path class="st13" d="M621.5,1461c0,0-.7,0-.7,0,0,0-.6.2-1.2.3-1.1.6-1.6,1-2.2,1.5-4.6.3-9.1.8-13.7.8-74.2,0-148.3,0-222.5,0-2.1,0-4.2,0-6.2-.2-5.8-.8-8.3-6.1-5.3-11.1.7-1.2,1.7-2.4,2.6-3.5,8.2-10,16.5-19.9,24.6-29.9,7-8.6,13.8-17.2,20.7-25.8,6-7.4,12.1-14.8,18.1-22.3,7.1-8.7,14.1-17.5,21.1-26.3,6-7.4,12.1-14.8,18.1-22.3,3.4-4.2,6.8-8.4,10.2-12.6.9-1.1,1.7-2.4,2.4-3.6,4.2-7.5,1-15.9-9-17.3-11-1.6-22-2.1-33-2-2.8,0-5.3-.5-7.9-1.5-5.7-2.1-9-7.3-8-13.2.4-2.4,1.3-4.8,2.3-7.1,9.8-23.1,19.7-46.2,29.5-69.3,1.1-2.7,2.2-5.4,3.2-8.1,2.4-6.2-1.4-11.2-6-13.4-2.1-1-4.2-1.8-6.6-1.7-1.7.1-3.3,0-5,0-29.8,0-59.6,0-89.4,0-2.5,0-5,0-7.4.8-6.9,2.1-10.2,7.4-11.8,14.1-2.4,10.3-4.9,20.6-7.3,30.9-2.1,9.1-4,18.2-6.2,27.3-2.8,11.9-5.9,23.7-8.7,35.6-2.2,9.5-4.1,19.1-6.2,28.6-.8,3.4-1.9,6.8-2.5,10.3-.9,5,.1,9.6,4.3,12.9,2.7,2.1,5.9,3,9.3,3,5,0,10,.2,15,.5,5.2.3,10.4.8,15.5,1.4,3,.3,5.6,1.5,8,3.2,3.4,2.4,4.7,5.8,3.8,9.9-.4,2-1.2,4-2.1,5.8-15.3,32.3-30.6,64.5-46,96.7-.8,1.7-1.8,3.3-2.6,5-1.4,2.9-3.8,4.4-6.9,4.8-2.1.3-4.1.5-6.2.5-38.3,0-76.7,0-115,0-2.7,0-5.4,0-8.1-.6-6.7-1.3-11.4-5.7-12.5-13.7-.3-2-.1-4.2-.1-6.2,0-107.1,0-214.2,0-321.2,0-3.1.2-6.3,0-9.4-.6-10.9,3.9-19.8,10.6-27.8,1.7-2.1,3.7-4,5.6-5.9,48.6-48.6,97.1-97.3,145.7-145.9,14.9-14.9,29.8-29.7,44.6-44.6,9-9,19.9-11.7,32.1-9.7,6,1,11.6,3.5,16.1,7.7,5.1,4.6,10.2,9.3,15,14.1,35.2,34.9,70.3,69.9,105.5,104.8,19.4,19.2,38.6,38.5,58.1,57.7,5.6,5.5,11.8,10.6,17.4,16.1,2.9,2.9,5.6,6.2,7.9,9.6,3.8,5.6,6,11.8,6.4,18.6.2,4.2.6,8.3.6,12.5,0,104.6,0,209.2,0,313.7,0,3.3-.2,6.7,0,10,.2,7-2.4,12.6-8.1,17.2-.2.4-.2.6-.3.5Z"/>
  <path class="st4" d="M617.9,1462.7c.2-.4.7-.9,1.6-1.3-.2.5-.7.9-1.6,1.3Z"/>
  <path class="st8" d="M757,1347.2c8.2,1.2,15.8,2.1,23.3,3.7,9.9,2.1,19.7,4.8,29.3,8.2,11.1,4,22,8.6,32.7,13.5,10.2,4.6,20.7,8.5,31.6,11.3,6,1.5,12.2,2.3,18.4,2.9,5.6.5,11.2.9,16.8.7,16.6-.6,32.4-4.7,47.5-11.4,11.9-5.3,23.6-11.1,35.4-16.9,14.6-7.1,29.6-13,45.2-17.4,4.4-1.2,9-1.7,13.4-2.6,16.3-3.3,32.7-2.4,49.2-1.5,4.5.3,9.1,1.2,13.5,2.2,20.6,4.4,40,12.1,58.9,21.4,10.1,4.9,20.2,9.7,30.4,14.4,8.1,3.7,16.6,6.5,25.4,8.3,7.1,1.4,14.3,2.9,21.6,2.5,4.4-.3,8.7-.1,13.1,0,6.7,0,13.2-1.6,19.7-3,14.1-3,27.2-8.8,40.2-14.7,12.1-5.4,24.3-10.7,36.8-15.1,9.4-3.3,18.9-6.1,28.6-8.1,10-2.1,20.1-3.2,30.3-3.6,5-.2,10,.1,15,.4,7.9.4,15.8,1.2,23.5,3,7.7,1.7,15.3,3.6,22.6,6.9,1.5.7,2.9,1.5,4.3,2.4,4.1,2.6,4.9,6.4,3.7,10.9-3.8,15.2-9.9,29.4-17.7,43-.4.7-1,1.3-1.7,2.2-1.2-.5-2.2-1.1-3.3-1.5-9.6-4.1-19.4-7-29.8-8.4-10.5-1.4-20.8-.9-31.1.8-10.9,1.8-21.3,5.3-31.4,9.8-11.2,5-22.2,10.2-33.4,15.3-11.7,5.3-23.6,10.1-36.1,13.3-15.5,4-31.3,6.4-47.4,6.4-10.9,0-21.7-.5-32.3-2.5-11.8-2.2-23.4-5.4-34.6-10-13.6-5.6-26.8-12.3-39.9-18.9-9.6-4.8-19.3-9.5-29.7-12.7-7.5-2.3-15.1-4.5-23-5-5.6-.4-11.2-1.3-16.8-1.1-10.4.3-20.6,1.7-30.7,4.4-12.7,3.4-24.5,9-36.3,14.6-12.9,6.2-25.5,13-38.8,18.2-9.8,3.9-19.9,7-30.2,9.4-13.9,3.3-28,3.7-42.1,3.7-9,0-17.9-1.1-26.7-2.6-8.4-1.4-16.6-3.6-24.7-6.2-17.5-5.4-33.9-13.4-50.5-20.8-8.9-4-18-7.5-27.5-9.9-9.5-2.4-19.2-3.8-29-4.2-1.6,0-3.4-.2-4.8-.9-2-1.1-3.5-2.9-3.8-5.4-.2-2.1-.5-4.1-.7-6.2-.8-12.7.2-25.4.6-38.1.1-4,1.8-5.5,6-5.5,5.4,0,10.8.3,16.8.5Z"/>
  <path class="st13" d="M1122.3,958.2c-.4-1.6-.6-2.7-1.1-4-.4-.9-.5-1.5-.8-2.6-.2-.4-.5-.8-.5-.8h-.4s0,0-.1-.2c-1.9-5.1-5.9-8.1-10.4-10.3-3.3-1.7-6.9-2.5-10.8-2.5-32.7.1-65.4.2-98,0-8.8,0-19.4,5.6-23.3,16.6-.5,1.3-.7,2.8-.7,4.3-.2,3.9-.2,7.9-.2,11.9,0,69.9,0,139.9,0,209.8,0,2.1,0,4.2.1,6.7-8.5,6-17.9,9.1-27.4,11.9-7.2,2.1-14.5,3.8-21.9,4.7-10.7,1.3-21.5,2.5-32.4,1.8-6.4-.4-12.9-.7-19.3-1.5-5.8-.7-11.4-2.2-17.1-3.2-7.4-1.3-14.5-3.5-21.7-5.5-7.8-2.2-15.4-5-22.9-7.9-14.9-5.8-29.4-12.5-43.2-20.7-9.5-5.6-18.5-12-26.9-19.1-1.1-.9-2.1-2-3.3-2.9-5.3-4.2-7.1-9.5-7.1-16.3.2-92.3.1-184.6,0-276.9,0-10.6,3.4-19.4,10.9-26.8,24.1-23.9,48-48,72-72,58.5-58.5,116.9-116.9,175.5-175.3,11.1-11,22.5-21.6,33.7-32.5,4.8-4.6,10.4-8,16.7-9.2,11.2-2.2,21.8-1,30.5,7.9,17.4,17.7,35,35.1,52.5,52.6,39.9,39.9,79.8,79.8,119.7,119.7,35.5,35.5,71,71,106.5,106.4,3.7,3.7,7.1,7.6,10.1,12.7.6.9.9,1.2,1.2,1.5,0,0,0-.1,0,.3.3,1.7,0,3.3,1.5,4.1.2,1.5.5,3,.9,4.9.1,13.5,0,26.6,0,39.7,0,92.6,0,185.2,0,277.8,0,2.7,0,5.4,0,8.1,0,2.9-.6,3.7-3.3,4.4-9.2,2.4-18.2,5.4-27.1,9-7.3,3-14.7,5.7-22,8.6-10.3,4-20.7,7.2-31.6,9.2-15,2.9-30,3.6-45.3,1.9-15.7-1.7-30.3-6.6-44.7-12.6-11.9-4.9-23.6-10.2-35.5-14.9-8.5-3.3-17.2-5.8-25.8-8.7-2-.7-3.9-1.4-6.3-2.2-.4-60.8-.4-121.4-.4-182.1,0-8.5,0-17-.3-26.1Z"/>
  <path class="st7" d="M1363.6,840.6c-1.4-.4-1.2-1.9-1.5-3.6.2-.4.5-.5,1-.5.4,1.2.4,2.4.5,4.1Z"/>
  <path class="st7" d="M1362.1,836.3c-.3,0-.6-.3-.9-.9.3,0,.6.3.9.9Z"/>
  <path class="st8" d="M1487.9,1289c-.6,1.2-1.3,1.9-2.1,2.9-1.1.7-2.1,1-3.1,1.4-2.9,1.1-5.6,1-8.5-.2-6.3-2.5-12.7-5-19.2-7.1-9.3-3.1-18.9-4.6-28.8-4.9-9-.2-17.9.4-26.7,2.2-10.5,2.3-20.8,5.7-30.6,10.2-12.3,5.6-24.5,11.2-36.9,16.6-10.3,4.5-20.9,7.8-31.8,10.6-9.5,2.4-19.2,4-28.9,4.8-11.8,1-23.7,1.4-35.5-.8-4.7-.9-9.5-1.1-14.2-2.1-8.6-1.8-16.9-4-25.2-6.8-15-5.1-29.1-12.1-43.1-19.3-10.5-5.4-21-10.8-32.3-14.5-15.6-5.1-31.5-7.7-47.9-6.3-15.2,1.3-29.8,5.3-43.6,11.9-12.9,6.2-25.7,12.5-38.7,18.7-12,5.7-24.4,10.5-37.3,13.7-15.1,3.9-30.5,6.3-46.2,6.4-11.1,0-22.1-.6-33-2.5-12.7-2.1-25.1-5.5-37.2-9.9-15.1-5.4-29.4-12.4-44.1-18.8-9.9-4.3-20.2-7.7-30.7-9.9-6.5-1.3-13.2-1.7-19.8-2.4-1.9-.2-3.7-.3-5.4-1.4-1.9-1.2-2.9-2.7-3.2-5-1.3-10.2-1.4-20.3-1.1-30.5.2-5,.7-10,1.1-14.9.2-2.7,1.5-4.1,4.3-4.6,1.6-.3,3.3-.2,5-.2,9.6.1,19.2,1.1,28.5,2.8,16.1,3,31.9,7.3,47.1,13.6,4,1.7,8,3.3,12.5,5,.5,0,.5,0,.7.3.9.5,1.6.8,2.3,1,.7.3,1.4.7,2.5,1.1,1.3.5,2.1,1,3.4,1.4,1,.5,1.6,1.1,2.4,1.5,10.9,4.7,22,8.7,33.6,11.1,7.3,1.5,14.7,2.6,22.3,2.6,10.6,0,21.3,0,31.7-2.4,10.5-2.4,20.9-5.4,30.7-10,12-5.6,24-11.2,36.1-16.7,8.9-4.1,17.8-7.9,27.1-10.9,9.7-3.2,19.4-5.9,29.5-7.5,13-2.2,26-2.5,39.2-1.9,20.8.9,40.5,6.3,59.5,14.6,12,5.2,23.6,11.2,35.4,16.9,10.4,5.1,21.1,9.7,32.3,12.9,4.8,1.4,9.7,2.2,14.5,3.2,8.9,1.9,17.8,1.6,26.7,1.6,6.9,0,13.6-1.5,20.3-2.9,15.7-3.4,30.2-10.1,44.8-16.6,10.6-4.7,21.2-9.4,32.2-13.1,8.4-2.9,17-5.1,25.7-7,5.5-1.2,11.1-1.6,16.6-2.8,2.4-.5,5-.7,7.4-.7,9,0,17.9-.4,26.8,0,6.8.4,13.6,1.6,20.3,2.9,5.9,1.1,11.7,2.8,17.4,4.5,4,1.2,7.8,2.8,11.3,5.1,2.4,1.6,4.1,3.5,4.2,6.5.2,3.7.7,7.5.4,11.2-.9,11.6-.9,23.3-1,35.5Z"/>
  <path class="st17" d="M1384.6,526.6c-.3-.4-.5-.7-1-1.1-1-1.1-1.9-2.1-3-3.2-4.2-4.2-8-8.3-12-12.3-58.4-58.5-116.8-117-175.2-175.5-42.5-42.6-85.1-85.1-127.7-127.7-.6-.6-1.2-1-2.2-1.8-1,.9-1.9,1.7-2.8,2.5-43.2,43.1-86.4,86.2-129.6,129.3-2.9,2.9-6.1,5.7-9,8.7-5.4,5.5-10.8,11-16,16.6-5,5.4-10.2,10.4-17,13.4-5.2,2.3-10.5,4-16.2,3.7-3.1-.1-6.2-.2-9.9-.3-.8-.4-1.1-.6-2.1-1-2-.7-3.4-1.1-4.7-1.5-1.9-1.2-3.9-2.3-5.7-3.6-12.1-8.7-16.6-20.9-15.4-35.4.9-11,6-20.2,13.7-28,21.7-21.8,43.5-43.7,65.4-65.3,36-35.6,72.1-71,108.1-106.5,3.8-3.8,7.5-7.8,11.2-11.7,5.2-5.6,11.2-10.1,18.6-12.1,13-3.4,25.2-1.5,35.8,7.2,1.4,1.2,2.8,2.5,4.1,3.8,38.9,37.7,77.7,75.4,115.8,113.8,29.7,30,59.7,59.8,89.6,89.7,42.8,42.8,85.8,85.6,128.6,128.5,16,16.1,31.8,32.4,47.7,48.5,5.2,5.2,9.7,10.8,12.6,18.1.2.9.2,1.5.2,2.9.5,2.2.9,3.5,1.4,4.9.1,5.2.3,10.4.3,15.6,0,209.2,0,418.4,0,627.6,0,1.9,0,3.7.1,6.2-.8.8-1.6,1-2.9,1.3-1.4,0-2.3-.2-4-.5-1.4-.3-2.1-.4-2.7-.5-1.5-.4-3-.8-5.3-1.4-1.6-.5-2.6-.7-3.5-.9-1-.3-2-.5-3.7-1-1.3-.4-1.9-.6-2.4-.7-1.5-.3-3-.6-5.1-1.2-1.2-.4-1.8-.5-2.4-.6-1.5-.3-2.9-.6-5.2-1.2-1.7-.4-2.6-.6-3.4-.8-2.3-.3-4.6-.6-7.7-1.2-2.2-.4-3.5-.5-4.9-.6-6.7-1.2-13.4-.9-20.7-1-.7-2.3-.8-4.6-.8-6.9,0-200.5,0-401.1,0-601.6,0-.6,0-1.3,0-1.9.4-3.3-.7-5.9-3.2-8.3-8.2-8-16.2-16.1-24.7-24.5-.4-.2-.6-.4-.7-.5Z"/>
  <path class="st9" d="M856,376.7c1.4.1,2.8.5,4.4,1.2-.4.5-1.2.6-2.5.8-.8-.4-1-.7-1.6-1-.3-.1-.3-.7-.3-1Z"/>
  <path class="st5" d="M517.7,506.4c-39.5.3-78.6.4-117.7.4-80.5,0-161-.2-242.1-.2-2.6-.4-4.6-1.1-6.6-1.3-12.3-1.6-19.7-9.1-24-20.1-3.5-8.8-3.2-18.1-1.9-27.1.9-5.7,3.1-11.2,7.1-15.7,5.6-6.5,13.1-9.3,21.4-10.2,2.3-.2,4.6-.1,6.9-.1,117.9,0,235.8,0,353.7,0,6.4,0,12.4,1.2,17.9,4.5,6,3.6,9.9,8.9,12.2,15.3,3.4,9.4,3.8,19.2,2,28.9-1.4,7.6-5.6,13.8-12,18.3-4.3,3-8.9,5.4-14.1,6.3-.8.1-1.6.5-2.7,1.1Z"/>
  <path class="st15" d="M1488,531c-.7-1.1-1.2-2.5-1.5-4.2.6,0,1.1.3,1.8.8.2,1.2.1,2.2-.3,3.5Z"/>
  <path class="st15" d="M1434.9,1171.5c1.1-.2,2.5-.1,4.2.3-1.1.8-2.6,1.1-4.2-.3Z"/>
  <path class="st15" d="M1478.5,1181.2c.6-.2,1.2,0,2.2.3-.6,1.3-1.4,1-2.2-.3Z"/>
  <path class="st15" d="M1469.9,1178.9c.8-.1,1.7,0,2.8.6-.8.6-1.8.6-2.8-.6Z"/>
  <path class="st15" d="M1447.5,1173.3c.7,0,1.5,0,2.6.5-.7,0-1.5,0-2.6-.5Z"/>
  <path class="st15" d="M1463.7,1177.1c.4-.1,1,0,1.7.5-.4.1-1,0-1.7-.5Z"/>
  <path class="st15" d="M1456.1,1175.3c.4-.2,1.1,0,1.8.3-.4.2-1.1,0-1.8-.3Z"/>
  <path class="st10" d="M834.6,1248.6c-.5,0-1.1-.2-2.1-.7.5,0,1.2.2,2.1.7Z"/>
  <path class="st7" d="M1119.5,951c0-.2.4-.2.4-.2,0,0,.2.4.1.5s-.4-.1-.5-.3Z"/>
  <g>
    <path class="st1" d="M1730.2,70.1h142.9c141.7,0,176.2,73.4,176.2,197.4v256.2c0,102.1-17.5,214.4-176.4,214.4h-142.7V70.1ZM1833.2,650.4h33c67.7,0,78.1-43.6,78.1-112.7v-278.3c0-61.4-10.8-100.7-78.7-100.7h-32.4v491.7Z"/>
    <path class="st1" d="M2398.4,632.1c0,32.6.1,86.3,2,106h-94.1c-2.1-9.7-5.8-30.6-6.6-38-17.6,31.7-45.6,46-85.4,46-77.8,0-109.2-72.1-109.2-150.2v-9c0-127.5,85.9-161.4,179.2-161.4h11.9v-66.1c0-40.6-4.8-63.4-36.2-63.4s-37.6,23.8-37.6,55.9v8.4h-101.3v-6.7c0-74.9,28.8-141.2,142.5-141.2s134.9,55.1,134.9,138.7v280.9ZM2298,503.4h-17.2c-47,0-77.9,17.8-77.9,82.3v8.1c0,36.5,13.2,62.5,45.4,62.5s49.7-23.8,49.7-93.6v-59.3Z"/>
    <path class="st1" d="M2486,370.5c0-103,0-126.7-1-150h98.4c2.9,15.8,2.9,27.8,3.8,45.6,18.2-34.9,49.3-53.6,90.9-53.6s70.3,18.4,82.9,55.8c18.3-28.7,45.2-55.8,99.4-55.8s102.2,28.3,102.2,129.5v396.1h-103v-377.3c0-36.1-9.5-55.9-38.5-55.9s-44.8,28.1-44.8,79.1v354.1h-103.9v-374.8c0-47.2-14-58.4-38.8-58.4-36.8,0-44.6,28.3-44.6,77.7v355.6h-103v-367.6Z"/>
    <path class="st1" d="M3317.4,632.1c0,32.6.1,86.3,2,106h-94.1c-2.1-9.7-5.8-30.6-6.6-38-17.6,31.7-45.6,46-85.4,46-77.8,0-109.2-72.1-109.2-150.2v-9c0-127.5,85.9-161.4,179.2-161.4h11.9v-66.1c0-40.6-4.8-63.4-36.2-63.4s-37.6,23.8-37.6,55.9v8.4h-101.3v-6.7c0-74.9,28.8-141.2,142.5-141.2s134.9,55.1,134.9,138.7v280.9ZM3217,503.4h-17.2c-47,0-77.9,17.8-77.9,82.3v8.1c0,36.5,13.2,62.5,45.4,62.5s49.7-23.8,49.7-93.6v-59.3Z"/>
    <path class="st1" d="M3694.1,709.2c0,114.8-11.1,210.4-158.5,210.4s-144-77.3-144-134.7v-2.1h103.1v2.2c0,14.1,5.2,49.5,46.4,49.5s49.9-32.8,49.9-98.1v-56.5c-13.1,28.7-41.8,47.6-85.2,47.6-94.3,0-115-73.3-115-162.2v-195.5c0-70.4,26.5-157.3,125.8-157.3s76.8,25.4,85.4,53.6c0-15.6,2.9-37,4.8-45.6h89.2c-1,31.9-2,74.8-2,129.3v359.4ZM3494.1,376.1v181.7c0,52.6,12.3,79.1,45.8,79.1s51.4-34.6,51.4-98v-151.6c0-44.1-4.5-82.5-46.1-82.5s-51.1,21.1-51.1,71.3Z"/>
    <path class="st1" d="M3866.3,506.7v76c0,40,9.2,76.5,48.4,76.5s46.1-36.7,46.1-73.9v-2.5h100.4v2.4c0,54.3-11.6,160.9-144.1,160.9s-151.1-81.6-151.1-186.3v-169.6c0-70.8,22.3-177.7,150.6-177.7s146.5,74.5,146.5,176.9v117.3h-196.7ZM3964.4,426v-53c0-47.9-11-73.7-48-73.7s-49.2,23.5-49.2,73.9v52.9h97.2Z"/>
    <path class="st1" d="M1801.2,1291.4v41.3c0,49.7,14.9,77.4,54.1,77.4s50.5-38,50.5-81.4c0-71.8-15.5-94.1-87.1-150.6-71.9-56.8-110.3-93-110.3-191.9s26.6-176.9,147.2-176.8c123.3.1,142.3,88,142.3,160.5v35.7h-102.1v-32.9c0-46.5-7.8-74.7-42.1-74.7s-42.3,29.1-42.3,73.4,9,70.3,67.7,113.3c100,73.9,130.6,116.8,130.6,228.6s-33.2,184.6-157.9,184.6-153.7-78.7-153.7-166.7v-39.6h103Z"/>
    <path class="st1" d="M2354.1,1316.2v7c0,93.4-23.6,172.9-144.1,172.9s-141.1-79.9-141.1-186.8v-177.6c0-84.5,28-169.2,146-169.2s139.2,91.7,139.2,155.8v19.4h-101.4v-21.8c0-39.8-6.4-66.5-39.7-66.5s-40.9,23.7-40.9,67.3v224.3c0,35.9,6.6,68.3,40.7,68.3s39.9-26.2,39.9-68.5v-24.6h101.4Z"/>
    <path class="st1" d="M2697.4,1382.1c0,32.6.1,86.3,2,106h-94.1c-2.1-9.7-5.8-30.6-6.6-38-17.6,31.7-45.6,46-85.4,46-77.8,0-109.2-72.1-109.2-150.2v-9c0-127.5,85.9-161.4,179.2-161.4h11.9v-66.1c0-40.6-4.8-63.4-36.2-63.4s-37.6,23.8-37.6,55.9v8.4h-101.3v-6.7c0-74.9,28.8-141.2,142.5-141.2s134.9,55.1,134.9,138.7v280.9ZM2597,1253.4h-17.2c-47,0-77.9,17.8-77.9,82.3v8.1c0,36.5,13.2,62.5,45.4,62.5s49.7-23.8,49.7-93.6v-59.3Z"/>
    <path class="st1" d="M2785,1130.1c0-105.2,0-136.2-1-159.7h98.4c1.9,11.9,3.8,32.2,3.8,47.1,15-30,42.7-55.1,95.4-55.1s106.3,38.2,106.3,136v389.6h-103v-370.2c0-46.7-16.1-63.1-44.5-63.1s-52.3,19.5-52.3,89.8v343.5h-103v-357.9Z"/>
    <path class="st1" d="M3174,1130.1c0-105.2,0-136.2-1-159.7h98.4c1.9,11.9,3.8,32.2,3.8,47.1,15-30,42.7-55.1,95.4-55.1s106.3,38.2,106.3,136v389.6h-103v-370.2c0-46.7-16.1-63.1-44.5-63.1s-52.3,19.5-52.3,89.8v343.5h-103v-357.9Z"/>
    <path class="st1" d="M3649.3,1256.7v76c0,40,9.2,76.5,48.4,76.5s46.1-36.7,46.1-73.9v-2.5h100.4v2.4c0,54.3-11.6,160.9-144.1,160.9s-151.1-81.6-151.1-186.3v-169.6c0-70.8,22.3-177.7,150.6-177.7s146.5,74.5,146.5,176.9v117.3h-196.7ZM3747.4,1176v-53c0-47.9-11-73.7-48-73.7s-49.2,23.5-49.2,73.9v52.9h97.2Z"/>
    <path class="st1" d="M3915,1145.8c0-85.9.9-122.6-1-175.4h97.6c1,10,2.9,56,2.9,83.8,20.5-70,66-91.3,114.1-91.6v127c-59.1.1-110.6,15.1-110.6,121.2v277.2h-103v-342.2Z"/>
  </g>
</svg>