<?xml version="1.0" encoding="UTF-8"?>
<svg id="Layer_1" data-name="Layer 1" xmlns="http://www.w3.org/2000/svg" viewBox="0 0 1469.01 1448.2">
  <defs>
    <style>
      .cls-1 {
        fill: #fff;
      }

      .cls-2 {
        fill: #283a46;
      }
    </style>
  </defs>
  <path class="cls-1" d="M193.55,0c.48.6.43,1.01.01,2.06-7.45,2.11-14.63,2.92-21.82,3.64-1.22.12-2.4.62-3.6.89-2.42.56-4.84,1.1-7.26,1.62-2.43.52-4.93.79-7.28,1.54-7.29,2.31-14.59,4.63-21.78,7.26-5.84,2.14-11.67,4.41-17.22,7.2-7.39,3.72-14.56,7.87-21.7,12.07-13.49,7.94-25.07,18.36-36.49,28.91-4.24,3.93-8.16,8.33-11.59,12.98-5.02,6.83-10.57,13.3-14.78,20.73-3.27,5.78-6.9,11.35-10,17.22-4.36,8.27-7.78,16.98-10.93,25.78-1.6,4.48-2.72,9.15-4.59,13.51-1.27,2.97-1.96,5.87-1.92,9.03-.52,0-1.04-.01-1.98-.43-.49-.67-.56-.93-.63-1.19.08-.87.15-1.74.65-3.23.6-1.53.77-2.44.94-3.34.23-1.18.46-2.36,1.2-4.17.58-1.12.65-1.61.71-2.1.48-5.04,2.72-9.57,4.5-14.17,7.97-20.68,18.8-39.78,32.74-57.03,16.79-20.78,36.91-37.7,60.24-50.74,14.51-8.12,29.76-14.46,45.72-19.26,9.56-2.88,19.3-4.79,29.03-6.8,5.67-1.17,11.52-1.46,17.82-1.96Z"/>
  <path class="cls-1" d="M1360.28,508.72c.04.21.08.42.4,1.4,6.72,6.82,13.45,13.63,20.16,20.47,6.76,6.87,5.64,4.42,5.65,13.51.03,120.82.02,241.64.02,362.46,0,78.53,0,157.07,0,235.6,0,2.08.03,4.16.1,6.24.06,1.52,1.21,2.04,2.63,3.39.45.4.89,1.15,1.35,1.15,5.2.05,10.32.73,15.47,1.4,4.92.65,9.97.54,14.81,1.52,8.51,1.73,16.9,4.06,25.35,6.12,4.62,1.12,9.25,2.23,13.9,3.24.41.09.99-.61,2.37-.88,1.72,0,3.61.29,4.6-3.01.19-2.47.56-4.93.56-7.4.03-208.38.02-416.76.02-625.13,0-3.33.08-6.66-.03-9.99-.12-3.7-.74-7.31-2.41-11.7-.02-1.74-.05-3.48-.4-6-2.06-3.36-3.63-7.17-6.27-9.99-5.82-6.22-11.38-12.7-17.38-18.72-76.93-77.13-154-154.13-231.02-231.17-16.35-16.35-32.58-32.82-49.08-49.02-16.48-16.18-32.31-33-49.47-48.51-15.12-13.66-28.58-29.07-43.87-42.61-5.79-5.12-12.05-8.71-19.44-10.5-2.4-.58-4.87-.87-7.33-1.18-5.58-.69-10.6,1.46-15.75,3.06-5.1,1.59-9.36,4.38-13.09,8.12-5.44,5.46-10.89,10.91-16.34,16.36-5.45,5.45-10.91,10.89-16.36,16.34-5.45,5.45-11.04,10.77-16.31,16.38-5.25,5.59-11.48,10.17-16.3,16.18-.51.64-1.21,1.14-1.84,1.68-2.06,1.74-4.27,3.31-6.17,5.21-38.33,38.26-76.64,76.54-114.89,114.88-2.92,2.93-5.77,6.05-7.98,9.52-2.53,3.97-5.4,7.93-5.85,12.92-.07.8-.4,1.64-.81,2.34-1.44,2.45-1.43,5.11-1.62,7.84-.28,4.04.55,7.89,1.56,11.68,2.07,7.74,5.53,14.77,11.77,20.1,1.57,1.34,3.49,2.32,4.9,3.81,1.93,2.05,4.21,2.51,7.06,2.89.24.34.55.58,1.46,1.38,1.55.55,3.1,1.11,5.7,1.73,2.65.43,5.3,1.21,7.95,1.22,11.31.04,21.18-4.07,29.38-11.66,7.46-6.91,14.45-14.34,21.64-21.54,44.63-44.62,89.26-89.25,133.89-133.87,1.47-1.47,2.9-2.99,4.43-4.4.87-.8,1.91-1.43,3.15-2.33,1.99,1.93,3.79,3.63,5.54,5.38,86.9,86.89,173.79,173.79,260.68,260.7,2.93,2.93,5.99,5.72,8.3,9.28,1.2,1.85,3.25,3.16,4.97,4.67,1.24,1.09,2.59,2.07,3.84,3.15,4.07,3.51,6.49,8.65,11.33,11.39.17.1.29.3.41.47,4.26,6.53,10.58,11.14,15.73,16.84,1.35,1.5,3,2.18,5.09,3.02.05,1.67.8,2.68,2.82,3.29.24.34.57.57,1.03,1.3M379.76,767.37s.14.32-.38,1.03c.26.75.51,1.5.89,3.11.82,1.17,1.51,2.47,2.49,3.49,3.17,3.3,6.46,6.5,9.69,9.75,8.26,8.31,17.61,15.03,28.3,19.95,6.04,2.78,12.08,5.31,18.61,6.8,6.88,1.57,13.63,3.62,20.83,2.94,1.38-.13,2.83.52,4.26.73,1.01.15,2.18.52,3.05.19,4.06-1.5,8.24-.79,12.37-1,1.65-.09,3.34-.12,4.93-.51,9.65-2.34,19.14-5.01,28.25-9.22,6.67-3.09,12.54-7.25,18.65-11.13,6.05-3.84,10.52-9.41,15.57-14.34,5.95-5.81,11.12-12.23,15.62-19.28,7.57-11.84,12.81-24.61,16.27-38.16.82-3.2,1.6-6.43,1.99-9.7.68-5.54.98-11.13,1.55-16.69.43-4.21-.7-8.24-1.27-12.34-.74-5.32-1.5-10.64-2.5-15.91-1.62-8.57-4.24-16.88-7.46-24.95-2.92-7.32-6.54-14.32-10.35-21.26-5.96-10.86-13.85-20.14-21.95-29.3-5.24-5.92-11.26-11.03-17.77-15.55-.79-.55-1.31-1.48-2.22-2.54,1.52-.93,2.64-1.87,3.94-2.36,8.52-3.18,16.99-6.48,25.15-10.5,9.3-4.59,18.74-8.95,27.75-14.04,13.9-7.85,27.74-15.88,40.5-25.56,5.6-4.25,12.1-7.31,16.78-12.78.52-.61,1.37-.93,2.03-1.43,6.74-5.18,13.29-10.58,19.5-16.41,2.57-2.41,5.38-4.54,7.97-6.93,1.67-1.54,3.18-3.28,4.69-4.99,1.09-1.24,1.99-2.65,3.12-3.86,5.54-5.91,11.68-11.21,16.59-17.75,4.23-5.62,9.09-10.76,13.54-16.22,3.14-3.86,6.62-7.59,8.94-11.92,4.43-8.25,10.31-15.53,14.8-23.76,6.28-11.51,12.12-23.2,17.04-35.34,2.96-7.3,5.34-14.81,7.97-22.23,2.58-7.26,4-14.75,5.73-22.19.98-4.23,1.69-8.51,2.56-12.77,1.33-6.49,2.45-13,2.44-19.67-.01-4.13.06-8.22.83-12.38.82-4.42.65-9.19-.04-13.66-.48-3.1-.99-6.18-.76-9.25.55-7.32-.59-14.56-1.68-21.67-1.46-9.58-3.86-19.05-6.42-28.42-2.96-10.82-6.92-21.38-11.96-31.39-5.12-10.15-10.45-20.26-17.55-29.26-5.01-6.35-9.5-13.09-15.53-18.62-6.58-6.03-12.38-12.87-19.55-18.32-10.11-7.7-20.88-14.34-32.38-19.56-7.67-3.48-15.17-7.87-23.9-8.58-4.65-2.53-9.85-3.12-14.91-4.15-8.73-1.77-17.44-3.42-26.45-3.2-11.86.29-23.74.17-35.61.04-7.94-.09-15.66,1.3-23.37,2.89-1.01.21-1.98.75-2.99.81-7.53.47-14.57,3.02-21.74,5-9.63,2.65-18.68,6.79-27.7,11-2.61,1.22-5.15,2.62-7.61,4.12-3.51,2.13-6.86,4.52-10.38,6.64-5.89,3.55-11.45,7.48-16.29,12.41-4.96,5.05-10.01,10.02-15,15.04-1.17,1.18-2.48,2.29-3.39,3.65-4.16,6.19-9.01,11.86-12.7,18.42-6.12,10.88-11.38,22.07-14.92,34.06-1.88,6.37-3.22,12.85-4.07,19.4-.75,5.73.37,11.65-1.39,17.33.6,7.63,1.13,15.26,1.83,22.89.57,6.22,2.65,12.11,4.3,18.09,2.15,7.83,5.2,15.32,9.11,22.44.47.85,1.44,1.43,2.22,3.06.63,3.6,2.85,6.48,4.86,9.25,6.81,9.41,14.05,18.45,22.43,26.63,7.7,7.51,16.48,13.24,25.77,18.33,7.65,4.2,15.67,7.38,24.31,9.31,7.32,1.64,14.57,3.04,22.07,3.01,4.37-.01,8.76-.2,13.12.05,4.85.27,9.58-.74,14.14-1.82,8.67-2.05,17.12-4.96,25.12-9.07,4.64-2.39,8.91-5.32,13.39-7.93,4.7-2.74,8.96-5.98,12.78-9.84,4.25-4.29,8.59-8.5,12.8-12.82,6.75-6.94,12.07-14.82,14.97-24.12,1.74-5.58,2.45-11.26,1.07-17.16-2.07-8.84-6.54-16.08-13.39-21.93-4.6-3.93-9.7-7.19-15.45-8.95-11.17-3.43-21.8-1.14-31.74,4.46-5.11,2.88-9.21,7.07-12.61,11.87-4.42,6.23-10.8,9.85-17.78,11.99-5.48,1.68-11.23,2.1-17.15.49-4.67-1.27-9.09-2.68-13.18-5.27-6.92-4.37-11.53-10.67-15.08-17.83-5.33-10.76-7.09-21.99-4.16-33.81,1.56-6.29,3.73-12.52,7.01-17.92,4.85-8.01,11.96-14.3,19.13-20.35,5.46-4.61,11.89-7.5,18.33-10.36,3.77-1.67,7.56-3.41,11.5-4.57,5.15-1.51,10.59-1.83,15.69-3.66,1.12-.4,2.48-.15,3.72-.19,1.25-.04,2.6.24,3.73-.14,4.88-1.65,9.91-.79,14.86-1.14,8.35-.6,16.55,1.11,24.84,1.38,1.21.04,2.4.61,3.59.96,1.39.41,2.76,1.11,4.17,1.24,5.04.45,9.71,2.09,14.3,4.04,4.39,1.86,9.01,3.44,12.98,5.98,6.45,4.14,12.54,8.89,17.58,14.79,1.48,1.73,2.63,3.77,4.23,5.36,5.56,5.53,8.76,12.59,12.49,19.25,2.61,4.65,4.32,9.83,6.26,14.84.82,2.11,1.22,4.38,1.82,6.57.38,1.39.66,2.82,1.19,4.15,1.54,3.89,2.02,8,2.55,12.09.21,1.64.02,3.37.46,4.94,1.68,6.06,1.93,12.22,2.15,18.47.26,7.53-1,14.89-1.46,22.34-.22,3.49-.74,7.01-1.57,10.41-2.39,9.84-4.25,19.84-8.12,29.27-1.18,2.88-2.55,5.69-3.67,8.59-4.06,10.5-9.46,20.32-15.45,29.77-5.09,8.03-10.2,16.08-16.59,23.26-5.09,5.72-9.65,11.92-15.12,17.33-3.11,3.08-6.18,6.19-9.28,9.27-3.54,3.53-6.89,7.28-10.68,10.52-6.14,5.25-12.43,10.33-18.9,15.17-7.13,5.34-14.32,10.64-21.85,15.37-6.09,3.83-12.28,7.55-18.68,10.9-5.89,3.08-11.64,6.45-17.62,9.34-5.95,2.88-12.07,5.45-18.2,7.94-8.65,3.51-17.41,6.75-26.07,10.25-7.14,2.88-14.58,4.73-21.95,6.83-6.37,1.81-12.83,3.31-19.29,4.75-7.45,1.66-14.91,3.29-22.46,4.51-2.24.36-4.57.27-6.78.77-5.49,1.23-10.97,2.23-16.63,1.9-1.65-.1-3.45-.21-4.95.32-2.86,1.03-5.74.83-8.64.91-1.66.05-3.46-.23-4.96.3-3.06,1.08-6.16.89-9.26.91-6.04.04-12.08.01-18.12.04-1.66,0-3.46-.26-4.96.27-3.26,1.15-6.57.93-9.88.93-62.07.02-124.13.05-186.2,0-5.69,0-11.11,1.15-16.49,2.71-2.38.69-4.78,1.54-6.93,2.75-5.88,3.33-10.32,8.38-14.73,13.35-1.89,2.13-3.57,4.8-4.32,7.51-1.64,5.97-3.52,11.97-2.82,18.35.5,4.57,1.49,9,3.53,13.12,2.33,4.71,5.69,8.63,9.53,12.2,6.58,6.11,14.19,9.99,24.29,11.3,55.73,0,111.46.01,167.19.03,25.99,0,51.99.05,78.72.74,2.48.19,5.08-.04,7.4.66,4.1,1.24,8.24.77,12.37,1.08,4.53.33,9.2.43,13.52,1.65,7.75,2.2,15.64,3.84,23.26,6.68,9.98,3.73,19.34,8.44,28.13,14.37,1.89,1.27,3.84,2.52,5.47,4.09,4.64,4.47,9.62,8.72,13.56,13.77,6,7.67,10.91,16.01,13.83,25.55,1.66,5.44,2.43,10.9,2.84,16.4.52,7.07-1.19,13.87-3.5,20.64-2.11,6.17-5.55,11.2-10.46,15.14-6.04,4.85-12.52,9.03-20.93,7.98-1.64-.21-3.33.01-4.99-.05-1.03-.04-2.14-.03-3.07-.41-7.44-3.02-14.29-7.14-18.86-13.82-3.85-5.62-7.18-11.64-9.26-18.28-2.17-6.92-4.83-13.64-8.2-20.12-5.17-9.95-13.87-15.16-23.95-18.49-7.08-2.34-14.39-1.99-21.47.1-7.12,2.1-13.23,5.91-17.61,12.12-.6.85-1.17,1.72-1.82,2.52-4.69,5.68-6.59,12.41-6.97,19.57-.5,9.38.24,18.63,4.04,27.43,1.81,4.19,3.36,8.49,5.13,12.7,2.91,6.94,7.1,13.16,11.17,19.43.69,1.06,1.82.69,2.87.33,0,0,.16.1-.31,1.03.23,1.2.46,2.4.7,3.6.61,3.16,2.74,3.87,6.15,3.67.16.38.32.76.02,1.35-.05.16-.1.32-.16.48.29-.13.58-.26,1.16-.18M1096.45,936.28s.03.52,0,1.71c0,67.07.02,134.14.02,201.22,0,1.67-.13,3.35.07,4.99.11.95.75,1.84,1.28,3.65.62.79,1.07,1.88,1.88,2.31,1.45.77,3.1,1.18,4.68,1.67,5.94,1.85,12.02,3.34,17.82,5.57,10.8,4.16,21.73,8.03,32.18,13.1,4.84,2.35,10.12,3.77,14.99,6.06,9.63,4.54,19.69,7.69,30.06,9.83,8.51,1.75,17.04,3.52,25.86,3.04,4.78-.26,9.58-.04,14.37-.06,1.25,0,2.55.15,3.73-.16,8.39-2.17,17.29-2.12,25.33-5.81,6.32-.42,12.01-3.07,17.85-5.16,4.49-1.6,9.06-3.08,13.39-5.07,12.49-5.74,25.59-9.72,38.7-13.66,2.41-.72,4.14-1.71,6.01-4.6.18-2.26.5-4.52.5-6.79.03-104.16.02-208.32.04-312.48,0-6.73-1.04-13.13-4.96-19.73-.31-.98-.4-2.1-.96-2.91-3.07-4.44-6.15-8.84-10.01-12.69-29.06-28.98-58.05-58.03-87.09-87.03-3.08-3.08-5.92-6.42-9.73-8.73-1.2-.73-2.06-2.03-3.02-3.13-1.77-2.03-3.38-4.2-5.26-6.13-4.8-4.92-9.7-9.74-14.56-14.6-4.86-4.86-9.72-9.72-14.58-14.58-4.86-4.86-9.64-9.81-14.61-14.56-4.94-4.72-9.8-9.5-14.48-14.48-3.85-4.09-7.93-7.98-11.91-11.95-34.18-34.18-68.38-68.32-102.47-102.58-3.47-3.48-7.46-6.02-11.75-8.01-8.8-4.07-17.88-2.91-26.69.02-4.91,1.63-9.26,4.63-13.04,8.18-5.01,4.7-9.7,9.75-14.66,14.5-5.1,4.88-10.53,9.42-15.52,14.41-82.83,82.75-165.61,165.55-248.41,248.33-3.83,3.82-7.47,7.69-10.17,12.52-3,5.36-4.99,10.59-4.98,16.99.18,93.75.12,187.5.12,281.24,0,1.25.04,2.5,0,3.75-.09,2.65.81,5.01,2.63,6.81,4.29,4.22,8.21,8.78,13.13,12.4,8.02,5.9,15.97,11.81,24.57,16.93,11.3,6.74,23.1,12.31,35.15,17.42,6.87,2.91,13.99,5.25,21.01,7.82,2.33.85,4.64,1.78,7.03,2.41,7.01,1.84,13.97,3.85,21.02,5.56,5.67,1.37,11.39,1.99,17.07,3.06,4.67.87,9.38,1.88,14.1,2.03,9.96.3,19.94.08,29.92.05.39,0,.78-.32,1.18-.38,3.47-.56,6.93-1.24,10.43-1.61,5.76-.61,11.57-.76,16.95-3.3.72-.34,1.63-.27,2.43-.49,2.59-.72,5.19-1.41,7.74-2.25,2.17-.71,4.21-1.98,6.42-2.37,5.73-1.01,10.37-4.15,15.07-7.2,1.16-.75,1.91-2.13,2.89-4.39,0-2.29.01-4.58.01-6.87,0-72.04.06-144.08-.11-216.12-.01-5.36,1.74-9.77,4.33-14.03,1.62-2.66,3.91-4.96,6.94-6.07,4.66-1.72,9.28-3.29,14.46-3.26,29.56.16,59.13.08,88.7.08,1.04,0,2.1-.12,3.12.02,7.69,1.1,15.28,2.38,20.04,9.66.48.74,1.65,1.04,2.48,2.4,0,1.17.14,2.29,1.28,3.51M815.7,1229.05c-1.81-2-4.48-2.26-7.55-3.71-1.85-.95-3.65-2.04-5.57-2.81-5.76-2.31-11.54-4.6-17.38-6.67-4.28-1.52-8.66-2.8-13.04-3.99-7.99-2.15-16.01-4.08-24.25-5.29-5.93-.87-11.74-2.52-17.82-2.21-1.02.05-2.12-.07-3.06-.43-3.24-1.24-6.6-.84-9.9-.72-5.03.18-8.6,3.54-9.35,8.43-.92,5.95-1.54,11.9-1.34,17.96.29,8.91-.44,17.84,1.24,26.71.96,5.09,3.3,8.32,8.41,9.39,4.84,1.01,9.75,1.94,14.67,2.31,6.23.47,12.17,1.63,18.18,3.47,6.77,2.08,13.4,4.37,19.88,7.18,7.6,3.29,15.11,6.77,22.7,10.07,3.23,1.41,6.7,2.3,9.82,3.9,8.16,4.19,16.98,6.54,25.66,9.17,6.08,1.85,12.22,3.77,18.59,4.58,2.26.29,4.54.48,6.75,1.01,5.67,1.36,11.36,2.35,17.23,1.99,1.66-.1,3.34-.14,4.99.02,3.5.32,6.98,1.1,10.46,1.1s6.97-1.04,10.46-1.06c5.21-.02,10.36-.33,15.45-1.45,1.82-.4,3.63-.82,5.46-1.15,7.92-1.46,15.71-3.44,23.38-5.93,11.23-3.64,22.23-7.84,32.76-13.24,6.82-3.5,13.9-6.48,20.78-9.87,11.93-5.89,23.95-11.48,36.89-14.9,4.63-1.22,9.16-2.62,14.04-2.33,1.43.08,2.88-.27,4.32-.44,2.05-.25,4.1-.72,6.15-.73,6.21-.01,12.48-.59,18.58,1.19,9.3-.13,18.03,2.78,26.61,5.69,11.76,4,22.64,10.1,33.69,15.75,5.87,3.01,11.79,5.93,17.79,8.68,4.33,1.98,9,3.28,13.22,5.46,4.83,2.49,10.08,3.69,15.11,5.49,5.81,2.09,11.99,3.16,18.04,4.56,2.41.56,4.92.7,7.33,1.24,5.48,1.23,10.95,2.12,16.62,1.95,7.49-.22,14.99-.04,22.49-.06,4.56-.01,9.13.27,13.6-1.17,1.96-.63,4.03-1.06,6.07-1.23,7.48-.61,14.7-2.41,21.79-4.7,12.04-3.88,24.08-7.78,35.31-13.76,2.91-1.55,5.94-2.86,8.96-4.21,4.15-1.85,8.44-3.42,12.49-5.46,8.58-4.32,17.69-7.19,26.78-10.12,2.13-.69,4.78-.16,6.66-1.18,3.73-2.02,7.6-1.88,11.54-1.95,1.04-.02,2.17.06,3.08-.32,2.61-1.08,5.32-1.04,8-.88,6.2.36,12.39.87,18.58,1.34.41.03.81.17,1.21.27,3.61.92,7.22,1.83,10.82,2.78,6.22,1.65,12.23,3.92,18.1,6.55,4.3,1.93,8.66,2.61,13.79.23.55-.41,1.09-.81,1.75-1.78,0,0,.1-.57.86-.74,1.23-.3,1.54-1.27,2.68-2.64.44-.65,1.18-1.26,1.28-1.96.21-1.64.09-3.32.15-4.99.27-6.83-.82-13.73,1.17-20.47.23-.77.07-1.66.07-2.49,0-5-.15-10,.05-15,.19-4.66-1.84-8.04-5.43-10.59-2.19-1.56-4.57-2.86-6.92-4.2-5.86-3.33-12.47-4.53-18.86-6.25-4.77-1.28-9.79-1.62-14.6-2.79-2.87-.7-5.68-1.11-8.61-1.06-2.08.04-4.22.3-6.24-.06-5.76-1.04-11.38-.88-17.22-.15-5.71.72-11.58.27-17.32,1.43-4.45.9-8.93,1.71-13.43,2.24-5.21.61-10.02,2.59-15.04,3.86-4,1.01-7.99,2.15-11.84,3.62-8.32,3.18-16.64,6.33-24.72,10.12-6.93,3.25-14.14,5.9-21.13,9.02-9.31,4.16-18.93,7.37-28.79,9.92-2.19.57-4.46.88-6.7,1.25-2.24.37-4.49.62-6.73,1.01-5.52.97-11.06,2.07-16.69,1.43-3.9-.44-7.84-.85-11.69-1.45-8.34-1.29-16.66-2.77-24.76-5.46-12.84-4.26-24.83-10.34-36.95-16.19-6.89-3.33-13.59-7.1-20.64-10.06-9.16-3.85-18.56-7.13-27.9-10.56-1.73-.63-3.61-.84-5.43-1.22-1.41-.3-2.85-.49-4.24-.88-5.79-1.67-11.6-3.15-17.71-2.9-1.23.05-2.47-.25-3.7-.41-2.05-.26-4.09-.75-6.14-.77-7.91-.09-15.83-.06-23.74-.02-1.65,0-3.31.21-4.96.39-2.26.25-4.5.59-6.76.84-1.44.16-2.93.07-4.33.38-5.66,1.26-11.35,2.42-16.92,4.01-5.76,1.64-11.42,3.64-17.07,5.65-9.37,3.34-18.52,7.23-27.51,11.52-6.71,3.21-13.44,6.37-20.19,9.5-3.77,1.75-7.54,3.51-11.39,5.04-9.05,3.6-18,7.55-27.73,9.13-3.26.53-6.45,1.53-9.72,1.93-5.34.65-10.59,2.04-16.06,1.63-3.11-.23-6.25,0-9.37-.06-1.44-.03-2.91-.15-4.32-.42-5.48-1.03-10.92-2.41-16.44-3.16-8.09-1.11-15.66-3.9-23.27-6.58-4.09-1.44-8.09-3.14-12.76-4.76-.21.01-.42.02-1.37-.38M132.61,489.37c81.14.02,162.28.05,243.42.05,39.74,0,79.48-.04,120.17-.07,1.6-.42,3.23-.74,4.79-1.29,6.16-2.18,11.67-5.54,16.22-10.17,6.5-6.6,9.93-14.73,10.42-23.97.24-4.55-.33-9.04-1.04-13.59-1.74-11.25-8.15-19.3-16.38-26.35-.62-.53-1.39-.94-2.16-1.22-4.86-1.78-9.65-3.44-15.04-3.44-119.7.1-239.4.08-359.1.03-3.58,0-7.05.38-10.43,1.38-7.77,2.28-14.19,6.35-18.89,13.28-5.01,7.4-6.29,15.69-6.77,24.15-.4,7.08,1.23,13.85,4.33,20.41,5.94,12.52,15.33,19.75,30.45,20.79M605.7,1436.67c3.94.66,5.61-2.25,7.19-4.87,2.74-4.53,3.84-9.46,3.83-14.86-.09-107.49-.09-214.99.01-322.48,0-5.65-.49-11.22-1.53-16.68-.76-4.01-2.13-8.11-4.17-11.61-2.8-4.81-6.11-9.4-10.27-13.24-5.49-5.07-11.15-9.97-16.44-15.24-30.11-29.99-60.12-60.08-90.19-90.11-2.79-2.78-5.43-5.69-8.83-7.87-1.86-1.2-3.17-3.25-4.72-4.93-2.53-2.74-4.74-5.91-7.67-8.12-3.02-2.28-5.71-4.83-8.35-7.46-17.7-17.66-35.41-35.3-53.01-53.05-3.39-3.42-7.13-6.36-11.03-9.1-6.06-4.25-12.65-7.09-20.33-6.38-1.86.17-3.75.08-5.62.02-2.54-.09-4.83.68-7.25,1.42-6.37,1.95-11.64,5.8-16.26,10.13-7.11,6.66-14.5,13.12-20.35,21.07-1.69,2.3-4.15,4.05-6.3,6.01-1.06.97-2.33,1.75-3.3,2.8-2.38,2.59-4.49,5.45-6.97,7.93-51.67,51.74-103.39,103.42-155.05,155.17-2.92,2.92-5.73,6.08-7.97,9.53-2.25,3.46-4.33,7.26-5.37,11.21-1.09,4.13-1.64,8.47-1.64,12.91.1,110.2.08,220.4.08,330.61,0,.83.01,1.67,0,2.5-.17,9.88,7.11,17.34,15.28,19.75,3.35.99,6.81,1.63,10.43,1.49,6.24-.24,12.5-.07,18.75-.07,31.46,0,62.91-.06,94.37.07,4.19.02,7.93-.93,11.08-3.39,3.42-2.67,6.64-5.68,7.75-10.27.43-1.78,1.49-3.42,2.31-5.11,2.44-5.04,4.95-10.04,7.34-15.1,5.22-11.07,10.34-22.18,15.58-33.24,2.4-5.06,5.03-10,7.46-15.04,4.06-8.41,8.05-16.85,12.07-25.27.99-2.07,2.12-4.07,3-6.18,1.33-3.19,1.67-6.82.1-9.69-2.3-4.2-5.76-7.86-10.68-9.01-6.23-1.45-12.45-3.22-19.01-2.76-3.32.23-6.67-.07-10,.06-4.41.18-8.68-.3-13.26-2.23-.74-1.48-2.15-3.23-2.43-5.16-.42-2.85-.62-5.96.12-8.69,1.51-5.61,2.99-11.17,3.92-16.93.89-5.49,2.72-10.83,4.08-16.25,1.86-7.43,3.72-14.86,5.48-22.32,2.14-9.07,4.11-18.17,6.25-27.23,1.76-7.43,3.68-14.83,5.5-22.24,1.43-5.82,3.14-11.6,4.11-17.5.65-3.94,1.9-7.64,3-11.41.61-2.08,1.89-3.62,3.79-4.75,3.3-1.95,6.87-2.84,10.65-2.84,30.62-.02,61.25-.03,91.87.03,2.03,0,4.13.45,6.07,1.08,5.16,1.66,7.45,6.37,5.62,11.32-.94,2.53-2.01,5.01-3.08,7.49-4.39,10.09-8.84,20.16-13.2,30.27-4.93,11.44-9.82,22.89-14.67,34.36-1.29,3.06-2.34,6.21-3.61,9.28-1.73,4.2-1.43,8.11,1.42,11.74.38.49.76.99,1.08,1.53,2.71,4.53,6.92,6.53,11.98,6.6,7.27.09,14.41,2.04,21.72,1.34.6-.06,1.29.03,1.84.27,2.58,1.15,5.31.87,8,.91,1.87.03,3.77-.12,5.62.1,4.88.58,7.3,3.52,7.34,8.34.02,2.41-.58,4.57-1.98,6.44-3.12,4.14-6.21,8.31-9.58,12.23-4.87,5.66-9.15,11.78-14.24,17.28-4.34,4.69-7.76,10.23-11.94,15.09-6.08,7.08-11.38,14.77-17.59,21.76-6.6,7.42-12.39,15.54-18.64,23.27-5.86,7.25-11.85,14.4-17.78,21.59-4.09,4.96-8.29,9.82-12.23,14.89-3.82,4.91-7.46,9.96-11.91,14.34-.87.86-1.46,2.01-2.13,3.05-3.63,5.61-2.74,11.4,2.41,15.31.8.61,1.82.93,2.75,1.38,2.93,1.44,6.08,1.16,9.2,1.16,73.95,0,147.91,0,221.86,0,1.46,0,2.93.1,4.37-.03,4.4-.39,8.46-1.99,12.38-3.92,1.15-.57.91-1.71.58-2.64,0,0-.02-.17.95.1M1339.83,1329.65c-5.28,1.8-10.63,3.4-15.81,5.44-6.37,2.51-12.65,5.28-18.88,8.12-8.28,3.78-16.46,7.7-25.04,10.88-5.65,2.09-11.41,3.77-17.09,5.72-3.1,1.06-6.43,1.52-9.7,2.05-4.08.65-8.27.78-12.29,1.69-6.83,1.55-13.8,1.44-20.47.46-8.73-1.28-17.53-2.63-26.02-5.61-6.06-2.13-12.19-4.12-18.1-6.62-7.61-3.22-14.99-6.98-22.4-10.63-8.36-4.11-16.55-8.6-25.31-11.81-6.03-2.21-11.96-4.65-18.15-6.48-4.95-1.46-9.69-3.61-14.94-3.97-.6-.04-1.17-.44-1.77-.6-5.4-1.5-10.81-2.93-16.5-2.67-1.03.05-2.17.15-3.1-.2-3.63-1.37-7.39-1-11.12-1.02-5.62-.04-11.25-.03-16.87,0-1.66,0-3.45-.21-4.95.33-2.86,1.02-5.74.8-8.64.94-1.65.08-3.31.27-4.92.61-8.5,1.82-16.88,4-25.23,6.5-8.78,2.63-17.13,6.24-25.49,9.74-9.71,4.07-18.95,9.24-28.41,13.91-4.46,2.2-8.77,4.84-13.44,6.43-8.42,2.87-16.4,7.06-25.29,8.52-1.84.3-3.82.31-5.47,1.05-4.75,2.13-9.72,1.99-14.71,1.96-5.62-.03-11.25.02-16.87-.01-4.15-.02-8.21-.25-12.36-1.07-13.29-2.62-26.05-6.64-38.35-12.29-7.16-3.29-14.49-6.24-21.78-9.24-8.25-3.39-16.57-6.6-25.23-8.86-5.41-1.41-10.76-3.05-16.14-4.56-.59-.17-1.24-.12-1.86-.2-6.14-.86-12.28-1.71-18.42-2.6-2.25-.33-4.47-1.04-6.72-1.11-5.41-.17-10.83-.11-16.25-.05-4.12.05-6.24,1.38-7.42,5.29-1.01,3.34-1.94,6.74-1.88,10.36.14,8.96.14,17.92,0,26.87-.06,4.03.86,7.75,1.96,11.58,1.41,4.92,4.75,7.29,9.28,8.07,4.88.84,9.86,1.29,14.81,1.48,4.8.18,9.44,1.15,14.08,2.11,2.82.58,5.51,1.77,8.26,2.67,2.16.7,4.38,1.25,6.48,2.09,7.1,2.87,14.17,5.8,21.23,8.77,3.64,1.53,7.44,2.83,10.77,4.88,3.93,2.42,8.27,3.86,12.43,5.48,5.16,2.01,10.39,4.01,15.75,5.65,7.5,2.31,14.97,4.69,22.6,6.54,2.6.63,5.31.84,7.92,1.47,4.46,1.08,8.9,1.99,13.54,1.67,1.64-.11,3.44-.19,4.95.33,2.65.93,5.32.86,8.02.87,3.75.02,7.5.05,11.25-.02,1.65-.03,3.3-.26,4.95-.43,2.26-.24,4.53-.82,6.77-.73,4.43.19,8.68-.6,12.93-1.63,1.41-.34,2.81-.75,4.24-.93,7.46-.94,14.53-3.46,21.58-5.79,11.79-3.91,23.06-9.22,34.2-14.68,8.71-4.28,17.26-8.91,26.14-12.85,7.37-3.27,14.73-6.53,22.54-8.75,10.87-3.09,21.86-4.71,33.16-4.21,3.33.15,6.67.16,10,0,10.16-.48,19.7,2.56,29.23,5.35,4.94,1.45,9.68,3.65,14.42,5.72,7.23,3.16,14.59,6.11,21.52,9.84,10.25,5.51,20.51,10.92,31.48,14.86,5.26,1.89,10.48,3.91,15.8,5.62,5.27,1.69,10.42,3.79,15.97,4.54,3.28.45,6.61.82,9.77,1.74,3.27.95,6.53,1.03,9.86,1.14,4.96.17,10-.79,14.86.99.55.2,1.3.24,1.84.05,5.28-1.86,10.74-.96,16.11-1,3.78-.03,7.42-.47,11.09-1.33,4.02-.95,8.07-1.89,12.17-2.38,6.43-.77,12.65-2.59,18.63-4.71,11.1-3.93,22.18-7.99,32.7-13.47,7.51-3.92,15.44-7.06,23.2-10.5,3.97-1.76,8.03-3.3,11.96-5.13,5.89-2.73,12.3-3.68,18.44-5.57,3.72-1.14,7.72-1.88,11.6-1.86,10.78.05,21.65-1.22,32.33,1.19,5.24,1.18,10.44,2.65,15.55,4.3,2.73.88,5.21,2.51,7.86,3.67,2.23.98,3.5.68,4.96-1.1.78-.95,1.35-2.09,2.01-3.14,3.68-5.81,6.49-12.03,9.29-18.31,3.4-7.64,5.75-15.6,8.31-23.49,2.17-6.68-.68-13.48-7.42-16.55-2.64-1.21-5.27-2.52-8.04-3.35-6.33-1.91-12.54-4.17-19.12-5.27-8.78-1.47-17.5-3.38-26.48-3.03-8.91.34-17.89-.95-26.71,1.25-3.83-.45-7.38.96-11.03,1.65-1.01.19-1.98.67-3,.79-8.48,1-16.55,3.59-25.54,6.58Z"/>
  <path class="cls-1" d="M1.23,167.03c.22-.09.2.52.17.83-.23.09-.46-.12-.62-.36-.03-.05.15-.25.45-.47Z"/>
  <path class="cls-1" d="M598.13,1441.44c.48,1.01.72,2.16-.44,2.73-3.92,1.93-7.97,3.53-12.38,3.92-1.45.13-2.91.03-4.37.03-73.95,0-147.91,0-221.86,0-3.11,0-6.26.28-9.2-1.16-.92-.45-1.94-.77-2.75-1.38-5.15-3.91-6.03-9.7-2.41-15.31.68-1.04,1.26-2.2,2.13-3.05,4.46-4.39,8.09-9.43,11.91-14.34,3.94-5.07,8.15-9.93,12.23-14.89,5.93-7.19,11.92-14.34,17.78-21.59,6.25-7.73,12.04-15.86,18.64-23.27,6.22-6.99,11.51-14.68,17.59-21.76,4.18-4.86,7.6-10.4,11.94-15.09,5.09-5.5,9.37-11.63,14.24-17.28,3.38-3.92,6.47-8.09,9.58-12.23,1.4-1.86,2-4.03,1.98-6.44-.04-4.83-2.46-7.76-7.34-8.34-1.85-.22-3.74-.07-5.62-.1-2.7-.04-5.42.24-8-.91-.55-.24-1.23-.33-1.84-.27-7.31.69-14.45-1.25-21.72-1.34-5.07-.07-9.27-2.06-11.98-6.6-.32-.53-.69-1.04-1.08-1.53-2.84-3.63-3.15-7.54-1.42-11.74,1.26-3.07,2.31-6.23,3.61-9.28,4.86-11.47,9.74-22.93,14.67-34.36,4.36-10.11,8.81-20.17,13.2-30.27,1.08-2.48,2.14-4.96,3.08-7.49,1.83-4.95-.46-9.65-5.62-11.32-1.94-.63-4.04-1.07-6.07-1.08-30.62-.07-61.25-.05-91.87-.03-3.78,0-7.35.89-10.65,2.84-1.9,1.12-3.18,2.66-3.79,4.75-1.1,3.78-2.35,7.47-3,11.41-.98,5.9-2.68,11.68-4.11,17.5-1.82,7.42-3.74,14.81-5.5,22.24-2.14,9.06-4.12,18.17-6.25,27.23-1.76,7.46-3.62,14.89-5.48,22.32-1.36,5.42-3.19,10.76-4.08,16.25-.93,5.76-2.41,11.32-3.92,16.93-.73,2.73-.54,5.84-.12,8.69.28,1.92,1.7,3.67,2.43,5.16,4.57,1.93,8.84,2.41,13.26,2.23,3.33-.14,6.68.17,10-.06,6.56-.46,12.78,1.31,19.01,2.76,4.92,1.14,8.38,4.81,10.68,9.01,1.57,2.87,1.23,6.5-.1,9.69-.88,2.11-2.01,4.12-3,6.18-4.03,8.42-8.01,16.87-12.07,25.27-2.43,5.04-5.06,9.99-7.46,15.04-5.24,11.06-10.36,22.17-15.58,33.24-2.39,5.06-4.9,10.06-7.34,15.1-.82,1.68-1.87,3.32-2.31,5.11-1.11,4.59-4.32,7.6-7.75,10.27-3.15,2.46-6.89,3.41-11.08,3.39-31.46-.13-62.91-.07-94.37-.07-6.25,0-12.51-.17-18.75.07-3.62.14-7.08-.5-10.43-1.49-8.17-2.42-15.46-9.87-15.28-19.75.01-.83,0-1.67,0-2.5,0-110.2.02-220.4-.08-330.61,0-4.43.55-8.77,1.64-12.91,1.04-3.95,3.12-7.75,5.37-11.21,2.24-3.45,5.05-6.6,7.97-9.53,51.66-51.75,103.38-103.44,155.05-155.17,2.48-2.49,4.59-5.34,6.97-7.93.97-1.05,2.23-1.83,3.3-2.8,2.15-1.96,4.61-3.71,6.3-6.01,5.85-7.95,13.24-14.41,20.35-21.07,4.62-4.33,9.88-8.18,16.26-10.13,2.42-.74,4.7-1.51,7.25-1.42,1.87.06,3.76.16,5.62-.02,7.69-.72,14.27,2.13,20.33,6.38,3.9,2.73,7.64,5.67,11.03,9.1,17.6,17.75,35.32,35.39,53.01,53.05,2.64,2.64,5.33,5.18,8.35,7.46,2.93,2.21,5.14,5.38,7.67,8.12,1.55,1.68,2.86,3.73,4.72,4.93,3.39,2.18,6.04,5.08,8.83,7.87,30.07,30.03,60.08,60.12,90.19,90.11,5.29,5.27,10.95,10.17,16.44,15.24,4.16,3.84,7.47,8.44,10.27,13.24,2.04,3.51,3.41,7.61,4.17,11.61,1.04,5.47,1.53,11.03,1.53,16.68-.11,107.49-.1,214.99-.01,322.48,0,5.4-1.1,10.33-3.83,14.86-1.59,2.62-3.26,5.53-7.47,4.35,5.27-4.74,7.85-10.33,7.64-17.29-.1-3.33.05-6.67.05-10,.03-104.58.06-209.15.05-313.73,0-4.16-.38-8.31-.61-12.47-.36-6.82-2.63-13.05-6.4-18.64-2.31-3.43-4.93-6.73-7.88-9.62-5.65-5.53-11.8-10.55-17.43-16.09-19.43-19.15-38.72-38.45-58.07-57.69-35.15-34.95-70.3-69.9-105.49-104.81-4.88-4.84-9.93-9.5-15.04-14.09-4.59-4.13-10.19-6.69-16.14-7.67-12.15-2.01-23.11.69-32.09,9.69-14.85,14.9-29.76,29.73-44.63,44.62-48.56,48.63-97.12,97.27-145.67,145.91-1.91,1.92-3.86,3.81-5.58,5.89-6.68,8.06-11.19,16.96-10.56,27.84.18,3.11.02,6.25.02,9.37-.01,107.08-.03,214.15-.04,321.23,0,2.08-.13,4.19.15,6.24,1.09,7.95,5.71,12.35,12.45,13.65,2.63.51,5.38.58,8.08.58,38.33.03,76.66.01,114.99-.02,2.07,0,4.16-.18,6.22-.47,3.05-.43,5.43-1.93,6.85-4.79.83-1.67,1.8-3.28,2.6-4.97,15.35-32.23,30.69-64.46,46-96.71.88-1.86,1.65-3.83,2.07-5.84.85-4.03-.45-7.42-3.82-9.86-2.38-1.73-5.04-2.93-7.99-3.22-5.17-.52-10.35-1.04-15.53-1.36-4.99-.31-9.99-.41-14.99-.51-3.44-.07-6.63-.92-9.31-3.03-4.2-3.3-5.2-7.89-4.34-12.88.6-3.46,1.72-6.83,2.48-10.27,2.1-9.52,4-19.08,6.22-28.57,2.79-11.91,5.9-23.74,8.74-35.64,2.17-9.07,4.09-18.2,6.21-27.28,2.39-10.3,4.89-20.57,7.32-30.86,1.57-6.68,4.86-12,11.76-14.1,2.32-.71,4.9-.79,7.36-.8,29.79-.05,59.58-.03,89.37-.03,1.67,0,3.34.14,5,.03,2.4-.15,4.52.65,6.58,1.67,4.51,2.25,8.3,7.23,5.95,13.44-1.03,2.71-2.09,5.41-3.22,8.07-9.82,23.09-19.68,46.16-29.47,69.26-.97,2.28-1.88,4.66-2.29,7.08-1,5.88,2.36,11.1,8.02,13.19,2.57.95,5.16,1.52,7.92,1.49,11.05-.09,22.05.43,33.01,2.02,10.03,1.46,13.21,9.87,9.05,17.32-.71,1.27-1.51,2.5-2.41,3.64-3.36,4.24-6.78,8.44-10.19,12.64-6.04,7.43-12.11,14.83-18.13,22.27-7.07,8.74-14.07,17.53-21.14,26.27-6.02,7.44-12.13,14.82-18.14,22.27-6.93,8.58-13.74,17.26-20.7,25.81-8.15,10.01-16.41,19.92-24.61,29.89-.93,1.12-1.88,2.25-2.62,3.5-3.02,5.05-.56,10.32,5.25,11.14,2.05.29,4.15.25,6.23.25,74.16,0,148.32,0,222.48-.07,4.57,0,9.13-.5,14.05-.77.87-.42,1.38-.85,2.16-1.43.25-.16.81-.37.81-.37h.6Z"/>
  <path class="cls-1" d="M1340.31,1329.52c8.51-2.86,16.58-5.46,25.06-6.46,1.02-.12,1.99-.6,3-.79,3.66-.68,7.21-2.09,11.03-1.65,8.82-2.19,17.81-.9,26.71-1.25,8.99-.35,17.7,1.56,26.48,3.03,6.58,1.1,12.79,3.37,19.12,5.27,2.77.83,5.4,2.15,8.04,3.35,6.74,3.07,9.59,9.87,7.42,16.55-2.56,7.89-4.91,15.86-8.31,23.49-2.8,6.28-5.61,12.5-9.29,18.31-.66,1.05-1.23,2.18-2.01,3.14-1.46,1.78-2.73,2.08-4.96,1.1-2.65-1.16-5.13-2.79-7.86-3.67-5.12-1.65-10.31-3.12-15.55-4.3-10.68-2.41-21.54-1.14-32.33-1.19-3.87-.02-7.88.72-11.6,1.86-6.13,1.89-12.55,2.84-18.44,5.57-3.93,1.82-8,3.37-11.96,5.13-7.76,3.44-15.68,6.58-23.2,10.5-10.51,5.49-21.6,9.54-32.7,13.47-5.98,2.12-12.19,3.94-18.63,4.71-4.09.49-8.15,1.43-12.17,2.38-3.66.86-7.31,1.31-11.09,1.33-5.37.04-10.83-.86-16.11,1-.55.19-1.29.15-1.84-.05-4.86-1.77-9.9-.82-14.86-.99-3.33-.11-6.59-.19-9.86-1.14-3.16-.92-6.49-1.29-9.77-1.74-5.55-.76-10.7-2.86-15.97-4.54-5.32-1.71-10.54-3.73-15.8-5.62-10.97-3.94-21.23-9.34-31.48-14.86-6.93-3.73-14.29-6.68-21.52-9.84-4.74-2.07-9.48-4.27-14.42-5.72-9.53-2.79-19.06-5.83-29.23-5.35-3.33.16-6.67.14-10,0-11.3-.5-22.29,1.11-33.16,4.21-7.81,2.22-15.16,5.48-22.54,8.75-8.88,3.94-17.43,8.57-26.14,12.85-11.13,5.47-22.4,10.78-34.2,14.68-7.05,2.34-14.12,4.86-21.58,5.79-1.43.18-2.83.59-4.24.93-4.25,1.03-8.5,1.82-12.93,1.63-2.24-.1-4.51.48-6.77.73-1.65.18-3.3.4-4.95.43-3.75.06-7.5.03-11.25.02-2.7-.01-5.36.06-8.02-.87-1.51-.53-3.3-.45-4.95-.33-4.64.31-9.08-.6-13.54-1.67-2.6-.63-5.31-.84-7.92-1.47-7.63-1.85-15.1-4.23-22.6-6.54-5.35-1.65-10.58-3.64-15.75-5.65-4.17-1.63-8.51-3.06-12.43-5.48-3.33-2.05-7.13-3.35-10.77-4.88-7.06-2.97-14.13-5.91-21.23-8.77-2.1-.85-4.32-1.39-6.48-2.09-2.75-.9-5.44-2.09-8.26-2.67-4.64-.96-9.28-1.94-14.08-2.11-4.95-.18-9.93-.64-14.81-1.48-4.53-.78-7.87-3.14-9.28-8.07-1.09-3.83-2.02-7.55-1.96-11.58.14-8.96.14-17.92,0-26.87-.06-3.62.87-7.02,1.88-10.36,1.18-3.91,3.3-5.24,7.42-5.29,5.42-.07,10.84-.12,16.25.05,2.25.07,4.47.78,6.72,1.11,6.13.89,12.28,1.74,18.42,2.6.62.09,1.27.04,1.86.2,5.38,1.51,10.73,3.15,16.14,4.56,8.66,2.26,16.98,5.47,25.23,8.86,7.3,3,14.62,5.95,21.78,9.24,12.3,5.65,25.07,9.67,38.35,12.29,4.15.82,8.22,1.05,12.36,1.07,5.62.03,11.25-.01,16.87.01,5,.02,9.96.17,14.71-1.96,1.65-.74,3.63-.74,5.47-1.05,8.89-1.47,16.87-5.65,25.29-8.52,4.67-1.59,8.98-4.23,13.44-6.43,9.46-4.67,18.7-9.84,28.41-13.91,8.36-3.51,16.71-7.11,25.49-9.74,8.35-2.51,16.73-4.68,25.23-6.5,1.61-.34,3.27-.54,4.92-.61,2.9-.14,5.78.08,8.64-.94,1.5-.54,3.29-.32,4.95-.33,5.62-.03,11.25-.04,16.87,0,3.73.03,7.49-.35,11.12,1.02.93.35,2.06.25,3.1.2,5.69-.26,11.1,1.17,16.5,2.67.6.17,1.17.56,1.77.6,5.25.36,9.99,2.51,14.94,3.97,6.2,1.82,12.13,4.26,18.15,6.48,8.76,3.22,16.95,7.7,25.31,11.81,7.42,3.65,14.8,7.41,22.4,10.63,5.9,2.5,12.04,4.48,18.1,6.62,8.49,2.99,17.28,4.33,26.02,5.61,6.67.98,13.64,1.09,20.47-.46,4.02-.91,8.21-1.04,12.29-1.69,3.26-.52,6.59-.98,9.7-2.05,5.68-1.95,11.44-3.62,17.09-5.72,8.57-3.18,16.76-7.09,25.04-10.88,6.23-2.85,12.51-5.61,18.88-8.12,5.18-2.04,10.54-3.65,16.3-5.57M733.04,1327.7c-5.41-.15-10.82-.41-16.23-.4-4.22,0-5.86,1.49-5.99,5.49-.4,12.69-1.4,25.38-.56,38.08.14,2.07.47,4.13.67,6.2.24,2.52,1.76,4.32,3.76,5.44,1.36.75,3.16.87,4.78.93,9.81.37,19.5,1.81,28.96,4.21,9.44,2.39,18.54,5.91,27.46,9.86,16.66,7.37,33.04,15.4,50.53,20.79,8.14,2.51,16.35,4.79,24.72,6.15,8.81,1.44,17.68,2.55,26.68,2.57,14.17.03,28.22-.4,42.14-3.67,10.32-2.42,20.35-5.53,30.19-9.41,13.34-5.26,25.96-12.02,38.85-18.22,11.77-5.66,23.54-11.18,36.26-14.61,10.13-2.73,20.34-4.12,30.72-4.4,5.59-.15,11.2.73,16.8,1.11,7.92.53,15.46,2.74,23,5.02,10.37,3.14,20.06,7.85,29.7,12.67,13.17,6.59,26.3,13.26,39.94,18.86,11.17,4.59,22.76,7.8,34.56,10.03,10.63,2.01,21.45,2.44,32.32,2.46,16.14.03,31.91-2.38,47.43-6.38,12.45-3.2,24.4-8,36.1-13.33,11.13-5.08,22.21-10.27,33.36-15.29,10.06-4.53,20.53-7.99,31.38-9.79,10.25-1.7,20.59-2.21,31.08-.84,10.43,1.36,20.25,4.28,29.83,8.38,1.08.46,2.15.98,3.33,1.51.72-.9,1.33-1.47,1.73-2.17,7.76-13.57,13.8-27.84,17.65-43.02,1.13-4.47.35-8.28-3.75-10.91-1.38-.89-2.82-1.72-4.32-2.4-7.22-3.25-14.89-5.14-22.56-6.87-7.71-1.74-15.6-2.55-23.49-2.98-4.98-.27-9.99-.6-14.97-.42-10.19.37-20.36,1.48-30.32,3.58-9.71,2.05-19.26,4.84-28.65,8.15-12.53,4.41-24.69,9.66-36.79,15.11-13.04,5.87-26.11,11.71-40.19,14.69-6.49,1.37-12.97,3-19.68,2.98-4.37-.02-8.76-.18-13.12.09-7.38.45-14.56-1.06-21.65-2.5-8.72-1.77-17.25-4.51-25.36-8.26-10.18-4.7-20.34-9.44-30.4-14.38-18.86-9.27-38.26-17.01-58.88-21.39-4.47-.95-8.99-1.91-13.53-2.16-16.42-.91-32.86-1.79-49.15,1.54-4.47.91-9.05,1.42-13.43,2.63-15.63,4.32-30.66,10.23-45.23,17.36-11.74,5.74-23.45,11.56-35.39,16.88-15.09,6.73-30.91,10.79-47.52,11.38-5.63.2-11.2-.18-16.82-.68-6.24-.56-12.43-1.35-18.44-2.88-10.85-2.77-21.35-6.66-31.56-11.31-10.75-4.9-21.6-9.55-32.74-13.53-9.58-3.42-19.39-6.1-29.32-8.2-7.51-1.59-15.17-2.45-23.93-3.75Z"/>
  <path class="cls-1" d="M412.7,291.89c4.51,6.48,8.66,13.24,13.59,19.38,15.62,19.43,34.83,33.87,59.24,40.36,11.09,2.95,22.54,4.25,34.01,3.71,21.75-1.02,41.3-8.38,58.77-21.42,7.21-5.38,13.9-11.33,19.84-18.03,5.92-6.68,11.75-13.57,14.24-22.43,3.75-13.33,2.15-25.53-8.2-35.63-6.78-6.62-14.96-10.61-24.33-11.55-6.93-.69-13.62,1.15-19.86,4.26-5.46,2.73-9.95,6.49-13.69,11.49-8.81,11.79-20.94,16.8-35.48,15.13-6.64-.76-12.8-3.59-18.14-7.76-8.94-6.97-15.06-15.81-18.29-26.82-2.36-8.02-2.55-16.16-1.27-24.11,1.81-11.23,6.73-21.3,14.36-29.95,10.54-11.97,23.36-20.43,38.36-25.83,13.23-4.76,26.78-7.42,40.85-7.34,3.33.02,6.67.03,10-.03,10.05-.16,19.86,1.31,29.63,3.66,11.9,2.86,22.81,7.74,32.35,15.32,8.51,6.76,15.81,14.76,21.82,23.88,6.77,10.3,11.69,21.39,15.25,33.21,2.29,7.61,3.81,15.34,4.92,23.12.94,6.57,1.05,13.29,1.09,19.94.07,10.84-.73,21.66-2.91,32.27-2.34,11.37-5.68,22.46-10.02,33.28-7.01,17.47-16.34,33.64-27.41,48.74-13.83,18.87-29.93,35.7-47.86,50.78-23.05,19.38-48.27,35.35-75.43,48.28-18.92,9.01-38.33,16.78-58.56,22.45-10.18,2.86-20.42,5.36-30.76,7.62-9.15,1.99-18.4,3.3-27.6,4.79-8.39,1.36-16.96,1.61-25.45,2.33-1.24.11-2.51.03-3.74.19-14.72,1.92-29.52,1.63-44.3,1.7-36.45.19-72.9.27-109.35.47-24.58.14-49.15.39-73.73.65-3.74.04-7.49.38-11.23.5-14.23.47-27.04,11.85-31.61,24.61-2.39,6.67-2.65,13.54-1.56,20.31,1.04,6.43,4.37,12.09,8.91,16.85,5.59,5.85,12.35,9.75,20.9,12.08,1.33.57,2.02.66,2.7.76,0,0,.06.14.05.56-.06.93-.1,1.44-.14,1.95-8.91-1.29-16.52-5.17-23.1-11.29-3.84-3.57-7.2-7.5-9.53-12.2-2.05-4.12-3.03-8.55-3.53-13.12-.7-6.38,1.18-12.38,2.82-18.35.74-2.71,2.43-5.38,4.32-7.51,4.41-4.97,8.84-10.02,14.73-13.35,2.15-1.21,4.55-2.06,6.93-2.75,5.38-1.56,10.8-2.71,16.49-2.71,62.07.06,124.13.03,186.2,0,3.31,0,6.62.21,9.88-.93,1.5-.53,3.3-.26,4.96-.27,6.04-.03,12.08,0,18.12-.04,3.11-.02,6.2.17,9.26-.91,1.5-.53,3.29-.26,4.96-.3,2.9-.08,5.78.12,8.64-.91,1.5-.54,3.3-.42,4.95-.32,5.67.33,11.15-.68,16.63-1.9,2.21-.49,4.54-.4,6.78-.77,7.54-1.21,15-2.85,22.46-4.51,6.46-1.44,12.92-2.94,19.29-4.75,7.37-2.09,14.81-3.95,21.95-6.83,8.66-3.49,17.42-6.73,26.07-10.25,6.13-2.49,12.25-5.06,18.2-7.94,5.98-2.89,11.73-6.26,17.62-9.34,6.4-3.34,12.59-7.07,18.68-10.9,7.53-4.73,14.72-10.03,21.85-15.37,6.46-4.84,12.76-9.92,18.9-15.17,3.79-3.24,7.14-6.99,10.68-10.52,3.1-3.09,6.18-6.2,9.28-9.27,5.46-5.41,10.03-11.61,15.12-17.33,6.39-7.18,11.5-15.23,16.59-23.26,5.99-9.45,11.39-19.28,15.45-29.77,1.12-2.9,2.49-5.71,3.67-8.59,3.87-9.43,5.73-19.43,8.12-29.27.83-3.4,1.35-6.92,1.57-10.41.46-7.44,1.71-14.81,1.46-22.34-.21-6.25-.47-12.41-2.15-18.47-.44-1.57-.25-3.3-.46-4.94-.53-4.1-1.01-8.2-2.55-12.09-.53-1.33-.81-2.76-1.19-4.15-.6-2.19-1-4.47-1.82-6.57-1.95-5.01-3.65-10.19-6.26-14.84-3.74-6.66-6.93-13.73-12.49-19.25-1.6-1.59-2.75-3.63-4.23-5.36-5.04-5.9-11.13-10.65-17.58-14.79-3.97-2.55-8.59-4.12-12.98-5.98-4.58-1.94-9.26-3.59-14.3-4.04-1.42-.13-2.78-.83-4.17-1.24-1.19-.35-2.39-.93-3.59-.96-8.29-.27-16.49-1.98-24.84-1.38-4.95.36-9.98-.5-14.86,1.14-1.13.38-2.48.11-3.73.14-1.25.04-2.6-.21-3.72.19-5.11,1.83-10.55,2.15-15.69,3.66-3.94,1.16-7.73,2.89-11.5,4.57-6.44,2.86-12.88,5.74-18.33,10.36-7.16,6.06-14.27,12.35-19.13,20.35-3.28,5.41-5.45,11.63-7.01,17.92-2.93,11.82-1.17,23.05,4.16,33.81,3.55,7.16,8.16,13.46,15.08,17.83,4.09,2.59,8.51,4,13.18,5.27,5.92,1.61,11.67,1.19,17.15-.49,6.98-2.14,13.37-5.76,17.78-11.99,3.41-4.81,7.5-8.99,12.61-11.87,9.94-5.6,20.56-7.89,31.74-4.46,5.75,1.77,10.85,5.03,15.45,8.95,6.85,5.85,11.32,13.09,13.39,21.93,1.38,5.9.67,11.58-1.07,17.16-2.9,9.3-8.22,17.18-14.97,24.12-4.21,4.33-8.55,8.54-12.8,12.82-3.82,3.85-8.08,7.09-12.78,9.84-4.48,2.61-8.75,5.55-13.39,7.93-8.01,4.12-16.46,7.02-25.12,9.07-4.55,1.08-9.28,2.09-14.14,1.82-4.36-.24-8.74-.06-13.12-.05-7.5.03-14.75-1.37-22.07-3.01-8.64-1.93-16.66-5.12-24.31-9.31-9.28-5.09-18.07-10.82-25.77-18.33-8.38-8.18-15.62-17.22-22.43-26.63-2.01-2.77-4.23-5.66-4.54-9.6.94-.02,1.57.31,2.19.63Z"/>
  <path class="cls-1" d="M955.15,1168.13c-.94,1.09-1.69,2.47-2.85,3.22-4.69,3.04-9.33,6.19-15.07,7.2-2.21.39-4.25,1.66-6.42,2.37-2.55.84-5.15,1.53-7.74,2.25-.79.22-1.7.15-2.43.49-5.38,2.54-11.2,2.7-16.95,3.3-3.49.37-6.96,1.05-10.43,1.61-.4.07-.79.38-1.18.38-9.97.03-19.95.26-29.92-.05-4.72-.14-9.43-1.15-14.1-2.03-5.68-1.06-11.41-1.69-17.07-3.06-7.05-1.7-14.01-3.72-21.02-5.56-2.39-.63-4.71-1.55-7.03-2.41-7.02-2.57-14.13-4.9-21.01-7.82-12.05-5.11-23.86-10.69-35.15-17.42-8.6-5.13-16.55-11.03-24.57-16.93-4.92-3.62-8.85-8.18-13.13-12.4-1.82-1.79-2.72-4.16-2.63-6.81.04-1.25,0-2.5,0-3.75,0-93.75.05-187.5-.12-281.24-.01-6.4,1.98-11.63,4.98-16.99,2.7-4.83,6.35-8.69,10.17-12.52,82.8-82.78,165.58-165.58,248.41-248.33,4.99-4.99,10.43-9.52,15.52-14.41,4.96-4.76,9.65-9.8,14.66-14.5,3.78-3.55,8.13-6.55,13.04-8.18,8.82-2.93,17.9-4.09,26.69-.02,4.29,1.98,8.29,4.52,11.75,8.01,34.09,34.26,68.3,68.41,102.47,102.58,3.98,3.98,8.06,7.86,11.91,11.95,4.68,4.97,9.55,9.76,14.48,14.48,4.97,4.75,9.75,9.7,14.61,14.56,4.86,4.86,9.72,9.72,14.58,14.58,4.86,4.86,9.77,9.68,14.56,14.6,1.87,1.92,3.49,4.1,5.26,6.13.96,1.1,1.82,2.4,3.02,3.13,3.81,2.32,6.65,5.66,9.73,8.73,29.04,29,58.04,58.04,87.09,87.03,3.85,3.85,6.94,8.25,10.01,12.69.56.8.65,1.93.95,3.39-.01.48-.07.54-.42.54-.58.03-.82.05-.98.06.06-.01,0,.1-.05-.21-.33-.6-.62-.9-1.19-1.5-3.01-4.78-6.37-8.71-10.08-12.4-35.53-35.46-71.01-70.95-106.51-106.44-39.91-39.91-79.82-79.81-119.73-119.73-17.52-17.53-35.14-34.96-52.5-52.65-8.73-8.89-19.32-10.09-30.54-7.92-6.31,1.22-11.95,4.58-16.71,9.23-11.18,10.91-22.66,21.51-33.72,32.54-58.55,58.39-117.01,116.86-175.49,175.31-24.01,24-47.95,48.07-72.03,72-7.52,7.47-10.96,16.2-10.94,26.84.15,92.29.18,184.58.02,276.87-.01,6.87,1.81,12.16,7.12,16.35,1.14.9,2.16,1.96,3.28,2.9,8.48,7.07,17.43,13.48,26.94,19.11,13.8,8.16,28.28,14.87,43.19,20.7,7.51,2.94,15.07,5.75,22.88,7.9,7.19,1.98,14.31,4.2,21.69,5.46,5.73.98,11.39,2.43,17.14,3.16,6.4.81,12.87,1.09,19.31,1.5,10.87.7,21.67-.55,32.39-1.85,7.37-.89,14.69-2.57,21.89-4.7,9.58-2.82,18.99-5.91,27.86-11.38.99.02,1.55.03,2.11.04Z"/>
  <path class="cls-1" d="M1462.83,1273.24s-.1.57-.51.88c-.96.72-1.51,1.12-2.06,1.53-4.41,2.32-8.77,1.64-13.07-.29-5.87-2.64-11.88-4.9-18.1-6.55-3.6-.96-7.21-1.86-10.82-2.78-.4-.1-.8-.24-1.21-.27-6.19-.47-12.38-.98-18.58-1.34-2.69-.16-5.39-.2-8,.88-.92.38-2.05.3-3.08.32-3.94.06-7.81-.07-11.54,1.95-1.88,1.02-4.53.49-6.66,1.18-9.09,2.93-18.2,5.8-26.78,10.12-4.05,2.04-8.34,3.61-12.49,5.46-3.01,1.34-6.05,2.66-8.96,4.21-11.23,5.98-23.27,9.88-35.31,13.76-7.09,2.28-14.31,4.09-21.79,4.7-2.05.17-4.12.59-6.07,1.23-4.46,1.44-9.03,1.16-13.6,1.17-7.5.02-15-.17-22.49.06-5.67.17-11.14-.72-16.62-1.95-2.41-.54-4.92-.68-7.33-1.24-6.05-1.4-12.23-2.48-18.04-4.56-5.03-1.81-10.28-3-15.11-5.49-4.22-2.18-8.89-3.48-13.22-5.46-6-2.74-11.92-5.67-17.79-8.68-11.05-5.65-21.93-11.76-33.69-15.75-8.58-2.91-17.31-5.82-26.61-5.69-6.1-1.78-12.37-1.2-18.58-1.19-2.05,0-4.1.48-6.15.73-1.44.17-2.89.53-4.32.44-4.87-.28-9.41,1.11-14.04,2.33-12.93,3.41-24.96,9.01-36.89,14.9-6.88,3.39-13.96,6.37-20.78,9.87-10.53,5.4-21.53,9.6-32.76,13.24-7.67,2.49-15.45,4.47-23.38,5.93-1.83.34-3.65.75-5.46,1.15-5.09,1.12-10.23,1.43-15.45,1.45-3.49.01-6.97,1.05-10.46,1.06s-6.97-.78-10.46-1.1c-1.65-.15-3.33-.12-4.99-.02-5.87.36-11.56-.63-17.23-1.99-2.2-.53-4.49-.72-6.75-1.01-6.37-.82-12.51-2.74-18.59-4.58-8.68-2.63-17.49-4.99-25.66-9.17-3.12-1.6-6.59-2.5-9.82-3.9-7.59-3.3-15.11-6.78-22.7-10.07-6.47-2.81-13.11-5.1-19.88-7.18-6.01-1.85-11.95-3-18.18-3.47-4.92-.37-9.83-1.3-14.67-2.31-5.11-1.07-7.45-4.29-8.41-9.39-1.68-8.87-.94-17.8-1.24-26.71-.2-6.05.42-12.01,1.34-17.96.76-4.89,4.33-8.24,9.35-8.43,3.29-.12,6.65-.53,9.9.72.94.36,2.05.48,3.06.43,6.08-.31,11.89,1.34,17.82,2.21,8.23,1.21,16.25,3.14,24.25,5.29,4.39,1.18,8.76,2.47,13.04,3.99,5.85,2.08,11.62,4.37,17.38,6.67,1.92.77,3.72,1.86,5.97,3.41.4,1.13.41,1.67-.06,2.21-4.5-1.64-8.52-3.29-12.54-4.96-15.2-6.29-31.01-10.57-47.11-13.59-9.39-1.76-18.95-2.7-28.54-2.84-1.65-.02-3.35-.07-4.96.22-2.79.51-4.05,1.89-4.29,4.59-.44,4.97-.94,9.95-1.09,14.94-.31,10.2-.16,20.39,1.11,30.54.29,2.32,1.31,3.81,3.19,5.01,1.67,1.07,3.47,1.19,5.35,1.39,6.62.7,13.31,1.09,19.8,2.42,10.57,2.17,20.82,5.55,30.74,9.87,14.64,6.37,29,13.37,44.06,18.75,12.13,4.33,24.53,7.75,37.19,9.87,10.86,1.82,21.87,2.48,32.95,2.46,15.73-.03,31.07-2.52,46.18-6.37,12.86-3.27,25.26-8.04,37.26-13.73,12.93-6.13,25.75-12.5,38.66-18.66,13.81-6.59,28.42-10.51,43.6-11.85,16.36-1.45,32.31,1.16,47.88,6.3,11.28,3.72,21.8,9.13,32.3,14.53,14.02,7.21,28.13,14.21,43.08,19.31,8.24,2.81,16.63,5.08,25.18,6.84,4.71.97,9.48,1.23,14.17,2.09,11.8,2.17,23.69,1.82,35.49.78,9.69-.85,19.34-2.36,28.86-4.81,10.88-2.8,21.52-6.2,31.79-10.65,12.37-5.36,24.63-10.96,36.89-16.57,9.84-4.51,20.05-7.99,30.6-10.24,8.75-1.87,17.68-2.48,26.68-2.24,9.84.27,19.44,1.83,28.76,4.9,6.49,2.14,12.88,4.61,19.23,7.15,2.9,1.16,5.62,1.25,8.47.18.97-.36,1.95-.68,3.04-.91.11.11.33.34.33.34Z"/>
  <path class="cls-1" d="M832.68,358.17c-2.59.16-4.86-.3-6.79-2.35-1.4-1.49-3.32-2.47-4.9-3.81-6.25-5.33-9.71-12.36-11.77-20.1-1.01-3.79-1.84-7.64-1.56-11.68.19-2.72.18-5.39,1.62-7.84.41-.7.74-1.54.81-2.34.45-4.99,3.32-8.95,5.85-12.92,2.2-3.47,5.06-6.59,7.98-9.52,38.25-38.34,76.56-76.62,114.89-114.88,1.9-1.89,4.11-3.47,6.17-5.21.64-.54,1.33-1.04,1.84-1.68,4.82-6.01,11.05-10.59,16.3-16.18,5.27-5.61,10.86-10.93,16.31-16.38,5.45-5.45,10.91-10.89,16.36-16.34,5.45-5.45,10.9-10.9,16.34-16.36,3.72-3.74,7.98-6.53,13.09-8.12,5.16-1.61,10.18-3.76,15.75-3.06,2.45.31,4.93.6,7.33,1.18,7.38,1.79,13.65,5.38,19.44,10.5,15.29,13.54,28.76,28.94,43.87,42.61,17.16,15.51,32.99,32.33,49.47,48.51,16.5,16.2,32.73,32.67,49.08,49.02,77.03,77.03,154.09,154.04,231.02,231.17,6,6.02,11.56,12.5,17.38,18.72,2.64,2.82,4.21,6.63,6.14,10.55-.66,1.29-1.18,2.02-1.95,2.37-2.83-7.36-7.4-12.92-12.57-18.15-15.96-16.13-31.71-32.47-47.74-48.53-42.8-42.87-85.71-85.63-128.56-128.46-29.89-29.88-59.83-59.7-89.58-89.72-38.1-38.46-76.91-76.18-115.8-113.84-1.35-1.3-2.68-2.63-4.13-3.81-10.67-8.71-22.85-10.61-35.84-7.2-7.38,1.93-13.41,6.45-18.6,12.05-3.68,3.97-7.35,7.95-11.19,11.74-36.02,35.53-72.14,70.97-108.12,106.54-21.91,21.66-43.65,43.5-65.39,65.33-7.7,7.73-12.79,16.92-13.67,27.96-1.15,14.46,3.31,26.63,15.4,35.37,1.83,1.33,3.83,2.43,5.74,3.93,0,.29,0,.88,0,.88,0,0-.02.03-.02.03Z"/>
  <path class="cls-1" d="M817.69,1229.47c4.04,1.58,8.04,3.29,12.13,4.73,7.61,2.68,15.18,5.47,23.27,6.58,5.52.76,10.95,2.13,16.44,3.16,1.42.27,2.88.39,4.32.42,3.12.06,6.26-.17,9.37.06,5.47.41,10.72-.98,16.06-1.63,3.27-.4,6.46-1.4,9.72-1.93,9.73-1.58,18.67-5.52,27.73-9.13,3.86-1.54,7.63-3.29,11.39-5.04,6.75-3.13,13.48-6.3,20.19-9.5,8.98-4.29,18.13-8.18,27.51-11.52,5.64-2.01,11.31-4.01,17.07-5.65,5.57-1.59,11.26-2.75,16.92-4.01,1.4-.31,2.89-.22,4.33-.38,2.26-.25,4.5-.59,6.76-.84,1.65-.18,3.3-.38,4.96-.39,7.91-.04,15.83-.07,23.74.02,2.05.02,4.09.51,6.14.77,1.23.16,2.47.46,3.7.41,6.11-.25,11.92,1.24,17.71,2.9,1.38.4,2.83.58,4.24.88,1.82.39,3.7.59,5.43,1.22,9.33,3.43,18.74,6.71,27.9,10.56,7.04,2.96,13.75,6.73,20.64,10.06,12.12,5.85,24.11,11.93,36.95,16.19,8.1,2.69,16.41,4.17,24.76,5.46,3.86.59,7.79,1.01,11.69,1.45,5.63.64,11.16-.47,16.69-1.43,2.23-.39,4.49-.64,6.73-1.01,2.24-.37,4.5-.68,6.7-1.25,9.85-2.55,19.48-5.76,28.79-9.92,6.99-3.12,14.2-5.77,21.13-9.02,8.08-3.79,16.41-6.94,24.72-10.12,3.85-1.47,7.84-2.61,11.84-3.62,5.01-1.27,9.83-3.24,15.04-3.86,4.5-.53,8.98-1.35,13.43-2.24,5.74-1.16,11.61-.71,17.32-1.43,5.84-.74,11.46-.89,17.22.15,2.02.36,4.16.1,6.24.06,2.92-.06,5.74.36,8.61,1.06,4.81,1.17,9.83,1.5,14.6,2.79,6.39,1.72,12.99,2.92,18.86,6.25,2.34,1.33,4.73,2.64,6.92,4.2,3.59,2.56,5.62,5.94,5.43,10.59-.2,4.99-.05,10-.05,15,0,.83.15,1.72-.07,2.49-1.99,6.74-.89,13.64-1.17,20.47-.07,1.66.06,3.35-.15,4.99-.09.7-.83,1.31-1.94,1.95-.66-.01-1.02-.32-1.04-.87.09-12.21.09-23.86,1.03-35.5.3-3.7-.22-7.46-.4-11.2-.14-2.98-1.84-4.92-4.22-6.52-3.49-2.34-7.34-3.92-11.29-5.11-5.74-1.73-11.54-3.37-17.42-4.51-6.71-1.31-13.51-2.52-20.31-2.89-8.92-.49-17.9-.15-26.85-.07-2.49.02-5.03.16-7.45.67-5.49,1.17-11.08,1.54-16.59,2.75-8.71,1.93-17.3,4.13-25.74,6.98-11,3.72-21.62,8.38-32.21,13.1-14.57,6.5-29.06,13.24-44.77,16.63-6.69,1.45-13.41,2.95-20.32,2.93-8.93-.02-17.85.3-26.73-1.61-4.85-1.04-9.76-1.87-14.54-3.24-11.19-3.21-21.82-7.82-32.27-12.92-11.74-5.73-23.39-11.67-35.36-16.88-18.95-8.25-38.65-13.69-59.48-14.6-13.14-.57-26.16-.25-39.16,1.91-10.06,1.67-19.8,4.36-29.46,7.53-9.27,3.05-18.21,6.87-27.06,10.93-12.06,5.53-24.06,11.17-36.1,16.73-9.83,4.54-20.17,7.6-30.69,9.99-10.41,2.36-21.03,2.4-31.67,2.41-7.56,0-14.96-1.05-22.26-2.6-11.57-2.46-22.72-6.41-33.58-11.11-.73-.32-1.31-.97-1.97-1.88,0-.94,0-1.48,0-2.02Z"/>
  <path class="cls-1" d="M131.43,489.37c-13.94-1.04-23.33-8.26-29.27-20.79-3.11-6.56-4.74-13.33-4.33-20.41.48-8.46,1.76-16.75,6.77-24.15,4.7-6.94,11.12-11,18.89-13.28,3.38-.99,6.85-1.38,10.43-1.38,119.7.06,239.4.07,359.1-.03,5.39,0,10.18,1.66,15.04,3.44.77.28,1.55.69,2.16,1.22,8.23,7.05,14.64,15.1,16.38,26.35.7,4.55,1.28,9.05,1.04,13.59-.5,9.24-3.93,17.37-10.42,23.97-4.56,4.63-10.07,7.99-16.22,10.17-1.55.55-3.19.86-5.39,1-.94-.82-1.27-1.34-1.26-2.18,1.13-.59,1.89-1,2.69-1.13,5.27-.84,9.86-3.31,14.12-6.28,6.4-4.46,10.61-10.67,12.04-18.3,1.82-9.75,1.41-19.55-1.98-28.95-2.3-6.38-6.23-11.73-12.25-15.29-5.52-3.26-11.44-4.5-17.87-4.49-117.91.07-235.83.04-353.74.03-2.29,0-4.6-.13-6.87.12-8.29.9-15.72,3.66-21.36,10.2-3.94,4.56-6.22,10.05-7.08,15.74-1.36,9.06-1.6,18.33,1.86,27.11,4.32,10.98,11.72,18.46,24,20.08,2.04.27,4.02.96,5.84,1.75-.89.83-1.6,1.36-2.31,1.9Z"/>
  <path class="cls-1" d="M1343.9,1155.63c-1.11,2.17-2.84,3.16-5.25,3.88-13.11,3.94-26.21,7.92-38.7,13.66-4.33,1.99-8.89,3.46-13.39,5.07-5.84,2.08-11.53,4.73-17.85,5.16-8.04,3.69-16.94,3.64-25.33,5.81-1.18.3-2.49.15-3.73.16-4.79.02-9.59-.21-14.37.06-8.82.48-17.35-1.29-25.86-3.04-10.37-2.14-20.43-5.29-30.06-9.83-4.87-2.29-10.15-3.72-14.99-6.06-10.45-5.07-21.38-8.94-32.18-13.1-5.79-2.23-11.87-3.72-17.82-5.57-1.59-.49-3.23-.9-4.68-1.67-.81-.43-1.27-1.52-1.58-2.81.55-.51.8-.53,1.5-.44,2.41.8,4.35,1.52,6.32,2.18,8.62,2.88,17.39,5.41,25.85,8.7,11.96,4.66,23.68,9.95,35.55,14.85,14.39,5.94,29,10.85,44.67,12.58,15.27,1.68,30.26.91,45.29-1.95,10.84-2.06,21.29-5.26,31.55-9.22,7.34-2.83,14.7-5.61,21.99-8.57,8.83-3.58,17.87-6.52,27.08-8.95,2.71-.71,3.26-1.47,3.33-4.42.06-2.7.03-5.41.03-8.12,0-92.62,0-185.23,0-277.85,0-13.1.04-26.2.46-38.94.59,2.82.97,5.28.97,7.74.03,104.1.02,208.19.02,312.29,0,1.87-.11,3.76.07,5.62.09.95.73,1.85,1.11,2.77Z"/>
  <path class="cls-1" d="M1465.2,508.14c1.7,3.35,2.32,6.96,2.44,10.66.11,3.33.03,6.66.03,9.99,0,208.38,0,416.76-.02,625.13,0,2.47-.36,4.93-1.3,7.68-1,.25-1.25.22-1.56-.4-.08-2.45-.12-4.32-.12-6.2,0-209.21,0-418.42,0-627.63,0-5.19-.2-10.39-.03-15.85.36-1.3.44-2.33.53-3.37.01,0,.03-.02.03-.02Z"/>
  <path class="cls-1" d="M452.02,620.32c5.17,1.78,9.59,4.93,13.94,8.09,13.87,10.09,24.94,22.49,31.81,38.47,4.55,10.59,6.35,21.63,4.91,32.91-1.88,14.75-8.58,26.9-22.17,34.16-11.97,6.39-23.68,5.21-34.61-2.59-8.54-6.1-14.14-14.61-18.13-24.15-2.15-5.15-3.65-10.57-5.61-15.8-3.6-9.65-9.24-17.59-18.7-22.43-6.29-3.22-12.88-4.55-19.88-3.92-4.79.43-9.35,1.45-13.67,3.83-10.07,5.54-15.27,14.14-17.25,25.24-1.35,7.57-.7,15.09.93,22.32,1.67,7.42,4.47,14.66,8.12,21.46,3.34,6.22,6.78,12.38,10.3,18.97-.83.93-1.96,1.31-2.65.24-4.08-6.27-8.26-12.49-11.17-19.43-1.76-4.21-3.32-8.51-5.13-12.7-3.8-8.79-4.54-18.04-4.04-27.43.38-7.16,2.28-13.88,6.97-19.57.66-.8,1.23-1.67,1.82-2.52,4.38-6.2,10.49-10.01,17.61-12.12,7.09-2.09,14.39-2.44,21.47-.1,10.08,3.33,18.78,8.54,23.95,18.49,3.37,6.48,6.03,13.21,8.2,20.12,2.08,6.64,5.41,12.66,9.26,18.28,4.57,6.68,11.42,10.8,18.86,13.82.93.38,2.04.37,3.07.41,1.66.06,3.35-.15,4.99.05,8.41,1.06,14.89-3.13,20.93-7.98,4.9-3.94,8.34-8.96,10.46-15.14,2.32-6.77,4.03-13.57,3.5-20.64-.41-5.5-1.18-10.97-2.84-16.4-2.92-9.54-7.83-17.87-13.83-25.55-3.94-5.04-8.92-9.29-13.56-13.77-1.63-1.57-3.58-2.82-5.47-4.09-8.79-5.93-18.15-10.64-28.13-14.37-7.62-2.85-15.51-4.49-23.26-6.68-4.32-1.22-8.99-1.32-13.52-1.65-4.12-.3-8.26.16-12.37-1.08-2.32-.7-4.92-.47-7.78-1.3-.5-1.04-.53-1.45-.47-1.86,3.07-.06,6.14-.11,10.06.2,2.62.62,4.32,2.43,6.18.58,4.31.4,8.61.8,13.65,1.65,1.33.5,1.93.55,2.53.6,1.78.17,3.57.34,5.99,1.04,1.25.59,1.86.64,2.47.7,1.13.17,2.26.34,4.05.94,1.14.45,1.62.47,2.11.49,1.54.36,3.08.73,5.17,1.62,1.15.66,1.74.79,2.33.92.78.11,1.56.22,2.87.8,1.18.64,1.83.83,2.47,1.01,3.92.29,7,2.76,11.05,4.64,1.08.8,1.65,1,2.22,1.21Z"/>
  <path class="cls-1" d="M955.17,1167.55c-.59.58-1.15.57-2.13.03-.47-2.6-.56-4.68-.56-6.76,0-69.93,0-139.86.01-209.78,0-3.95.07-7.91.22-11.86.06-1.43.26-2.92.74-4.26,3.92-10.94,14.56-16.65,23.31-16.58,32.67.25,65.35.15,98.02.03,3.9-.02,7.49.78,10.8,2.47,4.46,2.28,8.48,5.25,10.15,10.47-.18.2-.56.61-.56.61-.85-.5-2.01-.8-2.49-1.54-4.76-7.27-12.36-8.55-20.04-9.66-1.02-.15-2.08-.02-3.12-.02-29.57,0-59.13.08-88.7-.08-5.18-.03-9.8,1.54-14.46,3.26-3.03,1.12-5.33,3.42-6.94,6.07-2.59,4.26-4.34,8.67-4.33,14.03.17,72.04.11,144.08.11,216.12,0,2.29,0,4.58-.04,7.46Z"/>
  <path class="cls-1" d="M494,487.19c.34.53.67,1.06,1.13,1.88-39.62.31-79.36.35-119.09.35-81.14,0-162.28-.03-244.01-.05.12-.54.83-1.07,2.3-2.02,81.28-.3,161.81-.17,242.33-.1,39.12.04,78.23-.03,117.35-.05Z"/>
  <path class="cls-1" d="M1344.29,1155.27c-.77-.56-1.4-1.46-1.5-2.41-.18-1.86-.07-3.74-.07-5.62,0-104.1,0-208.19-.02-312.29,0-2.46-.38-4.93-1.13-8.17-.79-2.27-1.02-3.77-1.27-5.72-.06-1.68-.1-2.91-.14-4.13,0,0,.06-.05.1-.08,3.91,5.66,4.95,12.07,4.95,18.79-.02,104.16-.01,208.32-.04,312.48,0,2.26-.33,4.52-.89,7.15Z"/>
  <path class="cls-1" d="M378.31,603.78c.5.56.53.97.66,1.67-25.98.28-51.97.24-77.97.23-55.73-.02-111.46-.02-167.79-.04-.55-.52-.51-1.03-.51-1.92,19.29-.34,38.62-.26,57.95-.25,60.5.04,120.99.05,181.49.08,1.87,0,3.74.04,6.17.22Z"/>
  <path class="cls-1" d="M1099.17,1146.81c-.25.02-.49.03-1.1.09-.77-.87-1.41-1.76-1.52-2.71-.19-1.64-.07-3.33-.07-4.99,0-67.07-.02-134.14.29-201.66.87-.09,1.44.27,2.16,1.19.2,9.08.28,17.59.28,26.11,0,60.66-.02,121.31-.03,181.97Z"/>
  <path class="cls-1" d="M1389.15,1151.32c-.1-.47.43-.52,1.28-.56,7.56-.02,14.29-.31,21.18,1.29,1.59,1.43,3.02,1.08,4.95.58,2.8.29,5.11.61,7.63,1.2,1.1.44,1.99.62,3.45.77,2.04.29,3.51.59,5.14,1.2.77.4,1.39.5,2.47.6,1.97.32,3.47.62,5.14,1.18.75.41,1.33.56,2.43.73,1.53.27,2.54.52,3.72,1.12.99,1.25,2,1.22,3.53.9,2,.37,3.52.76,5.11,1.44.78,1.28,1.54,1.59,2.9.43,1.43.08,2.38.22,3.31.64.05.67.12,1.05.19,1.44-.5.34-1.08,1.04-1.49.95-4.65-1.01-9.28-2.11-13.9-3.24-8.45-2.05-16.84-4.38-25.35-6.12-4.84-.99-9.89-.88-14.81-1.52-5.14-.67-10.27-1.35-15.47-1.4-.45,0-.9-.75-1.45-1.62Z"/>
  <path class="cls-1" d="M372.13,757.99c2.07,1.92,3.91,4.3,5.89,7.08-2.69.85-4.81.14-5.43-3.02-.23-1.2-.46-2.4-.46-4.06Z"/>
  <path class="cls-1" d="M1462.99,504.41c.53-.73,1.06-1.45,1.88-2.35.32,1.57.34,3.3.35,5.56-.02.52-.03.54-.31.42-.74-.47-1.21-.83-1.82-1.58-.13-.95-.11-1.5-.1-2.06Z"/>
  <path class="cls-2" d="M1359,506.87c-1.77-.06-2.52-1.07-2.62-3.17-.06-.43.23-.74.72-.74,1.3.95,2.12,1.89,2.68,3.1-.43.45-.6.63-.77.81Z"/>
  <path class="cls-1" d="M838.96,359.41c.01.52.02,1.04.06,1.95-1.52-.17-3.07-.72-4.84-1.64-.22-.36-.14-.45.44-.45,1.33-.17,2.09-.33,3.13-.52.7.07,1.01.3,1.21.66Z"/>
  <path class="cls-1" d="M814.35,1230.57c.59-.19,1.17-.38,1.92-.83.38-.28.59-.29,1.11-.29.32.56.32,1.09-.06,2.05-1.25-.03-2.11-.48-2.97-.94Z"/>
  <path class="cls-1" d="M380.43,768.24c-.02.53-.07.91-.2,1.86-.33-.18-.59-.93-.59-2.04.46-.28.63-.15.79.18Z"/>
  <path class="cls-1" d="M378.99,766.97c.24-.11.41,0,.45.1-.26.23-.55.35-.84.48.05-.16.1-.32.39-.58Z"/>
  <path class="cls-2" d="M1361.56,507.37c-.19.49-.38.97-.87,1.72-.33.05-.37-.16-.2-.96.37-.78.53-.96.75-1.02.07.13.31.27.31.27Z"/>
  <path class="cls-1" d="M833.92,359.4c-.43-.11-.74-.35-1.11-.96-.13-.27-.12-.29.16-.17.62.34.89.63,1.07,1,0,0-.08.09-.12.13Z"/>
  <path class="cls-1" d="M811.27,1229.14c-.47.07-1.14-.19-2.06-.72.46-.05,1.15.17,2.06.72Z"/>
</svg>